<svg enable-background="new 0 0 549.345 271.831" viewBox="0 0 549.345 271.831" xmlns="http://www.w3.org/2000/svg" xmlns:xlink="http://www.w3.org/1999/xlink"><linearGradient id="a" gradientUnits="userSpaceOnUse" x1="154.97" x2="409.83"><stop offset="0" stop-color="#f8130d"/><stop offset="0" stop-color="#ea142d"/><stop offset="0" stop-color="#c71781"/><stop offset=".0928" stop-color="#ce2e8d"/><stop offset=".2348" stop-color="#d84b9c"/><stop offset=".387" stop-color="#df61a7"/><stop offset=".5523" stop-color="#e471b0"/><stop offset=".7403" stop-color="#e77ab4"/><stop offset="1" stop-color="#e87db6"/><stop offset="1" stop-color="#c485b8"/><stop offset="1" stop-color="#a08dbb"/><stop offset="1" stop-color="#8094bd"/><stop offset="1" stop-color="#649abf"/><stop offset="1" stop-color="#4e9fc0"/><stop offset="1" stop-color="#3da2c2"/><stop offset="1" stop-color="#32a5c2"/><stop offset="1" stop-color="#2ba7c3"/><stop offset="1" stop-color="#29a7c3"/></linearGradient><linearGradient id="b" gradientUnits="userSpaceOnUse" x1="135.25" x2="437.71"><stop offset="0" stop-color="#f8130d"/><stop offset="0" stop-color="#6e5b6c"/><stop offset="0" stop-color="#1987a6"/><stop offset=".0496" stop-color="#1b8baa"/><stop offset=".3054" stop-color="#239bb8"/><stop offset=".5969" stop-color="#28a4c0"/><stop offset="1" stop-color="#29a7c3"/><stop offset="1" stop-color="#2aa7c1"/><stop offset="1" stop-color="#2da8ba"/><stop offset="1" stop-color="#32aaaf"/><stop offset="1" stop-color="#39ac9e"/><stop offset="1" stop-color="#42ae88"/><stop offset="1" stop-color="#4db26c"/><stop offset="1" stop-color="#5ab64c"/><stop offset="1" stop-color="#6aba28"/><stop offset="1" stop-color="#6cbb22"/></linearGradient><linearGradient id="c" gradientUnits="userSpaceOnUse" x1="115.53" x2="465.64"><stop offset="0" stop-color="#f8130d"/><stop offset="0" stop-color="#695425"/><stop offset="0" stop-color="#147a33"/><stop offset=".0405" stop-color="#1d8131"/><stop offset=".1907" stop-color="#3a962c"/><stop offset=".3517" stop-color="#50a627"/><stop offset=".5265" stop-color="#60b224"/><stop offset=".7253" stop-color="#69b923"/><stop offset="1" stop-color="#6cbb22"/><stop offset="1" stop-color="#80c434"/><stop offset="1" stop-color="#9fd251"/><stop offset="1" stop-color="#bbde69"/><stop offset="1" stop-color="#d1e77d"/><stop offset="1" stop-color="#e2ef8c"/><stop offset="1" stop-color="#edf497"/><stop offset="1" stop-color="#f4f79d"/><stop offset="1" stop-color="#f6f89f"/></linearGradient><linearGradient id="d" gradientUnits="userSpaceOnUse" x1="95.805" x2="493.52"><stop offset="0" stop-color="#f8130d"/><stop offset="0" stop-color="#e7860c"/><stop offset="0" stop-color="#dbdb0c"/><stop offset=".0914" stop-color="#e1e12d"/><stop offset=".2088" stop-color="#e7e850"/><stop offset=".3336" stop-color="#edee6d"/><stop offset=".4662" stop-color="#f1f283"/><stop offset=".6102" stop-color="#f4f693"/><stop offset=".7739" stop-color="#f5f79c"/><stop offset="1" stop-color="#f6f89f"/><stop offset="1" stop-color="#f6f69e"/><stop offset="1" stop-color="#f6ef9c"/><stop offset="1" stop-color="#f6e499"/><stop offset="1" stop-color="#f6d393"/><stop offset="1" stop-color="#f7bd8c"/><stop offset="1" stop-color="#f7a284"/><stop offset="1" stop-color="#f79680"/></linearGradient><linearGradient id="e" gradientUnits="userSpaceOnUse" x1="76.084" x2="521.39"><stop offset="0" stop-color="#f8130d"/><stop offset="0" stop-color="#f64d16"/><stop offset="0" stop-color="#f3a122"/><stop offset="1" stop-color="#f7d17f"/><stop offset="1" stop-color="#f79680"/></linearGradient><linearGradient id="f" gradientUnits="userSpaceOnUse" x1="56.363" x2="549.33"><stop offset="0" stop-color="#f8130d"/><stop offset="0" stop-color="#fb0f0c"/><stop offset="1" stop-color="#f79680"/><stop offset="1" stop-color="#f8130d"/></linearGradient><linearGradient id="g" gradientUnits="userSpaceOnUse" x1="42.967" x2="52.273" y1="98.623" y2="107.93"><stop offset="0" stop-color="#f8130d"/><stop offset=".1781" stop-color="#f84236"/><stop offset=".5088" stop-color="#f79680"/><stop offset="1" stop-color="#f8130d"/></linearGradient><linearGradient id="h" gradientUnits="userSpaceOnUse" x1="78.096" x2="87.402" y1="133.75" y2="143.06"><stop offset="0" stop-color="#dbdb0c"/><stop offset=".2132" stop-color="#e7e74b"/><stop offset=".5088" stop-color="#f6f89f"/><stop offset="1" stop-color="#dbdb0c"/></linearGradient><linearGradient id="i" gradientUnits="userSpaceOnUse" x1="60.723" x2="70.028" y1="115.57" y2="124.87"><stop offset="0" stop-color="#f3a122"/><stop offset=".0474" stop-color="#f3a62b"/><stop offset=".5088" stop-color="#f7d17f"/><stop offset="1" stop-color="#f3a122"/></linearGradient><linearGradient id="j" gradientUnits="userSpaceOnUse" x1="96.174" x2="105.48" y1="151.83" y2="161.14"><stop offset="0" stop-color="#147a33"/><stop offset=".0219" stop-color="#187d32"/><stop offset=".5088" stop-color="#6cbb22"/><stop offset="1" stop-color="#147a33"/></linearGradient><linearGradient id="k" gradientUnits="userSpaceOnUse" x1="114.59" x2="123.9" y1="170.25" y2="179.55"><stop offset="0" stop-color="#1987a6"/><stop offset=".5088" stop-color="#29a7c3"/><stop offset="1" stop-color="#1987a6"/></linearGradient><linearGradient id="l" gradientUnits="userSpaceOnUse" x1="132.51" x2="141.81" y1="188.16" y2="197.47"><stop offset="0" stop-color="#c71781"/><stop offset=".087" stop-color="#cd298a"/><stop offset=".5088" stop-color="#e87db6"/><stop offset="1" stop-color="#c71781"/></linearGradient><g fill-rule="evenodd"><path d="m154.97 172.45c28.004-26.356 65.933-41.144 105.57-41.144 82.436 0 149.29 62.861 149.29 140.51h-17.618c0-68.429-58.966-123.93-131.67-123.93-34.907 0-68.432 13.056-93.084 36.318l-12.49-11.755z" fill="url(#a)"/><path d="m135.25 153.89c33.264-31.306 78.295-48.877 125.3-48.877 97.883 0 177.16 74.677 177.16 166.8h-17.618c0-82.906-71.456-150.16-159.54-150.16-42.334 0-82.894 15.777-112.81 43.989l-12.49-11.755z" fill="url(#b)"/><path d="m115.53 135.33c38.456-36.194 90.585-56.55 145.02-56.55 113.27 0 205.1 86.433 205.1 193.04h-17.683c0-97.446-83.947-176.39-187.42-176.39-49.762 0-97.356 18.562-132.52 51.662l-12.491-11.755z" fill="url(#c)"/><path d="m95.805 116.77c43.714-41.144 102.94-64.221 164.74-64.221 128.65 0 232.97 98.188 232.97 219.27h-17.683c0-111.92-96.371-202.69-215.29-202.69-57.126 0-111.88 21.345-152.25 59.396l-12.489-11.756z" fill="url(#d)"/><path d="m76.084 98.206c48.909-46.093 115.24-71.893 184.46-71.893 144.03 0 260.85 109.88 260.85 245.5h-17.618c0-126.4-108.93-228.92-243.23-228.92-64.554 0-126.35 24.129-171.97 67.067l-12.49-11.755z" fill="url(#e)"/><path d="m531.64 271.81c0-140.94-121.42-255.15-271.1-255.15-71.917 0-140.81 26.852-191.69 74.739l-12.49-11.755c54.167-50.981 127.6-79.627 204.18-79.627 159.48 0 288.78 121.7 288.78 271.8h-17.683z" fill="url(#f)" stroke="#ff001c" stroke-miterlimit="10" stroke-width=".036"/><path d="m31.511 113.23 1.39 1.389-27.214 27.215-1.39-1.389z" fill="#808080"/><path d="m35.283 116.83 1.381 1.381-35.283 35.282-1.381-1.381z" fill="#808080"/><path d="m32.732 107.568 14.705-14.705.059-.059c2.924-2.924 7.671-2.924 10.595 0s2.949 7.595.067 10.543l-14.832 14.815z" fill="#fb0f0c"/><path d="m34.165 107.425 12.899-12.899.05-.051c2.568-2.568 6.738-2.568 9.306 0 2.56 2.56 2.585 6.67.059 9.247l-13.01 13.01z" fill="url(#g)"/><path d="m31.02 105.6 14.273 14.272-3.678 3.678-14.273-14.273z" fill="#fb0f0c"/><path d="m41.563 114.875 7.212-7.213-5.839-5.839-.831 6.238 2.204 2.204-3.678 3.679z" fill="#db0000"/><path d="m35.63 108.94 6.179-6.179-.491 4.899-3.484 3.484z" fill="#db0000"/><path d="m66.642 148.36 1.381 1.381-27.214 27.215-1.381-1.381z" fill="#808080"/><path d="m70.404 151.95 1.391 1.39-35.283 35.282-1.39-1.39z" fill="#808080"/><path d="m67.854 142.69 14.705-14.704c.016-.017.034-.034.058-.06 2.925-2.924 7.672-2.924 10.604.008 2.908 2.907 2.94 7.586.059 10.535l-14.832 14.815z" fill="#dbdb00"/><path d="m69.294 142.555 12.899-12.899c.018-.017.035-.034.051-.051 2.568-2.568 6.73-2.577 9.307 0 2.552 2.551 2.576 6.663.059 9.247l-13.018 13.001z" fill="url(#h)"/><path d="m66.15 140.73 14.272 14.272-3.678 3.678-14.272-14.272z" fill="#dbdb00"/><path d="m76.693 150 7.212-7.213-5.839-5.839-.839 6.229 2.212 2.212-3.678 3.679z" fill="#b5d11b"/><path d="m70.752 144.06 6.178-6.179-.482 4.907-3.484 3.483z" fill="#b5d11b"/><path d="m49.267 130.17 1.39 1.39-27.214 27.214-1.39-1.39z" fill="#808080"/><path d="m53.038 133.77 1.381 1.382-35.291 35.29-1.381-1.381z" fill="#808080"/><path d="m50.487 124.511 14.696-14.696.06-.06c2.923-2.923 7.678-2.933 10.603-.008s2.933 7.594.068 10.543l-14.832 14.815z" fill="#f7a122"/><path d="m51.92 124.367 12.899-12.899.051-.051c2.568-2.568 6.738-2.568 9.306 0 2.559 2.559 2.577 6.662.05 9.255l-13.001 13.001z" fill="url(#i)"/><path d="m48.775 122.54 14.273 14.273-3.679 3.678-14.272-14.272z" fill="#f7a122"/><path d="m59.319 131.816 7.204-7.204-5.839-5.839-.822 6.23 2.203 2.203-3.678 3.679z" fill="#da8a1a"/><path d="m53.386 125.88 6.179-6.178-.492 4.898-3.483 3.484z" fill="#da8a1a"/><path d="m84.719 166.44 1.383 1.382-27.215 27.214-1.381-1.381z" fill="#808080"/><path d="m88.482 170.03 1.39 1.389-35.282 35.283-1.39-1.39z" fill="#808080"/><path d="m85.931 160.768 14.705-14.705.058-.059c2.925-2.924 7.672-2.925 10.604.008 2.908 2.906 2.941 7.585.06 10.534l-14.833 14.815z" fill="#007931"/><path d="m87.372 160.632 12.9-12.899c.017-.017.034-.035.05-.05 2.569-2.568 6.729-2.578 9.306-.001 2.552 2.551 2.576 6.663.06 9.247l-13.018 13.001z" fill="url(#j)"/><path d="m84.228 158.81 14.272 14.272-3.678 3.678-14.273-14.271z" fill="#007931"/><path d="m94.771 168.083 7.212-7.213-5.841-5.84-.838 6.229 2.212 2.212-3.678 3.678z" fill="#005c25"/><path d="m88.83 162.14 6.179-6.178-.483 4.907-3.484 3.483z" fill="#005c25"/><path d="m103.14 184.86 1.389 1.389-27.214 27.216-1.39-1.39z" fill="#808080"/><path d="m106.91 188.46 1.381 1.382-35.283 35.282-1.381-1.381z" fill="#808080"/><path d="m104.357 179.193 14.705-14.705.059-.059c2.923-2.924 7.67-2.924 10.594-.001s2.948 7.596.068 10.544l-14.832 14.814z" fill="#0086a6"/><path d="m105.789 179.049 12.9-12.899.05-.051c2.567-2.568 6.738-2.568 9.306 0 2.56 2.56 2.585 6.669.061 9.247l-13.011 13.01z" fill="url(#k)"/><path d="m102.65 177.23 14.271 14.272-3.678 3.678-14.272-14.272z" fill="#0086a6"/><path d="m113.188 186.499 7.213-7.212-5.832-5.832-.839 6.23 2.204 2.203-3.678 3.678z" fill="#00738f"/><path d="m107.26 180.57 6.178-6.179-.492 4.898-3.482 3.485z" fill="#00738f"/><path d="m121.05 202.77 1.383 1.381-27.216 27.214-1.38-1.381z" fill="#808080"/><path d="m124.82 206.37 1.381 1.381-35.284 35.283-1.38-1.382z" fill="#808080"/><path d="m122.273 197.11 14.705-14.704.058-.059c2.925-2.925 7.672-2.925 10.595-.001s2.94 7.586.068 10.543l-14.833 14.814z" fill="#c61083"/><path d="m123.706 196.966 12.9-12.899c.017-.018.034-.035.05-.05 2.569-2.569 6.738-2.57 9.307-.001 2.56 2.56 2.575 6.662.058 9.247l-13.017 13.001z" fill="url(#l)"/><path d="m120.56 195.14 14.271 14.271-3.678 3.679-14.273-14.272z" fill="#c61083"/><g fill="#9b004f"><path d="m131.105 204.417 7.212-7.213-5.839-5.84-.831 6.238 2.203 2.203-3.678 3.679z"/><path d="m125.17 198.48 6.179-6.179-.492 4.899-3.484 3.483z"/></g></g></svg>