<?xml version="1.0" encoding="UTF-8"?>
<!DOCTYPE svg  PUBLIC '-//W3C//DTD SVG 1.1//EN'  'http://www.w3.org/Graphics/SVG/1.1/DTD/svg11.dtd'>
<svg enable-background="new 0 0 1920 1920" version="1.1" viewBox="0 0 1920 1920" xml:space="preserve" xmlns="http://www.w3.org/2000/svg">
<g stroke-width=".0938">
	<rect width="1920" height="1920" fill="#FAF2E7" stroke="#FAF2E7"/>
	<path d="M0,0h40.54C28.19,7.6,14.08,11.61,0,14.6V0z" fill="#8DB5A9" stroke="#8DB5A9"/>
	<path d="m299.56 268.59c7.91-2.36 16.44-0.99 24.06 1.76 18.68 6.86 34.57 19.34 49.57 32.1 1.32 1.17 2.59 2.4 3.87 3.62-0.11 6.23-0.19 12.63-2.57 18.5-6.81 17.55-19.43 32.18-33.22 44.69-5.15 4.33-10.46 9.49-17.41 10.43-4.21 0.69-7.84-2.41-9.66-5.93-3.32-6.36-3.56-13.78-3.31-20.8 0.73-11.73 3.7-23.91 11.71-32.88-7.58-6-17.3-8.65-24.5-15.19-6.86-6.4-10.85-16.35-8.88-25.69 1.07-5.17 5.37-9.16 10.34-10.61z" fill="#8DB5A9" stroke="#8DB5A9"/>
	<path d="m27.4 815.34c3.88-1.21 8.42-1.97 12.13 0.14 3.57 2.29 4.85 6.77 5.07 10.79 0.41 9.32-2.72 18.38-6.59 26.73-3.48 7.71-9.08 14.22-15.82 19.28 3.91 5.54 9.43 9.59 14.16 14.38 8.8 8.02 12.51 21.48 7.85 32.61-2.65 6.15-9.71 9.41-16.19 8.63-10.76-0.9799-20.02-7.3899-28.01-14.22v-84.3c8.78-5.3 17.62-10.75 27.4-14.04z" fill="#8DB5A9" stroke="#8DB5A9"/>
	<path d="m133.57 0h39.09c7.21 5.47 13.01 12.92 15.65 21.65 3.52 9.7 2.63 20.22 0.7 30.15 9.23-1.64 16.67-8.01 25.73-10.09 8.43-1.82 16.91 1.39 24.31 5.21 6.74 3.54 11.81 9.86 14 17.14 2.93 8.86 3.52 18.9-0.43 27.54-4.02 9.19-12.51 15.79-21.77 19.18-7.31 2.68-15.36 4.22-21.37 9.52-0.8 1.45-1.39 3-1.9 4.58-0.43 5.81 4.4 9.73 7.85 13.68 8.27 8.58 11.58 20.83 11.85 32.48-0.69 11.82-9.13 21.2-16.99 29.26-5.86 6.31-15.28 6.24-23.09 4.56-9.66-2.33-19.58-6.09-26.27-13.78-6.12-6.62-9.57-15.43-16.65-21.2-2.36 9.24-6.5 18.24-13.66 24.75-9.04 8.53-22.22 13.46-34.55 10.3-15.6-4.38-26.85-20.78-24.99-36.95 0.51-10.42 7.4-18.74 12.66-27.22 3.7-6.09 8.16-11.67 12.08-17.6-9.54-7.23-23.43-4.28-32.32-12.66-4.88-5.71-8.23-12.75-10.01-20.02-2.45-10.11 1.21-20.66 7.16-28.84 5.59-7.72 14.56-12.65 23.94-13.93 11.67-1.54 23.78 0.97 34.01 6.75 2.19 1.26 4.58 2.1 7.05 2.6 0.44-13.48-7.06-26.3-4.27-39.85 1.21-7.28 6.33-13.1 12.19-17.21m13.76 76.4c-13.43 2.81-23.96 15.83-23.53 29.61-0.34 13.24 9.41 25.93 22.39 28.79 9.54 2.35 20.22-0.48 27.24-7.4 6.53-5.84 9.99-14.76 9.49-23.46-0.3-10.11-6.28-19.85-15.23-24.58-6.13-3.48-13.5-4.26-20.36-2.96z" fill="#EA7E64" stroke="#EA7E64"/>
	<path d="m568.77 0h29.48c-1.92 5.01-3.86 10.34-2.88 15.79 1.58 10.82 11.54 19.83 22.61 19.6 10.78 0.61 21.39-7.67 22.88-18.45 1.03-5.83-0.56-11.72-3.12-16.94h47.83c4.84 1.89 9.61 4.37 13.17 8.25 9.68 9.99 9.62 28.21-1.02 37.49-7.65 6.76-18.78 8.15-28.47 5.93-4.94-1.04-9.16-3.91-13.44-6.44-0.74 10.53 3.59 21.54-0.97 31.64-3.44 7.49-8.13 15.56-16.08 18.85-7.34 1.53-15.08-0.06-22.07-2.44-8.93-3.02-13.92-11.96-16.58-20.45-2.01-5.94-0.63-12.27-1.66-18.34-0.63-3.32-4.3-5.07-7.44-4.73-5.92 0.57-11.06 3.85-16.62 5.67-4.29 1.47-8.91 1.7-13.41 1.37-6.3-0.42-12.05-3.94-16.15-8.62-5.67-6.76-9.5-16.11-6.57-24.9 2.56-7.17 6.61-14.88 14.17-17.72 5.4-2 11.18-2.88 16.34-5.56z" fill="#EA7E64" stroke="#EA7E64"/>
	<path d="m1005.4 0h138.81c-2.0901 3.27-4.13 6.77-4.3101 10.75 7.53 1.9 15.15 3.5 22.58 5.81 8.4301 2.6 17.73 4.3 24.32 10.67 13.65 11.7 15.8 34.74 3.77 48.3-10.2 11.07-27 14.11-41.12 10.05-5.8401-1.48-10.66-5.24-16.07-7.69-0.9099 12.75 4.36 25.82-0.26 38.24-3.71 9.62-9.22 19.11-17.85 25.08-5.63 4-12.89 2.69-19.28 1.98-9.5-1.31-19.92-4.08-25.89-12.21-5.5901-7.93-10.39-17.06-10.44-26.98-0.29-6.19 1.25-13.12-2.72-18.49-1.5-0.76-3.0701-1.36-4.65-1.87-8.01-0.81-15.05 3.65-22.24 6.37-5.7 2.34-11.93 3.11-18.06 2.79-10.12-0.3-19.57-6.27-25.1-14.62-3.74-5.74-6.95-12.18-7.23-19.15-0.45-9.93 4.47-19.32 10.58-26.82 8.25-9.07 21.66-8.04 31.81-13.69-2.46-3.41-6.27-5.4-9.12-8.42-3.0399-2.95-5.1899-6.62-7.5299-10.1m71.99 6.44c-8.0399 1.99-15.34 7.34-19.24 14.7-3.72 6.66-4.13 14.79-2.3099 22.09 3.5299 13.02 16.83 22.35 30.24 21.71 11.43-0.27 22.33-7.81 26.42-18.52 4.9401-12.36 0.4-27.7-10.61-35.22-7-5.03-16.14-6.58-24.5-4.76z" fill="#EA7E64" stroke="#EA7E64"/>
	<path d="m1843.2 14.19c7.76-1.69 16.27-1.53 23.45 2.19 10.67 5.27 17.7 15.98 20.72 27.25 2.1901 7.62 1.23 15.59 0.9 23.37 7.3099-1.68 13.17-6.6 19.77-9.88 3.71-1.93 7.88-2.56 11.96-3.32v74.85c-2.13 1.83-4.36 3.54-6.34 5.51-0.76 1.53-1.29 3.16-1.67 4.82 0.23 5.18 4.6801 8.35 8.01 11.72v64.24c-5.6 4.55-12.97 6.18-20.04 5.22-9.1699-1.04-18.44-3.65-25.97-9.14-8.59-6.32-13.09-16.62-21.68-22.93-1.27 6.03-2.41 12.23-5.64 17.58-7.24 12.92-21.53 22.68-36.71 21.56-10.36-0.89-19.63-7.42-25.21-16-5.9-8.98-7.14-20.82-3.37-30.86 5.38-12.02 12.25-23.31 18.97-34.62-6.37-5.49-15.43-4.18-23.1-6.1-5.13-0.91-9.9-3.69-12.96-7.94-5.8101-7.6-10.33-16.94-9.65-26.73 0.99-13.33 9.2-26.31 21.69-31.61 10.04-4.41 21.54-4.36 32.05-1.74 5.73 1.33 10.84 4.52 16.61 5.77 0.38-10.39-5.15-19.65-6.59-29.75-1.0601-6.98-0.52-14.66 3.66-20.61 4.79-7.11 13.04-10.88 21.14-12.85m7.1199 80.22c-13.11 2.65-23.21 15.24-23.27 28.55-0.2301 6.77 1.8899 13.59 6.0299 18.96 5.92 7.91 16.08 12.51 25.95 11.47 10.13-0.7 19.58-7.26 23.99-16.38 3.2-6.04 3.73-13.17 2.65-19.83-1.7301-8.64-7.63-16.28-15.41-20.35-6.1-3.1-13.29-3.89-19.94-2.42z" fill="#EA7E64" stroke="#EA7E64"/>
	<path d="m557.89 146.81c6.71-0.92 13.32-2.7 20.11-3.09 1.97 0.55 2.75 2.88 3.86 4.44 6.69 12.41 7.9 27.06 7 40.91-1.07 12.68-3.8 25.49-10.07 36.67-3.88 7.11-10.8 12.58-18.71 14.42-6.08 1.28-13.13-0.14-17.43-4.84-3.35-5.04-3.62-11.35-4.97-17.09-1.31-5.5-1.57-11.49-4.76-16.33-5.01 0.86-9.86 2.71-14.98 2.73-9.94 0.34-20.65-1.54-28.43-8.16-4.16-3.34-6.4-9.24-4.48-14.38 2.74-7.88 9.69-13.21 16.42-17.61 17.1-10.3 37.01-14.29 56.44-17.67z" fill="#EA7E64" stroke="#EA7E64"/>
	<path d="m1492.1 182.12c11.62-10.16 31.67-7.26 39.81 5.91 4.5699 8.05 7.4299 16.93 10.96 25.45 0.4399 1.18 0.92 2.35 1.4299 3.52 3.0601-0.82 5.9601-2.32 8.0701-4.75 4.48-4.22 9.09-9.64 15.74-9.88 8.15-0.2 17.03 1.54 23.01 7.48 5.52 5.53 9.15 13.25 8.8099 21.17 0.0901 9.35-5.1499 17.92-11.89 24.05-4.3401 4.15-9.9801 6.46-14.81 9.93 7.6899 6.31 18.47 7.09 25.88 13.85 4.73 4.07 7.1899 10.52 6.41 16.72-1.13 9.1-5.87 18.23-14 22.9-8.3401 4.79-18.91 4.2-27.55 0.53-5.91-2.34-10.47-6.87-15.13-11.02-3.75 8.27-1.7 18.64-8.09 25.76-5.65 5.83-13.36 10.74-21.79 10.28-6.03-0.36-11.85-2.78-16.74-6.25-6.85-4.89-10.59-13.45-10.08-21.79-0.27-8.14 4.73-15.42 4.3099-23.55-0.02-3.49-3.01-6.47-6.5-6.42-6.39-0.04-12.85 1.75-19.19 0.19-8.24-2.03-17.08-6.01-20.68-14.26-2.89-6.72-5.63-14.12-4.6-21.53 2.76-8.63 10.62-14.47 18.32-18.56 9.05-4.91 19.59-1.99 29.28-3.84-2.7899-4.62-6.51-8.79-8.03-14.07-3.4298-10.77-1.8498-24.09 7.0502-31.82m32.21 57.18c-10.91 2.48-18.46 14.07-16.75 25.06 1.12 8.67 7.42 16.53 15.82 19.15 8.03 2.62 17.6 0.52 23.36-5.8 6.39-6.4 8.0699-16.79 4.46-25.01-4.2601-10.18-16.14-16.33-26.89-13.4z" fill="#EA7E64" stroke="#EA7E64"/>
	<path d="m596.87 271.84c6.19-3.02 13.23 0.13 18.11 4.22 11.12 9.23 18.02 22.42 23.24 35.66 5.38 13.42 8.58 27.55 12.83 41.33 0.95 3.33 1.61 7.22-1.01 10.01-12.84 8.74-28.69 11.98-44.04 11.78-12.29 0.22-24.86-1.47-36.08-6.71-8.62-3.98-15.7-12.42-16.31-22.11-0.21-5.43 1.59-12.04 6.98-14.45 7.47-3.35 15.54-5.05 23.28-7.67 2.06-0.81 4.33-1.53 5.88-3.21-0.29-4.42-3.08-8.31-3.72-12.71-1.07-6.52-1.14-13.29 0.1899-19.77 1.6401-6.33 4.5001-13.26 10.65-16.37z" fill="#EA7E64" stroke="#EA7E64"/>
	<path d="m447.61 338.61c8.52-2.6 18.88-2.22 25.83 3.95 3 3 5.87 6.95 5.42 11.42-1.15 11.37-8.17 21.5-8.26 33.02 9.02 1.98 17.97 5.21 25.03 11.36 5.47 4.69 10.48 10.54 12.31 17.66 1.51 5.62-1.08 11.84-5.96 14.93-6.21 3.91-13.64 5.55-20.91 5.74-23.77 1.19-46.45-7.44-68.49-15.2-4.3-1.72-8.88-2.81-12.95-5.05-1.24-2.62-0.91-5.66-0.79-8.47 1.32-16.32 9.22-31.34 18.87-44.27 8.06-10.26 17.57-20.16 29.9-25.09z" fill="#EA7E64" stroke="#EA7E64"/>
	<path d="m1232.9 361.89c1.84-3.44 5.01-6.66 9.12-6.95 4.0701-0.36 7.92 1.59 11.01 4.09 7.38 5.91 12.39 14.17 16.28 22.67 4.38 9.88 7.61 20.23 10.29 30.7 0.83 3.35 1.8899 6.67 3.5499 9.73-0.47 2.3-1.01 4.59-1.6799 6.85-14.9 9.52-33.54 10.94-50.63 8.16-8.74-1.72-18.34-4.58-23.4-12.53-4.01-5.74-4.89-14.6 0.37-19.83 7.7-4.98 17.66-4.75 25.31-9.88-1.11-4.28-3.01-8.37-3.4299-12.81-0.68-6.83-0.05-14.04 3.21-20.2z" fill="#EA7E64" stroke="#EA7E64"/>
	<path d="m1028 401.8c19.38-1.53 39.13 2.94 56.28 12.04 7.6 4.26 15.06 9.62 19.64 17.2-7.37 14.58-15.36 28.92-24.4 42.54-6.87 10.18-14.79 19.83-24.56 27.36-6.1699 4.41-13.12 8.76-20.96 8.77-4.85 0.18-9.63-2.59-11.76-6.96-3.65-6.18-3.37-13.66-2.79-20.55 1.1-8.39 4.23-16.62 9.5099-23.28 0.91-1.28 2.75-3.36 0.75-4.59-5.97-5.34-13.48-8.51-20.1-12.91-3.7-2.5-8.37-4.88-9.48-9.6-1.85-6.37 0.04-13.41 4.24-18.43 5.6102-7.23 14.65-11.01 23.63-11.59z" fill="#EA7E64" stroke="#EA7E64"/>
	<path d="m198.92 579.95c4.85-6.52 12.75-11.51 21.12-10.82 4.25 0.2 8.82 1.87 11.09 5.69 5.57 9.27 7.95 20.19 14.21 29.09 3.24-0.45 5.83-2.6 8.79-3.8 8.97-3.88 19.12-4.84 28.7-3.02 5.95 1.27 12.41 4.05 15.11 9.91 2.14 5.2 0.78 11.23-2 15.94-6.05 10.35-15.63 18.05-25.61 24.4-16.82 10.3-35.34 17.31-53.67 24.39-1.53 0.54-3.1 0.99-4.66 1.44-4.86-3.21-7.96-8.33-10.86-13.24-7.99-15.27-10.96-32.81-10.47-49.92 0.59-10.39 1.91-21.43 8.25-30.06z" fill="#EA7E64" stroke="#EA7E64"/>
	<path d="m1482.3 644.31c4.9299-1.47 11.56-0.9 14.56 3.83 4.35 6.71 6.22 14.72 10.64 21.39 0.61 1.1299 1.84 1.86 3.0599 1.02 4.02-1.73 7.8101-4.1 12.2-4.86 8.2999-1.76 17.88-1.69 24.98 3.57 3.91 2.81 4.8101 8.31 3.24 12.66-2.84 8.03-9.17 14.18-15.67 19.39-14.81 11.13-32.29 17.77-49.3 24.72-1.5801 0.58-3.61 1.4-4.9-0.16-9.1801-8.8-13.22-21.6-15.15-33.87-1.4199-10.48-1.63-21.37 1.4-31.6 2.06-7.29 7.6099-13.79 14.94-16.09z" fill="#EA7E64" stroke="#EA7E64"/>
	<path d="m920.54 703.57c7.54-5.9 16.62-10.96 26.5-10.51 12.12 0.39 24.28 6.79 30.62 17.29 6.91 11.31 7.17 25.54 3.69 38.04-1.27 5.07-4.13 9.57-5.34 14.66 7.68 0.53 14.87-2.86 22.13-4.86 8.22-2.57 17.59-4.03 25.61-0.02 7.21 3.35 11.86 10.39 14.38 17.7 3.37 9.33 3.89 20.29-0.99 29.21-5 9.93-14.81 16.6-25.27 19.76-7.94 2.75-16.47 1.92-24.69 1.35 2.14 9.62 10.03 16.63 12.49 26.13 1.71 6.46-0.02 13.15-2.02 19.34-2.13 6.6801-6.26 12.93-12.31 16.66-8.65 5.24-19.25 7.67-29.24 5.6-9.88-2.21-17.96-9.54-22.84-18.2-4.33-7.64-6.07-16.9-12.62-23.14-1.47-0.75-3.05-1.24-4.64-1.56-5.49-0.73-8.89 4.28-12.23 7.73-7.43 8.77-18.6 13.54-29.75 15.32-9.63 1.55-18.71-3.39-26.25-8.83-5.12-3.82-11.26-7.65-12.77-14.33-2.57-11.1 0.43-22.74 5.06-32.88 5.46-11.42 18.07-16.45 25.47-26.25-3.63-1.48-7.59-1.73-11.25-3.04-11.33-4.27-20.95-13.18-25.54-24.45-3.51-8.44-3.41-18.49 0.95-26.61 4.33-8.09 11.67-14.64 20.41-17.57 7.7401-2.49 16.42-2.41 23.95 0.77 11.63 5.4 22.72 11.87 33.84 18.22 4.11-5.12 4.03-11.99 4.86-18.18 0.7201-6.3501 2.4801-13.25 7.7901-17.35m2.78 62.78c-11.28 2.53-20.79 12.1-22.49 23.65-1.71 9.52 1.71 19.77 8.77 26.38 5.39 5.27 12.86 8.26 20.38 8.44 10.02 0.22 20.06-4.92 25.5-13.38 7.96-11.57 5.7-28.82-4.96-37.96-7.11-6.82-17.68-9.31-27.2-7.13z" fill="#EA7E64" stroke="#EA7E64"/>
	<path d="m1607.8 720.79c6.2201-2.28 13.05-1.65 19.54-1.12 14.89 2.25 28.66 8.94 41.64 16.3 11.5 6.63 22.47 14.12 33.57 21.39 2.39 1.2 1.23 4.21 1.02 6.28-3.0699 13.52-11.72 24.98-21.23 34.74-7.74 7.47-16.26 14.33-25.98 19.05-6.89 3.58-14.55 6.42-22.43 5.81-6.87-0.61-13.85-3.46-18.28-8.89-3-4.11-5.21-9.7599-2.8899-14.67 3.0699-6.89 7.62-12.97 11.37-19.49 1.6699-3.03 3.9099-6.1 3.64-9.73-5.9701-2.79-11.94-5.9-16.47-10.79-6.95-7.13-13.09-16.36-12.76-26.7-0.0099-5.58 4.1402-10.39 9.2602-12.18z" fill="#EA7E64" stroke="#EA7E64"/>
	<path d="m357.38 815.39c3.88-3.91 8.84-7.61 14.64-7.35 6.25-0.14 11.02 5 13.91 10.02 7.55 14.01 8.48 30.43 7.8 46.01-0.59 13.1-2.59 26.08-4.6 39.03-0.72 4.36-1.15 8.79-2.43 13.04-2.59 0.65-5.16 1.35-7.76 1.9-17.73 1.63-35.43-3.7599-50.93-12.06-9-4.9-17.62-10.92-24.09-18.95-5.27-6.67-7.8-15.68-6.03-24.06 1.56-5.6 5.18-11.59 11.16-13.11 11.86-1.58 23.63 3.75 35.44 1.68-0.35-13.08 3.87-26.5 12.89-36.15z" fill="#EA7E64" stroke="#EA7E64"/>
	<path d="m1225.4 897.38c2.73-6 8-11.26 14.66-12.5 3.85-0.69 8.47-0.3 11.19 2.88 5.3301 5.87 8.47 13.35 13.61 19.38 0.76 0.99 1.9 1.57 2.9801 2.21 5.58-4.38 11.66-8.37 18.74-9.7599 7.25-1.71 15.85-1.9901 22.01 2.87 4.61 3.98 4.1799 10.97 1.98 16.12-5.05 12.55-15.46 21.93-25.98 29.97-10.96 8.3-22.93 15.12-34.65 22.26-6.38-3.26-10.99-9.04-14.77-14.97-6.16-10.09-10.04-21.52-11.7-33.21-1.2399-8.3901-1.4399-17.3 1.9301-25.25z" fill="#EA7E64" stroke="#EA7E64"/>
	<path d="m1841.8 1010.9c7.0701-2.38 14.67 0.09 21.08 3.28 8.1599 4.31 16.22 9.89 20.76 18.16 4.63 7.95 6.0599 17.41 11.47 24.94 3.3199-3.84 5.13-8.75 8.78-12.33 4.39-4.9601 10.28-8.13 16.08-11.16v155.72c-6.33-1.62-12.56-3.83-18.04-7.4299-5.09-3.05-9.12-7.5-14.11-10.69-4.21 11.75-0.0599 24.66-4.08 36.45-1.79 5.7999-5.55 11.03-10.77 14.19-7.14 4.33-15.9 4.86-24 3.9399-8.29-0.9099-16.23-4.95-21.59-11.37-7.78-9.1-10.28-21.69-8.9-33.36 0.59-6.7999 3.51-13.04 6.27-19.18-10.17-0.5701-19.63 4.76-29.8 3.75-6.39-0.4601-11.91-4.1801-16.96-7.8-6.61-4.74-11.64-12-12.59-20.19-0.8301-8.5801-0.52-17.77 3.96-25.39 5.5499-9.98 16.55-15.97 27.65-17.34 7.83-1.03 16.23-0.42 23.34-4.4401 1.28-1.33 2.4-2.8199 3.4-4.37 0.9299-5.6-2.5-10.35-5.03-14.97-5.3101-9.37-5.97-20.64-4.51-31.1 1.3-8.67 7.5-15.56 14.19-20.75 4.2198-3.1898 8.4798-6.4998 13.4-8.5598m25.51 77.55c-8.34 1.2699-15.94 6.3199-20.47 13.41-7.5 11.16-6.15 27.39 3.35 36.97 7.5701 7.9299 19.78 11.01 30.19 7.5199 11.42-3.5299 20.09-14.38 20.91-26.31 0.7101-8.4401-2.24-17.09-8.1699-23.16-6.5101-6.83-16.54-9.97-25.81-8.43z" fill="#EA7E64" stroke="#EA7E64"/>
	<path d="m99.14 1017.1c5.3-3.41 12.03-3.08 17.75-0.98 8.81 3.31 16.97 8.6699 23.18 15.78 7.84 9.23 8.58 22.04 15.02 32.05 2.99-4.85 5.68-10.04 10.05-13.83 8.53-7.9301 20.19-12.75 31.93-11.89 10.59 0.41 20.4 6.96 25.51 16.14 7.58 12.49 6.39 29.79-3.46 40.72-9.04 9.39-19.25 17.54-29.12 26.01 6.4 9.45 19.95 9.98 26.6 19.27 3.56 5.48 4.87 12.12 5.51 18.55 1.94 18.92-14.41 36.85-33.07 38.25-11.32 0.9601-22.54-3.13-31.8-9.45-4.72-3.16-8.45-7.53-13.14-10.73-4.14 11.64-0.9 24.45-4.99 36.12-2.22 7.22-7.79 13.43-14.96 15.96-7.93 2.8101-16.67 2.47-24.75 0.49-9.78-2.47-17.89-9.97-21.78-19.19-3.81-8.3-4.21-17.76-2.86-26.67 0.93-6.3199 4.12-11.93 6.3-17.83-9.83-0.6801-19.16 3.96-29 2.96-6.91-0.5599-12.71-4.83-17.98-8.96-5.89-4.67-10.09-11.49-11.12-18.97-1.61-11 0.8-23.13 8.49-31.48 6.57-6.95 16.07-10.67 25.5-11.35 7.5-0.77 15.71 0.1801 22.41-3.98 1.07-1.14 2.07-2.35 3-3.6 1.89-5.9301-2.27-11.14-4.63-16.21-4.92-9.9401-5.07-21.67-2.79-32.35 3.28-11.8 14.27-18.93 24.2-24.83m28.3 76.34c-11.09 0.88-21.11 8.53-25.24 18.8-4.44 10.48-2.19 23.53 5.89 31.65 10.44 11.83 30.72 12.04 41.76 0.9199 11.58-10.2 12.73-29.66 2.5-41.19-5.97-7.28-15.6-10.97-24.91-10.18z" fill="#EA7E64" stroke="#EA7E64"/>
	<path d="m1278.2 1029.2c5.8999-3.8099 12.96-5.35 19.94-4.5599 0.4401 0.11 1.3101 0.34 1.75 0.46 3.67 1.16 7.29 2.6 10.67 4.48 9.38 6.86 13.23 19.19 11.58 30.42-0.45 6.4-3.5599 12.1-5.24 18.18 8.39 0.3301 15.87-4.45 24.11-5.34 6.5601-1.15 13.73 0.89 18.18 5.98 5.1 5.89 7.37 13.91 7.3099 21.62-0.37 10.79-8.46 19.91-18.14 23.88-7.25 3.41-15.41 3.23-23.21 2.74 2.4301 8.74 10.68 15.31 10.26 24.91-0.74 8.8101-4.1901 18.48-12.22 23.15-7.29 4.0599-16.32 6-24.38 3.13-5.6001-1.76-10.01-5.98-13.48-10.56-4.4601-6-5.3701-13.99-10.48-19.56-2.25-2.74-6.73-2.8201-9.37-0.64-3.6499 2.98-6.3199 7.03-10.24 9.6899-5.39 3.67-11.72 6-18.2 6.67-6.79 0.74-12.99-2.83-18.46-6.39-4.4701-3.13-9.6001-6.59-10.74-12.32-1.62-8.77 0.7401-17.85 4.6801-25.7 4.6-8.1 13.61-12.1 19.38-19.21-4.9401-1.14-10.06-2.0601-14.46-4.73-8.9-5.36-15.95-14.87-16.12-25.54-0.37-13.73 12.12-25.81 25.65-26.1 5.91-0.4301 11.61 1.63 16.69 4.51 6.9 3.61 13.7 7.4299 20.37 11.46 0.4-0.5 1.2-1.49 1.6-1.99 0.5701-1.58 0.97-3.21 1.3101-4.84 0.87-4.8201 0.9399-9.8201 2.6-14.47 1.46-4.1799 5.27-6.7999 8.6601-9.3299m-0.8201 51.23c-7 1.3301-13.53 5.76-16.62 12.3-5.75 10.85-0.55 25.9 10.78 30.74 8.1799 4.17 18.67 2.5601 25.5-3.48 4.95-4.3 7.61-10.95 7.47-17.46-0.17-7.91-4.79-15.6-11.76-19.36-4.65-2.5299-10.14-3.7199-15.37-2.7399z" fill="#EA7E64" stroke="#EA7E64"/>
	<path d="m641.3 1066.3c16.63-3.52 33.56 2.52 48.06 10.38 8.39 4.5699 16.1 10.38 23.01 16.99 5.62 5.6899 10.88 12.37 12.44 20.41 1.41 6.99 0.55 14.93-4.16 20.56-2.85 3.37-6.96 6.46-11.64 5.77-9.52-0.91-18.56-4.41-28.03-5.64-1.54-0.24-3.07 0.0601-4.57 0.3-0.73 9.0699-3.52 18.08-8.86 25.52-4.43 6.22-10.14 12.16-17.73 14.23-5.32 1.63-11.25-0.7201-14.51-5.11-4.28-5.6801-6.19-12.76-7.34-19.68-2.05-16.11 0.28-32.38 3.9-48.1 2.75-11.97 5.95-23.85 9.43-35.63z" fill="#EA7E64" stroke="#EA7E64"/>
	<path d="m1276.6 1269.6c3.8301-0.66 8.5-0.67 11.31 2.49 5.5599 5.99 8.83 13.69 14.16 19.86 0.9601 1.13 2.65 2.7201 4.01 1.12 9.0701-7.51 21.33-11.68 33.06-9.2 4.85 1.11 9.61 4.79 10.03 10.07 0.51 6.5601-2.7001 12.7-6.1801 18.03-9.16 13.17-22.48 22.62-35.83 31.16-6.7101 4.13-13.33 8.41-20.28 12.14-5.08-2.3101-8.78-6.7101-12.14-11-7.4299-10.33-11.79-22.61-14-35.06-1.1899-7.6699-1.75-15.66 0.24-23.25 2.04-7.5397 7.78-14.55 15.62-16.36z" fill="#EA7E64" stroke="#EA7E64"/>
	<path d="m1438.2 1278.2c4.24-3.0499 8.9701-6.61 14.52-5.85 8.25 1.03 15.65 5.7201 21.69 11.24 7.1599 6.75 7.84 17.28 13.41 25.04 3.87-5.9 7.89-12.09 14.33-15.5 8.62-5.1801 20.15-6.6801 29.06-1.3199 12.71 7.58 16.77 26.37 7.92 38.36-6.77 8.4-15.45 15.01-23.01 22.65 0.84 0.7 1.7 1.4299 2.6 2.1399 1.23 0.92 2.54 1.8201 3.91 2.6101 4.22 2.36 8.97 3.8999 12.68 7.1299 2.8 2.4301 3.9301 6.1101 4.9801 9.55 1.0499 3.88 1.6799 7.86 1.96 11.88-1.34 5.2-3.33 10.22-6.11 14.83-1.89 1.6001-3.78 3.2101-5.6801 4.79-9.1799 7.03-22.07 6.79-32.17 1.9401-6.13-2.4901-10.7-7.41-16.22-10.86-2.87 8.67-0.22 17.99-2.6799 26.72-1.5801 5.84-5.54 11.3-11.37 13.43-7.77 2.8401-16.78 2.65-24.33-0.76-9.73-4.5399-14.99-15.45-15.23-25.83-0.51-7.24 2.2001-14.08 4.55-20.77-8.6801-0.5699-17.05 4.7001-25.69 2.08-5.6799-2.0499-10.9-5.58-14.86-10.14-5.38-6.42-5.71-15.5-4.1799-23.35 1.6599-8.5499 8.3099-15.55 16.41-18.46 7.28-3.0699 15.48-1.58 22.89-4.11 3.15-0.96 5.85-4 5.2101-7.4401-1.05-5.2899-4.9401-9.4399-6.4-14.58-1.79-6.16-1.8301-12.76-0.7101-19.03 1.4302-7.0598 6.9903-12.26 12.52-16.39m31.21 54.26c-11.6 0-21.85 10-22.48 21.49-0.71 8.13 3.3 16.42 10.12 20.91 7.35 4.73 17.43 4.7001 24.77-0.0499 10.42-6.41 14.14-21.57 7.25-31.85-4.0499-6.7-11.89-10.74-19.66-10.5z" fill="#EA7E64" stroke="#EA7E64"/>
	<path d="m397.32 1440.3c7.88-5.1599 18.25-7.21 27.21-3.8099 7.77 3 13.42 9.89 16.44 17.48 2.98 6.95 2.67 14.62 2.34 22.01 7.58-1.86 13.16-8.23 20.89-9.65 6.38-0.91 12.89 0.9301 18.55 3.8201 8.92 4.61 12.95 15.2 12.97 24.78 0.13 8.01-4.38 15.44-10.65 20.17-6.11 5.14-14.62 6.0699-20.68 11.27-2.48 2.02-3.13 5.9-1.41 8.62 1.81 2.79 4.46 4.86 6.78 7.23 6.12 5.9301 9.38 14.39 10.05 22.8 0.55 7.22-3.38 13.71-7.43 19.35-2.95 4.03-6.41 8.51-11.71 9.28-8.68 1.36-17.73-0.79-25.39-4.9501-8.01-4.4199-11.66-13.51-18.98-18.73-1.37 4.83-2.32 9.91-5.08 14.21-5.51 8.98-15.38 15.94-26.21 15.72-7.76 0.0599-14.91-4.4-19.6-10.35-6.27-7.8099-7.34-19.27-2.97-28.22 4.01-8.38 8.89-16.29 13.47-24.36l-2.12-1.48c-1.79-0.61-3.63-1-5.49-1.29-4.65-0.77-9.43-1.0599-13.9-2.65-4.16-1.5399-6.82-5.36-9.42-8.73-1.6-3-2.98-6.11-4.32-9.22-0.36-4.26-0.32-8.5601 0.65-12.73 1.31-3.29 2.41-6.65 4.04-9.79 6.46-8.98 17.85-13.35 28.7-12.21 7.25 0.27 13.77 3.66 20.66 5.51-0.61-9.77-6.1-18.58-5.93-28.44 0.06-6.2299 3.32-12.25 8.54-15.64m16.99 57.01c-10.97 2.17-19.05 13.37-17.98 24.45 0.51 9.39 7.38 17.97 16.5 20.38 6.4 1.8199 13.49 0.4199 18.95-3.3101 6.57-4.24 10.36-12.14 10.13-19.89-0.14-7.14-4-13.97-9.73-18.13-5.13-3.58-11.78-4.72-17.87-3.5z" fill="#EA7E64" stroke="#EA7E64"/>
	<path d="m930.68 1451.7c4.2-2.76 9.57-4.76 14.55-2.96 4.49 1.86 6.82 6.61 7.94 11.08 2.2 9.12 1.28 18.67-0.66 27.75-2.87 12.81-7.82 25.01-12.85 37.1-1.58 3.4701-2.54 7.3101-4.8199 10.42-6.66 0.87-13.32-1.15-19.47-3.5-14.41-5.97-27.2-16.06-36.07-28.9-4.75-6.73-7.14-15.65-4.2-23.6 1.8-5.0599 6.19-9.9 11.89-10.01 9.63 0.6 17.77 7.6 27.48 7.6901 2.2599-9.8901 7.6999-19.31 16.21-25.07z" fill="#EA7E64" stroke="#EA7E64"/>
	<path d="m56.08 1478.9c15.92-3.37 32.1 2.4801 45.98 9.9601 10.64 5.83 20.56 13.36 28.03 22.99 4.67 5.85 7.19 13.4 6.53 20.89-0.35 6.74-4.19 13.36-10.25 16.48-4.81 1.8-9.99 0.0699-14.79-0.89-7.13-1.48-14.19-4.16-21.58-3.6801-1.16 7.2301-2.48 14.59-6.35 20.97-4.39 7.61-10.76 15.05-19.5 17.56-5.26 1.63-10.93-0.98-14.08-5.27-5.18-6.85-6.47-15.67-7.41-23.97-1.28-21.01 4.1-41.66 9.55-61.76 1.24-4.4499 2.08-9.0199 3.87-13.28z" fill="#EA7E64" stroke="#EA7E64"/>
	<path d="m1780.6 1480.4c8.9199-3.25 18.74-1.9401 27.78 0.1599 14.23 3.77 27.73 10.5 39.14 19.82 6.29 5.12 12.22 11.22 15.05 18.99 2.65 7.35 2.42 16.36-2.6 22.68-2.34 2.6901-5.3301 5.4701-9.09 5.6001-11.09 0.2699-21.71-4.79-32.82-3.7001-0.4399 14.09-6.4 28.66-18.1 37.05-4.8101 3.59-11.99 4.75-17 0.96-6.25-4.9299-8.79-12.93-10.54-20.37-3.5499-17.23-1.02-34.96 2.0701-52.05 1.8201-9.7599 3.9801-19.45 6.1101-29.14z" fill="#EA7E64" stroke="#EA7E64"/>
	<path d="m1291.5 1542.5c4.4601-5.08 11.68-7.88 18.36-6.22 4.53 1.67 7.63 5.66 11.08 8.85 5.4399 5.05 9.89 11.53 16.77 14.76 3.63-4.1 7.0499-8.49 11.67-11.53 8.0701-5.5299 17.68-9.72 27.66-8.98 4.73 0.2001 9.55 2.4701 12 6.65 2.9299 4.9401 2.4 11.03 1.3 16.44-2.92 12.61-10.16 23.72-18.21 33.66-11.42 14.17-25.22 26.1-38.36 38.6-1.88 0.9401-4.1 1.79-6.11 0.7001-8.0699-3.63-14.77-9.6901-20.6-16.23-11.59-14.85-20.49-32.33-22.94-51.16-1.3198-9.0401 1.0702-18.78 7.3802-25.54z" fill="#EA7E64" stroke="#EA7E64"/>
	<path d="m582.98 1653c3.34-5.29 9.19-8.53 15.21-9.8 8.29-1.8899 17.44 1.2301 23.02 7.6101 5.84 6.6599 10.61 14.15 15.88 21.25 6.18-4.3601 8.02-12.43 13.99-16.96 5-3.3199 11.33-3.1699 17.1-3.4 10.88 1.92 19.88 10.9 21.51 21.89 0.61 6.54-0.86 13.11-3.86 18.94-1.28 2.27-2.7 4.48-4.27 6.59-2.82 2.62-5.75 5.15-8.21 8.14 7.72 3.83 16.85 2.15 24.65 5.76 5.35 2.34 9.81 7.23 10.55 13.18 0.98 8.0801-0.48 17.03-6.14 23.21-6.41 6.6899-16.37 9.08-25.33 7.53-5.68-0.7301-10.53-3.9501-15.79-5.9501-0.2599 5.71 0.8 11.36 0.78 17.07-0.02 7.25-5.18 13.18-10.53 17.48-7.05 5.47-16.97 5.01-24.86 1.73-7.18-2.92-12.01-10-13.39-17.47-1.35-6.3501 0.07-12.87-0.92-19.23-0.42-3.1101-2.91-6.42-6.35-5.9701-5.84 0.8301-10.97 4.4701-16.97 4.61-8.25 0.38-17.72-1.1899-23.01-8.2-3.73-5.09-7.58-10.63-8.47-16.99 0.04-8.37 5.83-15.36 11.62-20.82 6.87-6.46 16.86-6.3099 25.01-10.19-4.07-3.98-8.85-7.49-11.45-12.7-4.42-8.31-5.3-19.3 0.23-27.31m49.39 40.42c-6.78 0.5699-13.04 4.73-16.22 10.73-2.16 4.22-2.76 9.16-1.98 13.83 1.78 9.6 11.02 17.27 20.83 16.99 10.27 0.23 19.98-8.38 20.42-18.76 1.41-12.54-10.41-24.55-23.05-22.79z" fill="#EA7E64" stroke="#EA7E64"/>
	<path d="m1045.6 1710.5c10.68-5.85 24.5-7.5701 35.5-1.5701 5.7599 2.9501 10.26 7.87 13.76 13.25 4.7401 7.3 6.2001 16.38 11.86 23.14 2.47 3.0701 6.95 4.92 10.69 3.01 4.25-2.23 7.0699-6.28 10.46-9.5399 7.14-7.42 17.24-11.14 27.19-12.85 7.6-1.3099 15.14 1.5901 21.55 5.48 4.8501 3 9.5 6.4 13.59 10.4 4.75 4.6801 5.48 11.87 5.0699 18.2-0.9 9.27-3.4 18.66-8.78 26.39-6.1599 8.75-16.36 13.42-22.9 21.83 2.12 0.65 4.2699 1.24 6.4399 1.8 16.51 3.5699 30.76 17.93 32.73 34.91 2.36 18.31-13.76 35.56-31.71 36.71-6.03 0.47-12.2-0.4301-17.66-3.1001-11.03-5.4099-21.65-11.6-32.29-17.7-6.8601 10.1-2.05 24.34-10.52 33.68-7.92 7.3799-18.45 13.15-29.58 12.38-11.84-0.6299-23.45-7.0699-29.62-17.3-3.6699-5.8201-5.3199-12.65-5.74-19.45-0.09-8.84 0.73-17.88 4.67-25.92 1.29-2.51 2.37-5.12 3.04-7.85-0.6901 0.0599-2.0601 0.1699-2.75 0.23-1.91 0.1899-3.8 0.52-5.66 0.95-9.3 2.16-18.19 6.5701-27.91 6.62-6.67 0.1901-13.45-2.25-18.19-7.01-5.86-5.8199-8.77-13.94-10.09-21.94-1.32-7.92 0.27-16.27 4.58-23.05 5.67-8.97 15.26-14.81 25.34-17.57 7.58-2.24 15.54-1.4601 23.31-0.9601-2.1699-9.6-10.02-16.59-12.45-26.07-1.74-6.6801 0.09-13.61 2.1801-19.98 2.38-7.1202 7.12-13.64 13.89-17.12m53.79 62.9c-13.86 1.73-25.6 14.41-25.4 28.56-0.6499 16.11 13.91 30.85 30.05 30.31 14.22 0.63 27.44-10.69 29.54-24.66 1.7-10.2-2.38-21.23-10.53-27.64-6.48-5.46-15.31-7.8001-23.66-6.57z" fill="#EA7E64" stroke="#EA7E64"/>
	<path d="m1826.7 1758.7c9.4701-3.4299 20.54-3.95 29.6 0.98 11.04 5.8101 17.99 17.36 20.62 29.28 1.5399 6.85 0.6499 13.9 0.25 20.83 9.24-2.4399 16.25-9.62 25.37-12.32 5.73-1.77 11.75-0.4301 17.46 0.75v68.49c-5.77 2.67-12.03 4.8199-16.55 9.5-0.7799 1.52-1.3999 3.12-1.9099 4.77-0.02 5.4299 4.5299 8.91 8.1 12.32 4.1799 3.7201 7.65 8.1901 10.36 13.1v13.56h-147.25c3.21-5.89 6.11-11.94 9.45-17.75 2.4801-4.6899 5.66-8.99 7.7201-13.89-8.24-4.8099-18.17-3.36-26.96-6.3199-3.73-1.2001-6.85-3.74-9.2-6.79-6.23-7.96-10.95-17.94-9.71-28.28 1.4399-12.3 8.86-24.29 20.27-29.64 9.9-4.84 21.48-5.0199 32.09-2.74 6.1899 1.2101 11.63 4.7001 17.83 5.9-0.0599-8.9399-4.04-17.13-6.08-25.68-1.8301-7.1001-2.23-14.94 0.96-21.7 3.3099-7.1702 10.35-11.81 17.58-14.37m12.64 78.66c-6.83 1.78-13.3 5.73-17.3 11.64-5.52 7.72-7.05 18.07-4.12 27.09 2.39 6.83 6.96 13.09 13.49 16.48 11.32 6.67 26.95 4.26 35.85-5.37 5.96-6 8.7-14.63 8.33-22.98-0.6-11.09-8.0299-21.56-18.4-25.59-5.6202-2.32-11.96-2.58-17.85-1.27z" fill="#EA7E64" stroke="#EA7E64"/>
	<path d="m95.39 1761.3c8.28-2.3401 17.53-1.9501 25.19 2.1699 9.6 4.9401 16.17 14.4 19.44 24.5 2.92 8.1801 2.3 16.95 1.74 25.46 10.46-2.3799 18.02-11.55 28.84-12.87 7.11-0.6399 14.18 1.52 20.68 4.2401 6.71 2.83 11.96 8.46 14.83 15.11 4.13 9.23 5.59 20.26 1.58 29.79-3.93 9.4701-12.38 16.4-21.67 20.31-6.44 2.96-13.93 4.9-18.41 10.84-0.61 1.34-1.15 2.73-1.63 4.16 0.46 6.79 6.86 10.44 11 15 5.69 5.36 8.45 12.81 11.09 19.98h-148.65c4.38-9.39 9.67-18.3 15-27.16-4.77-4.2-11.43-4.1599-17.37-4.98-6.13-0.6799-12.83-1.9399-17.1-6.7999-4.95-5.53-8.78-12.16-10.75-19.32-2.49-9.61 0.34-19.85 5.5-28.08 5.88-9.39 16.49-15.22 27.4-16.28 7.79-0.66 15.77-0.13 23.25 2.28 4.53 1.36 8.66 3.9299 13.43 4.51-0.33-10.96-6.08-20.77-7.29-31.56-0.75-6.78 0.17-14.13 4.5-19.63 4.6-6.33 12.07-9.6601 19.4-11.67m13.04 79.14c-14.6 0.9401-27.14 13.86-27.5 28.51-1.02 13.55 8.5 26.95 21.68 30.35 11.03 2.98 23.51-1.15 30.69-10.02 9.1-10.9 9.11-28.43-0.64-38.93-5.85-7.02-15.2-10.54-24.23-9.91z" fill="#EA7E64" stroke="#EA7E64"/>
	<path d="m539.65 1866.6c7.04-2.05 13.89-4.77 21.06-6.35 2.56 2.47 4.87 5.23 6.6 8.37 8.82 15.45 10.65 33.85 9.8 51.33h-103.19c-0.69-4.17-1.3-8.63 0.48-12.61 3.2-7.55 9.55-13.15 15.85-18.13 14.72-10.84 32.2-16.96 49.4-22.61z" fill="#EA7E64" stroke="#EA7E64"/>
	<path d="m285.64 0h8.52c-11.6 33.33-13.51 69.29-10.6 104.22 1.06 17.02 4.23 33.83 5.07 50.87 2.93 42.19-2.23 84.79-14.06 125.36-4.86 16.71-10.51 33.27-18.26 48.88-7.35 15.2-15.9 29.78-25.06 43.95-6.05 9.38-10.95 19.43-16.73 28.97-0.03-1.36-0.13-2.72-0.21-4.07-2.65-0.22-5.25 0.33-7.7 1.3 10.91-17.22 21.85-34.44 31.54-52.38 3.63-6.86 7.83-13.5 10.17-20.94-11.48 8.49-23.89 16.05-37.7 20.06-0.21-0.85-0.45-1.68-0.69-2.51-2.14 0.04-4.33 0.33-6.42-0.18-1.35-1.01-2.47-2.29-3.68-3.44 2.38 0.89 4.69 2.06 7.21 2.54 2.67-0.42 4.97-2 7.37-3.15 6.8-3.69 14.2-6.21 20.82-10.27 6.46-4.06 11.13-10.21 16.18-15.79 2.83-3.21 6.3-6.03 7.99-10.07 10.02-24.46 17.87-49.9 21.9-76.06 2.64-17.65 2.75-35.57 1.82-53.36-0.25-1.58-0.09-3.53-1.53-4.6-3.84-3.24-8.38-5.51-12.4-8.53-19.33-13.76-38-30.13-61.61-35.92 0.51-1.58 1.1-3.13 1.9-4.58 4 2.41 8.46 3.83 12.78 5.51 19.38 7.99 37.63 18.78 53.81 32.13 1.87 1.51 3.82 2.93 5.8 4.3 0.03-7.79-1.2-15.49-1.91-23.23-2.66-22.95-5.34-45.93-6.19-69.02-0.81-23.86 4.25-47.5 11.87-69.99z" fill="#C3C56E" stroke="#C3C56E"/>
	<path d="m339.85 0h5.82c4.98 8.26 10.43 16.25 16.83 23.49 3.1 3.54 6.2 7.19 10.26 9.67 2.01-6.24 2.9-12.83 5.58-18.85 2.16-4.89 4.62-9.64 7.22-14.31h75.93c-4.76 10.2-9.98 20.43-17.92 28.58-6.23 6.59-14.95 9.98-23.47 12.52-8.22 2.49-16.76 3.5-25.26 4.5 8.64 3.45 18.3 3.77 26.49 8.43-2.03-0.02-4.05 0.12-6.06 0.27 1.63 1.55 3.29 3.07 5.05 4.49-6.23-2.38-12.23-5.3-18.45-7.71-10.74-4.44-22.02-7.78-31.94-13.99-6.37-3.33-11.62-8.26-16.98-12.96 2.07 8.62 5.48 16.85 8.8 25.05 14.81 36.48 34.12 70.97 48.44 107.66 11.18 28.06 19.68 57.74 19.8 88.16 0.16 14.65-2.23 29.18-5.46 43.43-8.5 38.05-23.92 74.45-28.9 113.3-2.23 16.02-1.18 32.21-0.65 48.3 0.22 3.49-0.03 7.55 2.84 10.12 24.31 24.88 55.47 41.28 81.94 63.56-2.53 0.92-4.87 2.31-6.34 4.62 1.59 1.86 3.15 3.76 4.74 5.63-13.24-8.96-24.43-20.59-37.79-29.39-15.73-10.44-31.67-21.07-44.09-35.49 2.58 33.36 8.38 66.63 19.3 98.32 6.42 20.23 16.54 38.99 24.17 58.75 1.79 4.5 2.9 9.25 3.15 14.1-2.75-1.47-3.78-4.49-5.08-7.1-1.43-3.06-3.07-5.9901-4.7-8.9301-2.04-13.91-12.96-24.19-16.88-37.44-9.43-30.47-19.62-60.9-24.54-92.51-6.43-39.78-4.84-80.65 3.61-120 5.53-25.75 13.44-50.89 19.43-76.52 3.61-15.71 6.67-31.69 7.04-47.84-7.96 16.68-18.06 32.55-31.38 45.48-3.99 4.09-8.36 7.84-13.34 10.68-1.28-1.22-2.55-2.45-3.87-3.62 4.72-4.03 8.61-8.9 12.67-13.57 13.42-15.42 25.38-32.24 34.41-50.62 1.28-2.54 2.04-5.36 1.85-8.22-0.76-13.9-3.27-27.68-7.13-41.04-9.25-32.61-25.06-62.76-39.98-93.02-15.33-30.47-29.53-62.09-35.16-95.98z" fill="#C3C66C" stroke="#C3C66C"/>
	<path d="m627.16 773.01c2.44 0.22 4.84 0.78 7.14 1.68 14.84 5.39 29.7 11.29 42.85 20.18 5.52 4.01 10.98 8.49 14.47 14.46 3.42 6.14 5.57 12.9 7.41 19.65 2.39 10.14 4.1 20.76 2.15 31.12-0.49 3-2.44 5.62-2.73 8.63 0.79 2 2.1 3.76 3.23 5.6 4.24 6.53 7.63 13.58 11.94 20.07 6 8.41 15.36 13.32 23.08 19.92 3.54 3.11 8.32 3.88 12.67 5.28 20.42 6.21 41.45 10.44 62.68 12.63 21.77 2.38 43.81 0.68 65.35-2.9 9.67-19.26 22.99-36.5 31.69-56.27 3.37-6.99 4.96-14.59 6.91-22.04 1.59 0.32 3.17 0.81 4.64 1.56-2.06 3.38-2.98 7.24-3.98 11.03-5.47 18.14-13.54 35.47-23.59 51.52-2.62 4.33-6.12 8.12-8.21 12.78 8.43-0.48 16.62-2.78 24.91-4.19 24.6-4.8199 49.18-10.17 74.2-12.26 41.27-2.42 81.91 9.99 118.6 28.01 26.86 13.17 51.46 30.35 76.83 46.06 1.16 0.6 2.38 1.11 3.61 1.6299-3.35-5.28-7.8101-9.77-10.91-15.22-6.16-9.59-11.57-19.7-15.58-30.38-2.11-6-3.62-12.29-3.41-18.68 2.9-0.09 5.78-0.66 8.48-1.74 0.51 10.32 0.4 21.03 4.3401 30.77 3.5399 8.27 9.48 15.16 14.91 22.24 10.1 11.95 21.21 23.68 35.41 30.75 20.31 10.9 43.19 15.61 65.8 18.98 5.3099 0.9399 10.73 0.07 16.07 0.78-6.98-0.79-14.04 0.75-19.94 4.5599-3.4501-1.0599-7.05-1.49-10.6-1.95-20.01-3.45-39.11-11.05-56.79-20.91 19.42 14.65 38.86 29.45 56.13 46.66-0.3401 1.63-0.74 3.26-1.3101 4.84-3.39-3.5599-7.78-5.85-11.5-8.99-8.3099-7-16-14.68-24.24-21.74-4.88-4.36-10.84-7.14-16.22-10.75-17.3-10.89-33.46-23.45-50.8-34.26-2.39-1.57-5.0699-2.67-7.91-2.95-13.42-1.58-26.33-6.19-39.86-6.93-20.24-0.31-40.87-0.35-60.52 5.19-5.13 1.23-8.79 5.23-12.84 8.31-4.98 3.97-9.72 8.27-13.92 13.07-2.4801 2.83-5.35 5.46-6.85 8.98 7.3799 1.56 15.38 1.57 22.13 5.28-6.59-0.39-12.99-1.97-19.42-3.26-2.1299-0.44-4.09-1.41-6.0099-2.35-1.21 2.73-2.67 5.36-4.58 7.67 2.82-10.33 8.7-19.47 15.12-27.91-15.95 5.78-30.7 14.34-45.6 22.34-33.63 18.99-66.26 40-101.86 55.21-21.27 9.02-43.68 15.93-66.79 17.83-23.82 1.9-47.57-2.1-70.86-6.71-30.45-6.05-60.83-13.96-92.04-14.55-14.76-0.4199-29.4 1.86-44.01 3.62-3.11 0.51-6.78 0.4601-8.91 3.1901-15.04 17.01-26.18 36.94-37.49 56.5-3.89 6.11-7.11 12.67-11.49 18.47 0.57-2.02 1.01-4.0599 1.45-6.09-2.23-0.53-4.46-1.0601-6.6801-1.5701 2.95-5.45 7.02-10.17 10-15.59 6.91-12 13.29-24.34 21.2-35.73 3.75-5.76 8.5-10.72 12.85-15.99-10.46 1.01-20.68 3.7-30.96 5.8099-21.42 4.9701-42.49 11.58-62.68 20.35-21.89 8.8799-41.58 22.16-63.02 31.97-2.66 1.3099-5.62 1.8099-8.56 1.46 3.64-4.61 9.45-6.71 14.04-10.22 9.61-1.71 16.9-8.75 24.92-13.76 8.09-5.66 17.56-8.6801 26.57-12.5 18.3-7.24 36.49-14.87 55.37-20.5 40.32-12.78 83.21-17.29 125.32-13.36 44.65 3.6699 88.04 17.56 133.04 17.75 2.67-0.0701 5.34-0.28 8.01-0.4301-17.75-5.74-34.3-15.16-48.55-27.17-4.83-3.91-8.7-8.8-13.21-13.04 1.58-1.02 3.07-2.1801 4.44-3.46 20.87 16.93 43.69 31.79 68.81 41.59 1.92 0.72 3.98 1.14 6.05 0.92 36.95-4.63 70.43-22.35 102.14-40.87 31.99-18.81 62.95-40.02 97.93-53.07 22.5-8.44 46.3-13.59 70.35-14.41 11.68-0.75 23.37 0.25 35.05 0.57-8.96-5.6-18.64-9.89-27.97-14.81-14.96-7.2599-29.6-15.33-45.4-20.66-20.13-6.79-41.42-9.98-62.64-10.04-24.77-0.41-49.41 3.19-73.62 8.08-22.14 4.9301-44.65 8.38-67.32 9.33-24.62 1.31-49.34-0.43-73.68-4.17-19.59-3.37-39.19-7.26-57.94-13.96-20.32-6.88-39.54-16.54-58.47-26.54-20.37-9.54-41.5-17.93-60.03-30.9-6.28 2.64-12.08 6.42-18.74 8.14-16.37 5.26-34.73 4.36-50.28-3.07-16.29-7.26-29.36-20.21-39.57-34.59-1.42-2.16-3.39-4.31-3.19-7.06 17.09-6.4 34.47-12.78 52.77-14.5 7.68-0.52 15.79-0.42 22.8 3.17 11.82 5.82 22.77 13.66 31.45 23.63 3.38 4.18 6.75 8.79 7.53 14.27 0.39 1.77 0.34 4.05 2.3701 4.82 9.83 5.21 19.92 9.96 29.72 15.24 22.17 12 44.78 23.24 68.04 33 2.97 1.33 6.07 2.39 9.27 3.07-5.8-7.4-11.81-14.69-16.4-22.93-2.53-4.21-4.06-8.95-6.8199-13.02-12.69-0.27-25-4.8701-35.72-11.45-13.03-8.38-22.97-21.26-28.09-35.84-5.9203-16.57-6.8403-34.72-3.9303-51.98z" fill="#C3C66C" stroke="#C3C66C"/>
	<path d="m345.67 0h39.89c-2.6 4.67-5.06 9.42-7.22 14.31-2.68 6.02-3.57 12.61-5.58 18.85-4.06-2.48-7.16-6.13-10.26-9.67-6.4-7.24-11.85-15.23-16.83-23.49z" fill="#FAF2E6" stroke="#FAF2E6"/>
	<path d="m1911.3 796.34c2.0801-2.76 5.6901-1.76 8.66-1.73v31.98c-11.74 3.31-22.87 9.19-31.38 18.03-7.01 7.43-13.52 15.77-16.55 25.68-6.47 1.2-13.09 1.51-19.43 3.37-7.58 1.58-14.64 4.81-21.92 7.29 2.87-5.31 7.2101-9.57 11.15-14.07 21.64-24.97 46.56-46.79 69.47-70.55z" fill="#FAF2E6" stroke="#FAF2E6"/>
	<path d="m598.25 0h39.49c2.56 5.22 4.15 11.11 3.12 16.94-1.49 10.78-12.1 19.06-22.88 18.45-11.07 0.23-21.03-8.78-22.61-19.6-0.98-5.45 0.96-10.78 2.88-15.79z" fill="#F3CE87" stroke="#F3CE87"/>
	<path d="m1077.4 6.44c8.36-1.82 17.5-0.27 24.5 4.76 11.01 7.52 15.55 22.86 10.61 35.22-4.09 10.71-14.99 18.25-26.42 18.52-13.41 0.64-26.71-8.69-30.24-21.71-1.8201-7.3-1.41-15.43 2.3099-22.09 3.9-7.36 11.2-12.71 19.24-14.7z" fill="#F3CE87" stroke="#F3CE87"/>
	<path d="m1315.2 12.53c8.6499-0.05 17.53 3.39 23.13 10.15 9.99 10.25 10.26 27.95 1.2899 38.92-7.45 9.87-21.39 13.78-33 9.76-13.78-4.55-22.82-20.05-19.62-34.27 2.18-13.5 14.55-24.21 28.2-24.56z" fill="#F3CE87" stroke="#F3CE87"/>
	<path d="m147.33 76.4c6.86-1.3 14.23-0.52 20.36 2.96 8.95 4.73 14.93 14.47 15.23 24.58 0.5 8.7-2.96 17.62-9.49 23.46-7.02 6.92-17.7 9.75-27.24 7.4-12.98-2.86-22.73-15.55-22.39-28.79-0.43-13.78 10.1-26.8 23.53-29.61z" fill="#F3CE87" stroke="#F3CE87"/>
	<path d="m1850.3 94.41c6.65-1.47 13.84-0.68 19.94 2.42 7.78 4.07 13.68 11.71 15.41 20.35 1.08 6.66 0.5499 13.79-2.65 19.83-4.41 9.12-13.86 15.68-23.99 16.38-9.87 1.04-20.03-3.56-25.95-11.47-4.14-5.37-6.26-12.19-6.0299-18.96 0.06-13.31 10.16-25.9 23.27-28.55z" fill="#F3CE87" stroke="#F3CE87"/>
	<path d="m1524.3 239.3c10.75-2.93 22.63 3.22 26.89 13.4 3.61 8.22 1.9301 18.61-4.46 25.01-5.76 6.32-15.33 8.42-23.36 5.8-8.4-2.62-14.7-10.48-15.82-19.15-1.7099-10.99 5.8401-22.58 16.75-25.06z" fill="#F3CE87" stroke="#F3CE87"/>
	<path d="m1726.3 448.43c7.2001-1.43 15.19-1.18 21.67 2.61 6.95 3.98 12.89 10.35 14.63 18.36 2.75 8.43 0.55 17.75-4.24 25-5.48 7.27-14.05 12.6-23.34 12.66-13.36 1.37-26.31-8.09-30.34-20.65-2.6699-8.81-1.1599-18.89 4.37-26.31 4.0202-5.9 10.49-9.74 17.25-11.67z" fill="#F3CE87" stroke="#F3CE87"/>
	<path d="m0 450.83c10.75-3.52 23.48-1.6 31.74 6.43 6.46 5.95 9.71 14.89 9.05 23.6-0.83 10.75-7.75 20.95-17.78 25.14-7.2 3.46-15.4 2.6-23.01 1.33v-56.5z" fill="#F3CE87" stroke="#F3CE87"/>
	<path d="m862.35 520.45c11.7-2.55 23.58 7.25 24.22 18.98 0.96 10.48-7.04 21.03-17.57 22.42-9.16 1.62-18.86-3.92-22.32-12.5-2-5.24-1.84-11.22 0.18-16.43 2.27-6.66 8.85-11 15.49-12.47z" fill="#F3CE87" stroke="#F3CE87"/>
	<path d="m1259.4 636.46c6.9199-0.57 13.77 1.95 19.52 5.65 7.5801 5.36 12.46 14.55 12.29 23.89 0.36 7.05-2.58 13.88-6.88 19.34-4.36 5.4-10.92 8.54-17.51 10.28-7.7999 1.36-16.23-0.14-22.81-4.62-9.36-6.05-14.48-17.83-12.77-28.81 1.5501-13.91 14.39-24.96 28.16-25.73z" fill="#F3CE87" stroke="#F3CE87"/>
	<path d="m430.38 667.51c7.69-1.01 16.13-0.11 22.59 4.53 8.56 5.92 13.95 16.55 12.83 27.01-1.04 13.64-12.37 26.12-26.18 27.44-15.06 2.67-30.69-8.54-33.39-23.5-0.91-6.91-0.52-14.39 3.34-20.41 4.31-7.76 12.11-13.35 20.81-15.07z" fill="#F3CE87" stroke="#F3CE87"/>
	<path d="m923.32 766.35c9.52-2.18 20.09 0.31 27.2 7.13 10.66 9.14 12.92 26.39 4.96 37.96-5.44 8.46-15.48 13.6-25.5 13.38-7.52-0.18-14.99-3.17-20.38-8.44-7.06-6.61-10.48-16.86-8.77-26.38 1.7-11.55 11.21-21.12 22.49-23.65z" fill="#F3CE87" stroke="#F3CE87"/>
	<path d="m1403.4 856.55c5.46-1.76 11.26 0.28 16.04 2.99 7.2799 4.2 10.71 13.32 9.4199 21.42-1.33 6.2-5.38 11.92-11.16 14.69-9.7999 4.95-23.19 0.6-28.02-9.31-3.91-6.8701-2.7101-15.69 1.6499-22.03 2.9201-3.93 7.4401-6.4 12.07-7.76z" fill="#F3CE87" stroke="#F3CE87"/>
	<path d="m1277.4 1080.4c5.23-0.98 10.72 0.2101 15.37 2.74 6.97 3.76 11.59 11.45 11.76 19.36 0.14 6.51-2.52 13.16-7.47 17.46-6.8301 6.04-17.32 7.65-25.5 3.48-11.33-4.84-16.53-19.89-10.78-30.74 3.09-6.5401 9.62-10.97 16.62-12.3z" fill="#F3CE87" stroke="#F3CE87"/>
	<path d="m1867.3 1088.4c9.27-1.54 19.3 1.6 25.81 8.4299 5.9299 6.0701 8.88 14.72 8.1699 23.16-0.8199 11.93-9.49 22.78-20.91 26.31-10.41 3.4901-22.62 0.41-30.19-7.5199-9.5-9.5801-10.85-25.81-3.35-36.97 4.53-7.0898 12.13-12.14 20.47-13.41z" fill="#F3CE87" stroke="#F3CE87"/>
	<path d="m127.44 1093.5c9.31-0.7899 18.94 2.9 24.91 10.18 10.23 11.53 9.08 30.99-2.5 41.19-11.04 11.12-31.32 10.91-41.76-0.9199-8.08-8.12-10.33-21.17-5.89-31.65 4.13-10.27 14.15-17.92 25.24-18.8z" fill="#F3CE87" stroke="#F3CE87"/>
	<path d="m360.34 1096.5c15.87-2.74 32.11 9.76 34.24 25.57 0.21 5.25 0.65 10.85-1.75 15.72-3.58 7.9399-10.22 14.86-18.79 17.23-12.8 4.2-27.9-1.8199-34.66-13.38-6.32-9.88-5.77-23.62 1.18-33.04 4.38-6.7602 11.89-10.99 19.78-12.1z" fill="#F3CE87" stroke="#F3CE87"/>
	<path d="m822.33 1200.4c15.73-4.33 33.74 6.5801 36.68 22.68 3.76 13.98-4.51 29.85-18.13 34.72-10.48 3.9601-23.32 1.5601-31.29-6.4299-10.46-9.5901-12.52-26.71-4.72-38.55 4.18-5.9401 10.27-10.81 17.46-12.42z" fill="#F3CE87" stroke="#F3CE87"/>
	<path d="m1469.4 1332.4c7.7699-0.24 15.61 3.8 19.66 10.5 6.89 10.28 3.17 25.44-7.25 31.85-7.34 4.75-17.42 4.7799-24.77 0.0499-6.8201-4.49-10.83-12.78-10.12-20.91 0.63-11.49 10.88-21.49 22.48-21.49z" fill="#F3CE87" stroke="#F3CE87"/>
	<path d="m187.39 1372.6c5.59-1.62 11.92-1.1 16.85 2.16 4.57 2.5 7.27 7.3 8.89 12.1 2.16 7.26-0.4 15.38-5.47 20.84-3.91 3.7-9.36 5.58-14.67 5.95-6.96-0.26-14.18-3.75-17.64-10-3.08-5.36-4.05-12.13-1.66-17.94 2.12-6.2601 7.48-11.1 13.7-13.11z" fill="#F3CE87" stroke="#F3CE87"/>
	<path d="m721.45 1454.6c10.58-1.73 21.31 6.0601 23.5 16.45 2.13 9.25-2.87 19.34-11.23 23.65-8.62 3.8101-19.51 1.4301-25.5-5.9099-4.59-5.63-5.66-13.54-3.73-20.41 2.59-7.2601 9.36-12.65 16.96-13.78z" fill="#F3CE87" stroke="#F3CE87"/>
	<path d="m414.31 1497.3c6.09-1.22 12.74-0.08 17.87 3.5 5.73 4.16 9.59 10.99 9.73 18.13 0.23 7.75-3.56 15.65-10.13 19.89-5.46 3.73-12.55 5.13-18.95 3.3101-9.12-2.41-15.99-10.99-16.5-20.38-1.07-11.08 7.01-22.28 17.98-24.45z" fill="#F3CE87" stroke="#F3CE87"/>
	<path d="m1639.4 1526.5c11.07-3.61 24.57 4.14 26.2 15.88 2.23 10.9-5.73 22.79-16.77 24.53-8.33 1.7-18.01-1.95-21.89-9.8199-6.8001-11.05-0.2801-27.6 12.46-30.59z" fill="#F3CE87" stroke="#F3CE87"/>
	<path d="m1070.3 1575.4c6.88-1.16 14.62 0.48 19.54 5.7 7.71 7.63 7.98 21.29 0.4399 29.16-3.9399 4.7-10.19 6.83-16.21 6.4199-6.71 0.12-12.67-4.13-16.45-9.37-4.3101-7.02-4.3401-16.56 0.2799-23.43 3.0802-4.0301 7.4102-7.3201 12.4-8.48z" fill="#F3CE87" stroke="#F3CE87"/>
	<path d="m632.37 1693.4c12.64-1.76 24.46 10.25 23.05 22.79-0.44 10.38-10.15 18.99-20.42 18.76-9.81 0.28-19.05-7.39-20.83-16.99-0.78-4.6699-0.18-9.61 1.98-13.83 3.18-5.9999 9.44-10.16 16.22-10.73z" fill="#F3CE87" stroke="#F3CE87"/>
	<path d="m1322.4 1746.5c9.12-1.67 18.72 1.4 25.46 7.6901 6.37 5.63 9.66 14.21 9.77 22.6-0.52 8.13-3.63 16.46-9.87 21.95-10.89 10.61-30.15 10.1-40.72-0.73-11.25-10.4-12.17-29.64-2.2-41.2 4.42-5.3401 10.68-9.1701 17.56-10.31z" fill="#F3CE87" stroke="#F3CE87"/>
	<path d="m1099.4 1773.4c8.35-1.2301 17.18 1.11 23.66 6.5699 8.15 6.41 12.23 17.44 10.53 27.64-2.1001 13.97-15.32 25.29-29.54 24.66-16.14 0.5399-30.7-14.2-30.05-30.31-0.2-14.15 11.54-26.83 25.4-28.56z" fill="#F3CE87" stroke="#F3CE87"/>
	<path d="m1839.3 1837.4c5.89-1.3101 12.23-1.05 17.85 1.27 10.37 4.0299 17.8 14.5 18.4 25.59 0.37 8.35-2.37 16.98-8.33 22.98-8.9 9.63-24.53 12.04-35.85 5.37-6.53-3.39-11.1-9.65-13.49-16.48-2.9301-9.02-1.4-19.37 4.12-27.09 4-5.91 10.47-9.8599 17.3-11.64z" fill="#F3CE87" stroke="#F3CE87"/>
	<path d="m108.43 1840.4c9.03-0.63 18.38 2.89 24.23 9.91 9.75 10.5 9.74 28.03 0.64 38.93-7.18 8.87-19.66 13-30.69 10.02-13.18-3.4-22.7-16.8-21.68-30.35 0.36-14.65 12.9-27.57 27.5-28.51z" fill="#F3CE87" stroke="#F3CE87"/>
	<path d="m742.37 0h37.06c22.58 5.67 45.72 9.02 68.11 15.48 34 9.67 67.28 23.83 95.33 45.66 22.96 17.19 39.32 41.15 55.68 64.3 8.9 12.34 16.98 25.3 26.59 37.12 1.9299-8.36 2.92-16.91 5.2999-25.17 4.6801-18.86 12.62-36.69 21.81-53.75 1.58 0.51 3.15 1.11 4.65 1.87-5.67 6.75-9.04 15.05-12.13 23.21-5.47 15.9-8.2001 32.56-12.28 48.84-0.84 3.73-2.63 7.36-2.48 11.24 1.6 3.54 4.39 6.36 6.78 9.38 10.45 12.81 21.77 24.97 34.59 35.45 18.81 15.18 39.41 28.1 60.93 39.09 3.09 1.7 6.5 2.85 10.05 3.02 9.61 0.58 19.24 3.4 28.88 1.56 6.65-1.41 13.03-3.8 19.65-5.35 3.09-0.85 6.37-1.3 9.25-2.8 2.39-3.68 3.64-8.06 6.6-11.4 7.88-9.36 18.14-16.45 28.95-22.04 6.5901-3.35 13.83-5.87 21.33-5.51 14.37 0.4 28.17 5.14 41.39 10.43 6.58 2.72 13.22 5.36 19.48 8.79-2.5701 5.84-7.42 10.2-11.57 14.91-12.97 14.08-30.44 24.51-49.53 27.28-20.33 2.97-41.33-4.19-56.88-17.29-6.4401 2.12-12.68 4.86-19.35 6.22-7.1801 1.97-14.69 2.04-21.95 3.56 4.3 2.88 9.35 4.23 14.1 6.18 30.15 11.88 61.64 19.77 92.51 29.48 2.47 0.73 4.9601 1.87 7.6 1.79 3.8501-1.67 7.14-4.59 11.35-5.43 14.33-3.39 29.34-1.27 43.39 2.42 8.1399 2 15.08 7.13 20.57 13.33 8.37 9.08 14.53 19.87 20.35 30.68 3.04 6.04 6.4 11.96 8.53 18.41-6.98 2.76-14.58 3.37-21.98 4.14-14.42 1.07-29.29-0.65-42.59-6.55-14.48-6.05-26.34-17.62-33.57-31.47-3.36-5.75-5-12.25-7.64-18.32-23.12-3.61-44.8-12.73-66.86-20.12-28.83-8.1-57.35-18.35-83.05-33.95-41.18-24.21-78.03-56.02-106.87-94.17-11.53-14.95-21.17-31.24-32.96-45.99-18.22-23.59-39.35-45.4-64.68-61.38-13.58-8.7-28.45-15.29-43.82-20.09-14.22-4.64-28.49-9.13-42.82-13.42-2.76-0.82-5.59-1.36-8.42-1.78 3.85 4.64 8.8 8.15 13.19 12.23 24.8 22.66 44.1 51.12 56.8 82.17 14.35 34.47 21.19 71.36 31.92 106.98 9.21 30.81 20.66 61.78 40.98 87.14 3.62 4.36 9.44 5.55 14.45 7.61 22.36 8.01 45.93 12.68 69.61 14.25-0.1 1.82-0.0499 3.63 0.01 5.45-17.65 2.03-35.47-0.93-52.38-5.99-6.27-1.8-12.13-4.72-18.32-6.76 6.43 7.59 14.27 13.83 21.89 20.17 22.46 17.97 47.3 32.62 70.63 49.37 13.38 9.41 26.13 19.73 38.1 30.87 27.21 25.21 49.55 55.46 66.62 88.35 7.67 14.68 14.31 29.85 21.09 44.96 3.86 9.26 8.9501 18.13 10.78 28.11 1.88 9.75 3.4 19.78 8.5 28.49 0.95 5.39 3.66 10.75 2.45 16.32-2.34-3.04-4.45-6.29-5.72-9.92-4.5499-11.84-7.96-24.07-11.79-36.14-10.61-33.88-27.02-65.76-47.07-94.99-4.08-5.67-7.59-11.81-12.52-16.8-0.26 18.58-4.9 36.66-9.7999 54.47-4.1001 14.35-5.1901 29.3-8.1801 43.88-1.3099 7.65-3.5699 15.1-4.88 22.74 1.4501 1.56 2.96 3.09 4.41 4.67 3.86 4.02 5.77 9.42 7.29 14.68 3.2899 12.43 4.1799 25.51 2.5599 38.27-1.2 9.32-6.92 17.18-12.66 24.29-6.4199 7.22-13.41 13.96-20.89 20.08-5.49 4.37-10.75 9.09-16.87 12.58-4.36-7.13-6.96-15.18-9.1899-23.18-5.5-20.64-4.51-43.96 7.02-62.43 7.4099-12.43 19.03-21.72 31.77-28.27 0.6499-4.39 0.7-8.83 0.9199-13.25 3.16-39.12 19.45-75.96 21.35-115.25 0.4301-3.77-2.3199-6.63-4.46-9.34-6.65-8.03-12.97-16.34-20.02-24.02-27.18-29.08-63.13-47.21-95.69-69.27-20.39-13.37-39.77-28.92-54.23-48.75-11.27-15.59-20.24-32.74-27.6-50.48-14.1-34.57-22.85-70.94-33.39-106.67-5.28-16.75-10.26-33.74-17.88-49.61-0.44 11.27-3.94 22.1-8.39 32.37-6.3 12.42-13.14 24.6-18.56 37.44-0.47 1.73-1.85 3.77-0.68 5.48 1.8 2.8 4.21 5.17 5.78 8.13 3.19 5.96 4.74 12.63 5.71 19.27 1.3701 9.62 1.76 19.46 0.2401 29.09-1.15 7.29-4.98 13.82-9.37 19.61-10.58 13.45-24.13 24.1-37.71 34.33-1.34 0.92-2.8 1.64-4.25 2.36-3.16-5.37-5.06-11.33-7.03-17.2-5.74-18.21-6.72-38.43 0.05-56.5 6.41-17.27 20.45-30.96 36.76-39.1 4.01-1.57 4.89-6.03 6.57-9.51 3.48-7.77 9.65-13.9 13.53-21.45-5.53 3.46-10.71 7.47-16.57 10.38-9.21 4.64-19.02 9.42-29.62 8.8-13.81-0.79-26.75-6.35-39.09-12.2-7.77-3.86-15.57-7.74-22.86-12.47 3.06-4.72 7.33-8.44 11.35-12.3 12.51-11.45 27.84-20.37 44.71-23.31 15.41-2.93 31.76-0.21 45.51 7.32 5.42 2.71 10.04 6.71 15.36 9.61 1.69-9.92 1.09-20.05 0.17-30.02-0.55-5.24-0.97-10.74-3.79-15.35-6.57-11.05-14.79-21.07-23.98-30.03-6.93-6.76-13.4-14.1-21.32-19.73-7.43-5.39-15.57-9.7-23.11-14.92-3.38-2.31-6.52-5.23-10.56-6.31-15.5-3.81-31.48-5.15-47.03-8.66z" fill="#C3C66B" stroke="#C3C66B"/>
	<path d="m1521.4 0h90.29c-11.52 8.1-25.67 11.84-39.65 12.1-8.13 0.46-16.13-1.15-24.17-1.92 4.0801 3.33 8.7301 5.88 12.92 9.07 19.06 14.28 33.42 33.58 47.4 52.59 4.5399 6.29 7.62 13.49 10.16 20.78 6.22 17.92 9.0299 36.75 12.72 55.29 4.87 25.1 6.87 50.63 8.83 76.08 16.63 7.05 31.13 19.82 38.79 36.35 8.99 18.97 8.09 41.29 1.6699 60.91-2.35 6.49-4.4199 13.26-8.4099 18.98-4.55-2.29-8.16-5.91-12.1-9.03-8.1001-6.53-15.62-13.75-22.56-21.48-5.25-5.69-9.62-12.2-12.65-19.32-2.71-6.43-2.63-13.56-2.59-20.4 0.11-10.4 1.86-20.81 5.4299-30.58 1.41-3.93 4.1201-7.15 6.28-10.67 1.29-1.98 0.4501-4.44 0.25-6.6-6.59-37.89-10.14-76.66-22.97-113.15-2.3101-6.2-4.22-12.64-7.8199-18.25-3.3 7.85-5.53 16.08-8.37 24.09-9.91 28.33-21.31 56.2-35.3 82.77-2.4401 4.85-5.78 9.3-7.12 14.64-2.11 2.43-5.01 3.93-8.0701 4.75-0.5099-1.17-0.99-2.34-1.4299-3.52 14.21-22.05 21.25-47.64 32.39-71.2 4.61-9.43 9.95-18.53 13.6-28.4 3.41-8.97 3.7-18.79 7.35-27.68 0.8-2.7 2.6901-5.71 0.97-8.43-10.44-19.29-24.07-36.92-40.6-51.39-10.86-9.93-23.17-18.03-35.24-26.38z" fill="#C3C66B" stroke="#C3C66B"/>
	<path d="m430.71 55.72c16.92-4.11 35.55-3.73 51.27 4.36 17.4 8.51 30.37 24.2 38.32 41.6 2.82 6.38 5.8 12.85 6.66 19.85-11.94 1.22-23.96 1.79-35.95 1.56-10.41-0.33-21.02-1.4-30.76-5.29-7.7-3-13.39-9.26-18.77-15.28-7.23-8.6-13.85-18.08-17.07-28.97-1.24-3.9-0.59-8.02-1.17-12-0.77-1.12-1.89-1.91-2.92-2.76-1.76-1.42-3.42-2.94-5.05-4.49 2.01-0.15 4.03-0.29 6.06-0.27 2.94 1.29 6.12 2.7 9.38 1.69z" fill="#C3C66B" stroke="#C3C66B"/>
	<path d="m151.88 342.94c10.33-3.44 21.22-5.29 32.11-5.32 5.34 0.06 10.87 0.28 15.84 2.47 1.21 1.15 2.33 2.43 3.68 3.44 2.09 0.51 4.28 0.22 6.42 0.18 0.24 0.83 0.48 1.66 0.69 2.51-3.02 22.97-17.47 44.63-38.49 54.85-20.58 10.24-44.89 10.16-66.82 4.79 5.09-12.82 11.44-25.15 18.63-36.91 6.98-10.66 15.37-21.8 27.94-26.01z" fill="#C3C66B" stroke="#C3C66B"/>
	<path d="m716.28 356.25c12.3-4.46 26.34-7.63 38.96-2.51 13.09 5.1 26.04 11.92 35.47 22.58 3.75 4.15 6.59 9.87 5.37 15.58-1.5 2.5-4.15 4.02-6.39 5.78-11.77 8.66-25.98 14.44-40.7 14.74-23.08 1.08-45.07-10.36-61.34-26.06-3.4301-3.57-7.3-6.85-9.75-11.22 12.07-7.62 25.07-13.77 38.38-18.89z" fill="#C3C66B" stroke="#C3C66B"/>
	<path d="m1882 357.04c12.23-3.78 25.22-5.82 38-3.98v42.51c-4.99 6.73-10.65 13.07-17.54 17.91-15.13 10.77-34.07 15.11-52.44 14.82-6.22-0.38-12.68-0.02-18.6-2.18 3.75-12.12 8.6499-23.92 14.39-35.24 4.8199-9.37 10.36-18.72 18.64-25.47 5.01-4.27 11.37-6.39 17.55-8.37z" fill="#C3C66B" stroke="#C3C66B"/>
	<path d="m651.05 353.05c3.2 2.41 5.87 5.4 8.68 8.25 26.17 26.56 53.62 51.95 82.96 74.99 28.85 22.64 59.5 42.84 90.29 62.69 1.05 0.56 2.19 0.98 3.33 1.4 1.55 3.61 4.24 7.36 2.96 11.47-2.72-0.81-5.4-1.74-8.02-2.81-5.08-4.81-11.01-8.56-16.62-12.7-16.09-11.61-32.52-22.75-48.66-34.29-5.4-3.57-10.33-7.84-15.98-11.02 0.53 4.68 1.82 9.24 2.32 13.93 1.43 14.56-1.44 29.68-9.03 42.28-9.25 16.04-24.24 28.17-40.55 36.55-2.55 1.28-5.12 2.87-8.07 2.84-4.46-19.84-9.0099-40.24-6.56-60.67 0.9301-9.39 5.95-17.79 12.15-24.69 8.46-10.21 18.84-18.99 31.06-24.33-1.72-1.72-3.52-3.36-5.47-4.8-15.42-11.75-29.62-24.97-43.92-38.04-10.66-10.32-21.1-20.85-31.88-31.04 2.62-2.79 1.96-6.68 1.01-10.01z" fill="#C3C66B" stroke="#C3C66B"/>
	<path d="m206.61 399.48c2.45-0.97 5.05-1.52 7.7-1.3 0.08 1.35 0.18 2.71 0.21 4.07-4.65 8.55-9.84 16.81-15.74 24.56-1.85 2.47-4.09 4.69-5.55 7.45 0.07 2.58 1.3 4.94 2.2 7.32 8.12 18.92 7.61 41.53-2.03 59.8-9.75 18.76-26.67 33.14-45.58 42.14-2.54-5.09-3.58-10.72-5.05-16.18-3.19-12.88-5.96-26.04-5.67-39.38 0.04-6.25 0.68-12.67 3.46-18.36 3.44-7.16 8.35-13.52 13.61-19.44 6.11-6.63 12.83-13 21.01-16.99 3.71-1.92 8.05-1.82 11.9-3.29 2.42-2.32 3.86-5.42 5.63-8.21 4.48-7.49 9.25-14.81 13.9-22.19z" fill="#C3C66B" stroke="#C3C66B"/>
	<path d="m1346.8 419.85c5.4301-0.84 11.15-1.02 16.42 0.8 8.96 2.93 17.41 7.44 24.83 13.26 3.9801 3.36 8.12 7.13 9.7301 12.25 0.6399 2.47 1.11 5.72-1.1801 7.52-13.26 11.46-31.72 17.21-49.08 13.77-8.3201-1.63-16.14-5.21-23.27-9.71-3.9401-2.45-7.36-5.64-11.37-7.95 5.22 6.84 12.29 11.96 18.59 17.75 28.7 25.63 60.74 47.09 92.93 68.01 1.9199 1.15 3.8999 2.21 5.9099 3.26 1.28 2.47 2.1901 5.14 2.39 7.94-1.9299-0.11-3.84-0.26-5.71-0.65-14.34-11.56-29.86-21.57-44.83-32.29-7.1299-4.7-13.8-10.07-21-14.65 1.42 7.85 3.01 15.85 1.8301 23.85-2.12 18.45-14.28 34.55-29.58 44.46-5.1899 3.2-10.3 6.79-16.23 8.48-3.23-11.7-5.48-23.75-5.96-35.89-0.52-9.51 0.29-19.73 6.22-27.6 7.41-10.01 16.66-19.29 28.35-24.11-0.72-1.89-2.45-3.03-3.9399-4.23-21.61-16.72-40.96-36.07-60.45-55.14 0.6699-2.26 1.21-4.55 1.6799-6.85 5.1801 3.65 9.03 8.82 13.69 13.09 4.4099 3.98 8.13 8.82 13.21 12.02-1.8-3.03-4.2-5.62-6.38-8.35 3.83-3.57 8.77-5.52 13.35-7.92 9.44-4.89 19.36-9.11 29.85-11.12z" fill="#C3C66B" stroke="#C3C66B"/>
	<path d="m1911.4 445.5c5.02-0.63 6.27-6.36 8.55-10.04v92.05c-9.36 13.49-21.66 25.13-36.07 33.05-3.5801-6.49-5.37-13.74-7.79-20.69-4.15-13.23-7.63-26.96-7.12-40.93 0.1799-5.77 1.66-11.48 4.39-16.57 5.47-10.33 12.61-19.8 21.25-27.69 4.6899-4.46 10.32-8.05 16.79-9.18z" fill="#C3C66B" stroke="#C3C66B"/>
	<path d="m473.42 528.33c1.47-2.31 3.81-3.7 6.34-4.62 6.59 5.61 12.81 11.64 18.61 18.07 5.6-0.32 11.04-1.95 16.66-2.13 6.2-0.28 12.47-0.23 18.61 0.8199 14.24 2.6201 27.5 9.94 37.56 20.33 12.73 12.96 21.09 29.84 25.39 47.38-5.69 1.81-11.7 1.39-17.57 1.65-15.26 0.54-30.93 0.43-45.61-4.27-10.54-3.25-18.38-11.59-24.88-20.1-5.64-7.39-10.79-15.37-13.64-24.28-1.61-4.86-1.2-10.05-1.06-15.08-4.99-4.34-10.9-7.5099-15.67-12.14-1.59-1.8699-3.15-3.7699-4.74-5.6299z" fill="#C3C66B" stroke="#C3C66B"/>
	<path d="m1556.9 526.21c7.14 0.57 14.13 2.23 21.16 3.6 10.79 2.16 21.47 5.13 31.53 9.66 7.17 3.23 14.02 7.71 18.73 14.13 3.9301 5.37 6.84 11.38 9.5701 17.42 3.6699 8.53 6.62 17.6 6.7899 26.97 0.12 4.41-1.36 8.62-2.46 12.83 1.95 2.65 4.13 5.13 6.39 7.55 14 15.79 25.03 34.04 39.82 49.16 11.26 12.49 23.31 24.87 30.32 40.4 1.47-2.84 1.5299-6.11 1.98-9.21 4.58-33.08 5.6799-66.78 1.62-99.98-2.71-22.47-9.17-44.4-10.01-67.1 0.42-0.15 1.27-0.46 1.7-0.62 2.7101 5.28 3.4701 11.25 5.2101 16.88-1.14 15.42 8.0499 29.21 8.1899 44.53 0.97 15.68 2 31.35 2.89 47.04 0.95 24.61-0.08 49.35-4.1801 73.67-5.45 33.73-16.9 66.29-32.29 96.73-10.1 20.05-21.54 39.39-31.5 59.51-7.2001 14.75-14.25 29.76-18.3 45.73 5.35-5.67 9.9501-12.02 15.8-17.22 12.06-11.18 25.47-21.53 41.11-27.12 0.41 1.55 0.92 3.1 1.5699 4.61-9.09 6.63-18.52 12.8-27.18 19.99-12.08 9.5-23.12 20.29-32.96 32.08-3.6899 4.24-3.8799 10.13-4.6899 15.42-1.91 13.95-1.95 28.11-0.8 42.14 3.2301 40.44 15.02 79.45 23 119.06 4.8601 24.64 7.6001 49.87 5.8 74.99-1.23 19.44-5.25 38.66-11.54 57.09-2.12 6.7999-5.46 13.18-7.14 20.13 8.15-6.15 14.74-14.07 22.15-21.05 14.09-14.3 28.81-28.3 39.8-45.23 18.44-27.71 28.51-60.05 34.37-92.56 4.24-22.03 4.99-44.57 9.53-66.54 6.7-35.54 19.21-69.91 36.18-101.81 8.85-16.36 18.33-32.47 29.8-47.15 11.77-15.1 24.96-29.05 38.87-42.18 16.85-17.34 32.08-36.53 51.67-50.97-0.46-3.93-1.1699-7.83-1.5599-11.77-1.73-16.63 2.05-34.15 12.12-47.69v65.28c-2.97-0.03-6.58-1.03-8.66 1.73-22.91 23.76-47.83 45.58-69.47 70.55-3.9399 4.5-8.28 8.76-11.15 14.07 7.28-2.48 14.34-5.71 21.92-7.29 6.34-1.86 12.96-2.17 19.43-3.37 3.03-9.91 9.54-18.25 16.55-25.68 8.51-8.84 19.64-14.72 31.38-18.03v61.19c-11.6 0.23-23.29-1.51-34.13-5.67-4.3199-1.52-7.51-4.88-11.27-7.27-3.37-0.28-6.61 1.21-9.87 1.8199-8.23 2.17-16.95 2.7401-24.74 6.36-7.17 3.52-13.25 8.8-20.01 12.97-5.45 3.22-8.37 9.04-11.98 13.98-11.33 16.64-21.37 34.17-29.5 52.59-8.51 18.99-13.73 39.28-17.27 59.73-0.9299 3.23 1.6901 5.65 3.67 7.79 15.19 15.82 27.63 34.4 45.08 47.98 4.1901 3.34 8.6901 6.4099 13.8 8.1899-1 1.55-2.12 3.04-3.4 4.37-2.6-2.47-5.48-4.63-8.48-6.5599-20.35-13.67-37.49-31.59-52.04-51.2-1.4 5.03-1.96 10.24-2.5699 15.41-3.52 25.94-5.77 52.1-11.29 77.73-3.54 16.79-9.87 32.92-17.97 48.02-15.69 28.95-37.49 54.15-61.5 76.49-13.4 12.01-27.49 23.22-41.29 34.75-5.03 4.3-10.49 8.11-15.16 12.81 16.47-5.4299 33.38-10.3 50.85-10.76 6.5699-0.0801 13.5-0.4801 19.57 2.58-0.41 2.66-0.6 5.36-0.76 8.0699-8.49-2.11-16.96-4.59-25.71-5.26-7.8401-0.6-15.34 2.2001-22.67 4.52-11.76 3.9-23.09 9.0701-33.68 15.49-10.49 6.54-19.3 15.44-26.85 25.15-11.61 14.73-20.82 31.22-28.57 48.26-0.28-4.02-0.91-8-1.96-11.88 0.3899 0 1.1699 0.02 1.5599 0.02 6.74-14.57 15.72-28.04 26.33-40.09 4.4701-5.4801 9.89-10.05 14.71-15.21-5.99 3.52-11.4 7.9-17.15 11.78-8.3101 5.8-16.93 11.13-25.6 16.38-5.78 3.59-12.17 6.16-17.51 10.44-1.37-0.79-2.6801-1.6901-3.91-2.6101 5.9401-6.1499 13.61-10.08 20.9-14.37 9.3-5.5699 19.4-10.04 27.49-17.43 14.79-13.08 31.26-24.04 46.62-36.42 4.45-3.8199 10.06-6.7999 12.76-12.26 6.5-13.91 16.3-26.19 21-40.95 4.55-14.01 9.3199-28.09 11.23-42.76 0.9-7.1901 2.0601-14.82-0.7999-21.72-4.3-10.93-8.89-21.99-16.14-31.32-4.0701 5.78-6.37 12.65-10.93 18.14-11.55 16.52-30.88 26.82-50.84 28.45-17.05 1.3799-34.47-1.5701-50.1-8.4901 0.9299-1.99 1.9199-3.95 3.11-5.7799 8.72-13.3 17.85-26.56 29.65-37.35 5.3999-4.95 11.54-9.4199 18.73-11.31 13.05-3.48 26.66-2.13 39.97-1.47-6.22-4.9401-14.2-6.92-20.34-11.97-3.13-2.1599-5.73-5.98-9.9601-5.6-15.74 0.24-31.91-3.3199-44.91-12.49-17.15-11.69-27.69-31.12-31.97-51.08-1.38-7.4301-3.11-14.96-2.2899-22.56 14.78 1.83 29.53 4.59 43.73 9.17 8.39 2.89 16.84 6.4301 23.47 12.5 5.41 4.88 8.91 11.41 12.23 17.8 4.5 9.1399 8.2201 18.88 9.13 29.11 0.4601 4.77-0.8199 9.45-1.5599 14.13 6.24 6.2699 13.68 11.16 20.81 16.36 7.85 5.7999 16.56 10.51 23.51 17.47 6.15 5.2 10.94 11.69 15.61 18.2-0.34-10.16-1.97-20.22-3.5-30.25-4.37-26.55-10.76-52.71-15.91-79.12-7.67-38.63-13.48-78.76-5.77-117.86 3.71-20.74 12.99-39.87 22.66-58.4 16.32-30.72 36.27-59.7 48.5-92.46 5.62-14.73 8.2201-30.33 11.42-45.7 0.6901-3.58 1.6801-7.5699-0.59-10.81-18.92-31.81-47.9-55.85-68.79-86.2-3.9-5.2401-6.64-11.19-10.3-16.57-7-0.79-14.12-0.59-20.98-2.26-11.22-2.58-21.96-7.63-30.6-15.28-13.57-11.9-22.06-28.78-25.72-46.29-1.4498-7.7397-3.1099-15.64-2.32-23.54z" fill="#C3C66B" stroke="#C3C66B"/>
	<path d="m200.37 724.36c13.76-11.69 30.89-19.52 48.7-22.36 0.84 15.37 0.59 30.91-1.87 46.14-1.86 10.3-4.78 21.09-12.19 28.88-7.28 7.62-16.12 13.59-25.38 18.54-5.1 2.63-10.52 4.79-16.2 5.78-3.98 0.69-8.02-0.3-12.01 0.14-1.94 0.91-3.46 2.47-5.02 3.9-21.69 21-44.94 40.37-65.64 62.39-5.38 5.94-11.29 11.45-16.01 17.96 7.31-2.43 14.46-5.37 22.02-6.96 6.75-1.79 13.75-1.98 20.6-3.14 4.18-11.4 12.3-21.03 21.59-28.68 13.31-10.99 30.88-16.09 48.02-15.2 16.49 0.84 32.83 5.78 47.03 14.19-1.76 2.56-3.65 5.02-5.67 7.38-11.34 13.57-23.55 26.91-38.81 36.13-8.12 4.92-17.88 5.57-27.12 5.1-11.21-0.54-22.58-2.38-32.8-7.21-3.73-1.7-6.54-4.81-10.07-6.82-2.67-0.49-5.35 0.5-7.97 0.96-7.21 1.74-14.63 2.45-21.81 4.3-7.98 2.06-14.46 7.3799-21.29 11.72-3.58 2.33-7.6 4.25-10.24 7.75-8.61 11.48-16.63 23.4-24.37 35.49-2.07 1.94-4.32 3.84-5.5 6.51-1.22 2.63-2.57 5.27-4.82 7.2 1.11-3.58 2.25-7.15 3.21-10.77 5.28-11.55 12.24-22.24 18.98-32.97 15.93-25.04 36.67-46.57 58.64-66.34 17.1-16.63 32.83-34.85 52.36-48.77-0.02-8.84-1.77-17.68-0.47-26.52 2.08-17.21 10.8-33.56 24.11-44.72z" fill="#C3C66B" stroke="#C3C66B"/>
	<path d="m244.79 916.88c9.76-2.45 20.37-4.25 30.11-0.76 13.48 4.91 26.08 12.54 36.15 22.81 3.52 3.47 5.5 8.05 7.58 12.45 16.43 2.21 33.07 2.77 49.61 4.07 17.58 0.49 35.17 1.19 52.77 0.64 5.86-0.28 11.79 0.15 17.59-0.94-4.23-2.2401-8.83-3.64-13.17-5.62-15.43-7-29.93-16.11-42.72-27.25-1.42-1.27-2.64-2.7401-3.77-4.2401 2.6-0.55 5.17-1.25 7.76-1.9 15.12 16.17 35.32 26.47 55.69 34.46 4.68 1.78 9.4 4.32 14.58 3.7 38.32-2.97 76.21-9.67 114.03-16.25 4.89-0.8 9.74-2.16 14.74-1.92 0.81 3.56 1.7 7.19 1.34 10.89-15.22 1.16-30.49 2.03-45.64 4.01 2.7 12.85 0.87 26.48-3.71 38.7-5.3 14-15.47 25.93-28.03 34-15.18 9.46-32.99 14.54-50.82 15.2 0.77-13.1 3.24-26.06 6.24-38.82 2.95-10.63 6.52-21.63 13.97-30.04 4.77-5.44 11.54-8.35 17.11-12.79-4.57-0.05-9.09 0.6299-13.6 1.24-17.8 2.32-35.69 3.79-53.58 5.01-21.36 0.56-42.76 0.7-64.09-0.8-13.24-0.72-26.56-0.5-39.74-2.13-3.03-0.28-6.07-1.0099-9.1-0.64-4.69 2.19-8.65 5.68-13.38 7.81-15.73 8.46-34.78 10.55-51.92 5.45-15.63-4.35-29.38-13.87-40.61-25.39-3.55-3.92-7.53-7.6-9.94-12.38 14.37-7.2599 29.03-14.15 44.55-18.57z" fill="#C3C66B" stroke="#C3C66B"/>
	<path d="m1483.6 923.57c16.94-6.18 35.99-5.24 52.74 1.11 11.32 4.27 22.21 10.09 31.43 17.97-12.42 11.13-25.19 22.11-39.76 30.37-8.27 4.48-17.43 8.46-27.05 7.71-11.47-0.82-22.76-3.79-33.28-8.42-6.4-2.82-12.22-6.88-16.98-12.01-6.4299 6.07-12.72 12.35-20.12 17.27-8.6 5.79-17.09 11.98-26.55 16.29-2.26 0.84-4.51 1.63-6.78 2.4-0.1799-0.53-0.55-1.59-0.73-2.13 17.65-11.84 34.98-24.44 49.95-39.63 8.5898-13.94 21.79-25.08 37.13-30.93z" fill="#C3C66B" stroke="#C3C66B"/>
	<path d="m1013.1 1015.1c1.91-2.31 3.37-4.94 4.58-7.67 1.92 0.94 3.88 1.91 6.0099 2.35 6.43 1.29 12.83 2.87 19.42 3.26 7.05 1.52 13.29 5.59 19.06 9.77 12.21 8.9999 20.51 22.37 25.39 36.55 4.4 13.66 5.8199 28.29 4.38 42.55-8.04-1.2999-15.78-3.96-23.57-6.25-11.96-3.8899-23.95-8.3899-34.21-15.81-3.92-3.03-7.8101-6.3101-10.39-10.59-7.38-12.61-11.75-26.87-13.22-41.38-1.57 9.49-2.64 19.12-5.36 28.38-0.8 3.1899-3.62 6.27-2.22 9.6799 3.02 8.6901 5.04 17.79 5.01 27.03 0.42 16.54-5.69 32.98-16.32 45.59-10.39 12.81-24.66 21.83-39.61 28.42-1.89 0.79-3.86 1.33-5.84 1.8199-2.5-9.6499-3.32-19.64-4.52-29.51-0.65-12.41-1.4-25.23 2.42-37.24 1.91-6.36 6.02-11.75 10.34-16.67 7.6-8.14 16.09-15.72 26.08-20.81 5.23-2.9 11.17-3.89 17.08-4.0499 5.33-11.55 8.36-23.94 12.08-36.05 1.0401-3.1499 1.3701-6.6599 3.4101-9.3699z" fill="#C3C66B" stroke="#C3C66B"/>
	<path d="m534.94 1147.9c3.06-4.11 5.42-8.74 8.97-12.46 2.22 0.51 4.45 1.04 6.6801 1.5701-0.44 2.03-0.88 4.0699-1.45 6.09-6.66 11.99-15.66 22.53-24.52 32.95 2.88 10.72 5.59 21.75 4.5 32.95-1.21 16.92-9.05 33.12-21.18 44.92-6.81 7.1001-14.89 12.86-23.58 17.44-5.81 2.89-11.57 6.17-17.97 7.53-1.87-8.8201-2.83-17.79-3.78-26.74-1-12.31-1.29-24.87 1.65-36.95 1.77-7.48 6.17-14.05 11.44-19.52 7.89-8.3099 16.77-16 27.2-20.92 5.2-2.76 11.11-3.54 16.92-3.0901 5.2799-7.7599 9.6699-16.11 15.12-23.77z" fill="#C3C66B" stroke="#C3C66B"/>
	<path d="m244.63 1256.6c3.87-8.1801 8.36-16.18 14.44-22.93 5.21 4.2101 9.15 9.6801 13.42 14.78 9.33 11.83 18.65 24.19 23.27 38.73 2.24 6.79 1.84 14.09 0.56 21.05-1.91 10.4-4.91 20.74-10.03 30.06-2.43 4.5701-6.21 8.1901-9.16 12.4 11.59 11.31 20.83 24.75 28.94 38.71 0.72 2.4301 0.56 5.02-0.83 7.2001-9.42-13.65-19.77-26.67-31.03-38.84-3.99-4.49-9.56-7.04-13.9-11.1-10.31-9.38-18.47-21.48-21.99-35.06-4.91-18.28-1.93-38.14 6.31-55z" fill="#C3C66B" stroke="#C3C66B"/>
	<path d="m1007.3 1293c0.23-3.65 3.61-4.9301 6.73-5.52 14.36 6.78 28.74 13.72 42.08 22.4 4.03 6.22 9.2 11.6 13.2 17.86-10.9-6.05-21.55-12.5-32.32-18.76-2.6901-1.64-5.83-2.4401-8.97-2.13-11.01 0.79-22.05 0.45-33.07 0.46-10.97-0.2899-21.44 3.86-31.24 8.36-1.96 19.66-3.2 40.06-11.87 58.17-3.58 7.96-10.57 13.6-17.66 18.34-7.07 4.62-14.66 8.5-22.65 11.27-6.7 2.14-14.05 3.95-20.99 1.85-2.59-0.9199-5.69-2.51-6.08-5.5299-0.81-5.2401-0.69-10.57-0.52-15.84 0.63-16.65 7.41-33.02 18.93-45.08 12.07-12.72 28.46-20.61 45.34-24.7 5.72-1.2799 9.91-5.8099 15.44-7.5499 18.19-6.1 37.63-6.53 56.62-6.0601-3.81-3.3199-8.58-5.1498-12.97-7.5399z" fill="#C3C66B" stroke="#C3C66B"/>
	<path d="m1072.9 1330.2c4.76 1.83 10.07 3.8999 15.01 1.3999 4.1801 4.3501 8.99 8.04 13.41 12.15 12.97 12.19 24.72 25.8 33.92 41.1 4.2101 6.25 6.87 13.38 10.84 19.78 4.99-3.46 9.02-8.0499 13.76-11.82 11.02-9.47 22.87-18.56 36.78-23.29 10.35-3.48 21.48-1.3099 31.83 1.0601 9.95 2.6799 20.25 5.9399 28.07 12.97 3.15 2.9 6.17 6.86 5.6901 11.4-1.0801 3.5699-3.9 6.25-6.2001 9.08-8.1 9.25-18.4 16.74-29.94 21.06-18.02 6.75-38.28 4.83-55.93-2.1201-7.0699-2.47-13.31-6.6799-20.07-9.7999 1.4299 4.04 3.1899 7.96 4.9299 11.89 14.28 32.52 26.22 66.39 45.64 96.37 7.13 11.26 15.49 21.7 24.55 31.46 13.12 14.58 27.74 27.77 43.23 39.79 12.4 9.48 24.86 19.09 38.65 26.51 5.83 6.5399 12.53 12.6 20.6 16.23 2.01 1.09 4.23 0.24 6.11-0.7001 1.67 1.54 3.4401 3.01 5.45 4.13 17.21 8.9801 34.17 18.43 51.07 27.98 6.05 3.51 13.16 4.08 19.76 6.09 27.97 8.0599 56.12 16.48 82 30.06 12.43 6.28 24.89 12.48 37.24 18.9 4.83 2.52 8.89 6.24 13.58 9 4.3-5.47 7.73-11.55 11.95-17.08 7.9399-10.54 16.58-21.01 28-27.94 8.1499-4.9199 17.94-5.64 27.23-6.0199 10.63-0.2301 21.6 0.46 31.49 4.72 4.3099 1.9099 8.6899 5.11 9.88 9.9399 0.16 3.25-1.66 6.2001-2.91 9.1-4.74 9.92-11.51 18.89-19.92 25.99-13.49 11.15-31.2 16.5-48.58 16.15-6.83 0.2001-13.5-1.37-20.28-1.8199 4.2201 3.71 9.2301 6.34 13.68 9.76 13.71 10.53 25.13 23.7 35.51 37.44 6.28 8.53 13.37 16.65 17.51 26.54 7.8099 18.17 10.98 37.87 14.78 57.17 3.0198 14.94 5.2898 30.03 6.8198 45.2h-8.05c-2.5699-12.89-4.0499-25.98-7-38.8-3.1-15.13-7.21-30.04-12.65-44.5-1.6901-4.3899-3.12-8.9399-5.8501-12.81-10.68 32.74-22.59 65.18-37.84 96.11h-8.15c5.38-13.44 10.7-26.92 16.3-40.27 6.45-14.66 16.23-28.15 18.69-44.3 1.03-7.4301 3.8201-14.4 5.9801-21.5-0.88-4.76-4.37-8.5601-6.6901-12.7-11.4-18.64-26.18-35.12-43.35-48.63-24.97-19.96-53.53-34.96-82.96-47.19-4.41-2.0801-8.92 0.7899-13.21 1.75-24.2 6.52-49.39 9.2899-72.96 18.08-6.02 2.15-11.63 5.24-17.52 7.6801 0.23-2.36 0.55-4.6901 0.87-7.01 10.35-4.4 20.28-9.79 30.98-13.36 17.58-6.6801 36.05-10.49 54.6-13.17-3.3899-2.64-7.7699-3.3-11.67-4.8101-18.64-6.35-37.27-12.7-55.81-19.32-9.1899-3.9301-18.37-7.9399-27.05-12.92-15.13-8.38-29.34-18.33-44.62-26.44-15.56-8.3201-30.61-17.64-44.78-28.16-11.43-8.4199-21.9-18.05-32.04-27.95-27.48-27-50.87-58.21-68.63-92.41-3.4399-5.99-5.77-12.54-9.37-18.44-11.48 15.99-18.88 34.41-26.97 52.24-6.38 15.28-13.64 30.18-21.42 44.8-3.38 1.02-6.87 1.8301-10.41 1.35 6.2799-15.1 15.22-28.9 22.23-43.65 7.34-16.94 13.66-34.54 24.09-49.91 2.5701-4.05 6.52-6.86 9.76-10.29 0.05-3.4399-2.1-6.48-3.21-9.64-13.28-33.21-29.37-65.92-53.06-93.04-9.8399-11.531-21.49-21.281-33.37-30.621z" fill="#C3C66B" stroke="#C3C66B"/>
	<path d="m584.2 1391.2c2.42-4.7599 6.23-9.8199 11.81-10.74 5.08 0.88 9.27 4.3201 13.61 6.92 15.75 10.19 27.18 26.87 30.57 45.36 3.62 18.85-0.04 38.46-7.61 55.9-1.63 3.22-1.56 6.9-0.57 10.32 3.81 15.08 5.13 30.63 6.93 46.04 1.81 16.6 4.84 33.1 9.98 49.02 3.27 9.97 6.4 20.19 11.94 29.17 2.45-4.9601 4.05-10.26 5.96-15.42 7.75-21.37 15.76-42.7 25.84-63.1 2.84-6.36 6.94-12.12 9.07-18.79 2.8-3.66 6.03-7.14 10.27-9.13 0.7 0.91 1.41 1.85 2.09 2.8201-5.52 8.34-9.69 17.47-14.02 26.47-7.08 15.74-15.77 30.87-20.45 47.59-2.54 9.29-6.05 18.28-8.47 27.61-0.9901 3.91-3.38 7.24-4.85 10.96 0.15 2.39 1.87 4.3501 3.09 6.3401 8.83 12.61 19.27 24.19 31.61 33.44 13.76 10.4 29.22 18.35 45.13 24.88 20.77 8.27 43.34 13.72 65.8 10.93 15.59-2.03 30.5-10.85 38.27-24.76 1.73 0.9299 3.51 1.78 5.29 2.66-8.93 11.49-20.82 20.69-34.07 26.68-8.01 3.6901-16.8 5.03-25.48 6 23.11 7.9401 47.85 10.15 70.7 18.97 43.85 19.08 84.55 46.85 115.05 84 14.28 16.87 26.01 35.67 37.64 54.4 4.39 6.41 7.6199 13.59 12.67 19.54 1.6801-9.73 2.4301-19.63 5.11-29.17 2.15-9.7 5.92-18.89 9.54-28.1-0.4401-0.1-1.3101-0.3-1.75-0.4 1.86-0.4299 3.75-0.76 5.66-0.95-0.0901 2.53-0.15 5.0699-0.29 7.62-3.9401 8.04-4.76 17.08-4.67 25.92-0.21-1.48-0.48-2.9199-0.74-4.34-6 13.13-6.27 28.06-3.72 42.06 1.03 4.64 4.28 8.2899 6.95 12.09h-11.75c-20.92-30.5-36.11-64.83-60.15-93.19-21.63-25.11-47.87-46.32-77.22-61.76-15.82-8.53-32.34-15.7-49.2-21.89-5.22-1.9601-10.39-4.2101-15.91-5.15 4.92 4.21 10.8 7.14 15.58 11.56 7.59 6.5 13.41 14.71 19.34 22.68 10.43 13.82 19.51 28.75 26.23 44.74 7.69 19.47 12.36 39.95 16.49 60.42 2.98 14.18 5.08 28.55 8.74 42.59h-49.68c5.05-8.49 10.91-16.54 18.31-23.14 5.03-5.22 11.4-8.84 16.62-13.84-1.74-11.76-4.3-23.45-7.8-34.81-8.61 11.43-16.52 23.58-27.21 33.26-7.08 6.65-15.65 12.33-25.47 13.66-10.02 1.33-20.24 1.39-30.26 0.12-7.13-1.26-14.63-2.9399-20.36-7.63-2.84-2.41-5.79-6.3099-3.97-10.16 5.32-13.15 14.04-25.1 25.61-33.44 15.09-10.95 34.53-14.84 52.87-12.73 8.28 0.5399 16.16 3.2899 24.3 4.6599-0.98-4.9099-3.06-9.48-5.16-13.98-6.08-13.69-13.16-26.98-21.72-39.28-11.59-16.54-27.28-29.48-42.45-42.56-5.03-4.0601-9.41-9.35-15.82-11.25-17.54-5.6801-35.07-11.4-52.91-16.03-16.58-4.13-33.27-7.77-50.05-10.95-7.76-1.59-15.75-1.36-23.53-2.79 1.57-2.11 2.99-4.3199 4.27-6.59 17.63 1.6799 34.77 6.47 52.19 9.39-6.13-3.3301-12.7-5.77-18.81-9.15-8.44-4.63-16.71-9.6901-24.09-15.91-1.63-1.39-3.47-2.47-5.43-3.27-1.63-10.99-10.63-19.97-21.51-21.89-4.38-4.7799-7.96-10.23-10.86-16.01-3.02-6.02-4.7-12.57-7.06-18.84-3.51-9.37-6.87-18.8-9.6-28.42-2.96-10.53-4.74-21.35-7.0099-32.03-1.98-9.4-3.42-18.9-4.56-28.43-1.22-10.23-3.5-20.31-4.47-30.57-0.44-2.58-0.33-5.71-2.65-7.4-14.64-11.45-29.65-23.45-39.19-39.7-4.78-7.87-5.02-17.36-4.95-26.29 0.0998-11.18 1.7098-22.56 6.3698-32.81z" fill="#C3C66B" stroke="#C3C66B"/>
	<path d="m1537.6 1518.4c1.49-0.96 3-1.9 4.53-2.83 2.76 8.49 5.65 16.95 9.11 25.19 3.23 6.99 5.4301 14.64 10.3 20.75 6.33 7.4601 10.24 16.66 13.04 25.95 5.52 19.46 1.65 41.01-9.3199 57.87-8.3 12.75-19.24 23.94-32.22 31.92-1.8-2.7999-3.15-5.85-4.3101-8.9399-6.16-15.18-12.21-30.75-13.61-47.21-0.62-6.29-0.12-12.77 2.24-18.67 4.36-11.08 11.05-21.19 19.11-29.92 4.39-5.13 10.12-8.74 16.08-11.77-7.11-13.27-11.56-27.74-14.95-42.34z" fill="#C3C66B" stroke="#C3C66B"/>
	<path d="m362.94 1718.8c16.81-8.5199 36.16-11.13 54.81-9.61-1.48 7.61-3.79 15.03-6.05 22.44-4.17 12.88-8.99 25.91-17.25 36.8-4.15 5.6801-10.11 9.66-16.41 12.61-10.69 5.2101-22.32 8.3101-34.12 9.6101 8.22 1.9099 16.72 2.36 24.89 4.49 3.52 0.85 6.75 2.6699 10.31 3.36 3.15-0.12 6.06-1.52 9.08-2.28 17.83-5.29 37.78-3.5601 54.11 5.47 15.18 8.29 26.82 21.96 34.93 37.05 2.7 5.4 5.79 10.79 6.77 16.84-17.76 3.21-35.86 5.64-53.93 4.14-8.14-0.75-16.43-2.8199-23.05-7.8101-10.06-7.5399-18.57-17.09-25.21-27.74-3.9-5.97-5.32-13.03-5.93-20.01-7.78-4.7999-16.87-6.83-25.48-9.62-8.23-2.72-16.88-4.2999-24.67-8.2-1.52-1.77-3.25-3.83-2.61-6.3199 1.54-7.0801 2.25-14.35 4.81-21.16 5.63-17.34 18.61-32.12 35-40.06z" fill="#C3C66B" stroke="#C3C66B"/>
	<path d="m1218.2 0h141.7c4.39 3.49 10.04 1.53 14.79 0h24.74c4.96 3.84 10.36 7.33 14.16 12.43 7.8 9.88 8.49 23.94 4.28 35.47-5.04 13.18-18.12 21.55-31.46 24.49-7.6901 2.03-15.66 0.9-23.48 1.6 3.9199 10.3 13.08 17.25 18.26 26.81 4.0801 7.02 5.5701 15.97 2.2401 23.58-3.66 8.46-11.02 14.81-19.07 18.99-7.5599 3.92-16.64 4.57-24.74 2.05-9.79-2.95-18.03-9.9-23.67-18.3-4.1-5.87-5.95-12.84-8.01-19.58-6.71 4.46-10.32 11.91-15.8 17.59-3.71 4.1-8.77 6.84-14.19 7.85-9.1799 1.78-19.45 1.9-27.58-3.37-7.04-4.63-12.31-11.73-15.56-19.45-4.17-10.27-2.0801-22.24 4.0299-31.28 4.8301-8.01 13.39-12.85 18.27-20.8 2.2001-3.48 2.87-8.72-0.4-11.78-3.6-3.2-8.4099-4.39-12.7-6.36-10.07-4.16-17.71-12.63-22.97-21.95-3.0598-5.48-2.8898-11.92-2.8398-17.99m96.98 12.53c-13.65 0.35-26.02 11.06-28.2 24.56-3.2 14.22 5.84 29.72 19.62 34.27 11.61 4.02 25.55 0.11 33-9.76 8.97-10.97 8.7001-28.67-1.2899-38.92-5.6001-6.76-14.48-10.2-23.13-10.15z" fill="#8DB5AA" stroke="#8DB5AA"/>
	<path d="m1741 375.06c9.4-4.02 19.95-3.78 29.93-2.76 7.88 0.7 13.31 7.44 16.92 13.86 4.59 8.78 8.01 18.72 6.9 28.77-1 9.52-5.54 18.32-5.92 27.96 1.87-0.75 3.74-1.53 5.63-2.29 15.11-6.67 34.2-3.77 46.29 7.63 7.1799 6.79 10.41 17.06 9.2 26.79-1.21 14.67-12.49 28.01-27.02 30.96-12.64 2.25-25.43 3.61-38.24 4.29-0.52 7.1 4.01 13 6.9601 19.07 2.83 5.27 4.8099 11.45 3.1599 17.43-2.4299 9.22-7.01 18.44-14.99 24.06-11.94 8.09-28.71 9.29-41.03 1.34-9.1001-5.57-15.12-14.79-19.52-24.27-1.74-5.63-2.5-11.6-5.2101-16.88-0.4299 0.16-1.2799 0.47-1.7 0.62-8.63 7.38-13.33 18.4-22.55 25.2-6.21 5.02-14.77 6.78-22.46 4.65-7.54-2.05-14.01-6.94-19.29-12.57-6.39-6.93-9.45-16.65-8.4199-25.99 0.9199-10.25 6.1699-19.71 13.29-26.97 4.4-4.76 10.21-7.76 15.65-11.13-6.9199-6.34-16.7-7.78-24.11-13.35-4.62-3.32-7.38-8.51-9.3199-13.72-3.3-8.25-4.52-17.91-0.6001-26.17 4.17-8.6 10.9-16.31 19.71-20.33 8.58-3.93 18.67-3.15 27.32 0.18 8.1 3.06 14.56 9.32 22.8 12.09 3.4299 1.17 7.85 1.22 10.46-1.71 3.3101-3.83 3.14-9.24 3.99-13.96 0.97-8.42 5.04-16.19 10.33-22.7 3.3-4.01 6.93-8.06 11.84-10.1m-14.7 73.37c-6.7599 1.93-13.23 5.77-17.25 11.67-5.5299 7.42-7.0399 17.5-4.37 26.31 4.03 12.56 16.98 22.02 30.34 20.65 9.2899-0.06 17.86-5.39 23.34-12.66 4.79-7.25 6.99-16.57 4.24-25-1.74-8.01-7.6801-14.38-14.63-18.36-6.48-3.79-14.47-4.04-21.67-2.61z" fill="#8DB5AA" stroke="#8DB5AA"/>
	<path d="m17.02 379.01c9.82-6.16 22.06-5.45 33.11-4.25 8.25 0.67 14.02 7.69 17.53 14.56 3.97 8.29 7.08 17.43 6.31 26.75-0.78 10.31-6.2 19.6-7 29.92 5.05-1.61 9.92-3.97 15.23-4.63 10.83-1.43 22.29 0.91 31.32 7.18 6.6 4.59 11.7 11.58 13.27 19.54 2.04 10.96-0.95 22.91-8.44 31.25-5.48 5.93-12.98 10.08-21.03 11.11-12.11 1.63-24.31 2.51-36.52 2.87-0.78 6.6 3.1 12.36 5.82 18.05 2.88 5.62 5.28 12.15 3.28 18.47-2.99 9.95-8.41 20.06-17.9 25.14-9.77 5.19-21.9 6.42-32.28 2.32-8.2-3.22-14.55-9.72-19.72-16.66v-53.3c7.61 1.27 15.81 2.13 23.01-1.33 10.03-4.19 16.95-14.39 17.78-25.14 0.66-8.71-2.59-17.65-9.05-23.6-8.26-8.03-20.99-9.95-31.74-6.43v-50.3c4.15-8.18 9.48-16.11 17.02-21.52z" fill="#8DB5AA" stroke="#8DB5AA"/>
	<path d="m842.4 468.48c6.72-3.83 15.16-5.27 22.5-2.35 8.0099 3.2 13.62 10.69 16.34 18.68 1.65 4.58 1.6 9.5 1.95 14.3 7.69-2.81 12.64-11.02 21.25-11.62 7.91-0.33 16.77 1.62 21.95 8.1 6.27 7.74 8.61 19.44 3.52 28.38-3.22 6.02-9.12 9.84-14.99 12.93-3.63 2.19-8.15 4.6-9.06 9.12-0.46 4.14 3.62 6.5 6.4 8.73 7.07 4.71 11.47 12.63 13.19 20.82 1.4 8.45-3.35 16.28-7.78 23.06-3.27 5.21-9.93 6.14-15.56 6.01-7.36-0.29-15.13-1.9-20.8-6.89-4.49-3.46-7.62-8.76-12.95-11.02-0.43 7.07-2.27 14.25-6.88 19.81-4.77 5.81-11.74 10.37-19.45 10.51-7.58 0.36-14.84-3.79-19.39-9.67-5.09-6.47-6.31-15.58-3.51-23.26 2.83-7.84 6.11-15.5 9.59-23.07-7.35-3.77-16.36 0.19-23.49-4.24-4.36-3.01-7.62-7.46-9.87-12.19-3.83-8.35-1.78-18.47 3.6-25.64 3.66-5.04 9.52-7.95 15.42-9.46 5.53-1.18 11.26-0.9 16.87-0.48 2.62 1.07 5.3 2 8.02 2.81 1.28-4.11-1.41-7.86-2.96-11.47-2.53-5.75-5.13-11.93-4.19-18.35 0.75-5.9601 5.18-10.76 10.28-13.55m19.95 51.97c-6.64 1.47-13.22 5.81-15.49 12.47-2.02 5.21-2.18 11.19-0.18 16.43 3.46 8.58 13.16 14.12 22.32 12.5 10.53-1.39 18.53-11.94 17.57-22.42-0.64-11.73-12.52-21.53-24.22-18.98z" fill="#8DB5AA" stroke="#8DB5AA"/>
	<path d="m1429.2 518.21c6.3101-7.98 19.04-11.02 27.69-5.04 5.6499 4.16 9.5099 10.77 10.3 17.75 0.27 2.07 0.47 4.15 0.76 6.23 6.16-1.58 9.8-8.22 16.4-8.73 6.63-0.46 14.13 1.31 18.35 6.84 4.78 6.31 6.41 15.58 2.1801 22.6-2.9801 5.4-8.61 8.33-13.74 11.31-2.39 1.55-5.55 3.49-5.2001 6.79-0.02 2.96 3.0701 4.36 4.99 6.11 5.65 4 9.5 10.34 10.68 17.14 0.7899 6.67-2.74 12.86-6.29 18.22-2.2 3.42-6.45 4.59-10.3 4.64-5.17 0.18-10.48-0.64-15.12-3.01-5.35-2.75-8.46-8.35-13.8-11.12-0.76 5.76-2.15 11.68-6.08 16.16-3.7301 4.42-9.14 7.8-15.04 7.94-12.44 0.61-22.89-12.99-18.93-24.86 1.99-6.94 5.41-13.34 7.89-20.11-5.96-2.78-13.15 0.26-18.79-3.32-5.6699-4.38-10.03-11.39-9.1299-18.78 0.3799-7.5699 5.3099-14.66 12.32-17.56 5.87-2.3799 12.47-2.64 18.64-1.31 1.87 0.39 3.78 0.54 5.71 0.65-0.2-2.8-1.11-5.47-2.39-7.94-3.0901-6.24-5.5401-14.39-1.1001-20.6m24.15 36.24c-4.35 0.31-8.46 2.36-11.63 5.3-6.76 7.05-5.58 20.42 3.02 25.51 3.9299 2.95 9.2 3.24 13.86 2.23 4.63-1.41 8.34-5.12 10.43-9.41 2.65-5.79 1.17-12.76-2.3899-17.81-3.19-3.84-8.33-6.01-13.29-5.82z" fill="#8DB5AA" stroke="#8DB5AA"/>
	<path d="m1223.7 576.68c10.61-14.45 32.99-19.73 48.24-9.58 5.4801 3.65 11.03 7.89 14.15 13.84 4.48 10.15-0.22 21.81 4.2101 31.99 4.74-0.93 8.9399-3.43 13.42-5.16 6.98-2.8 14.01-5.51 21.15-7.9 10.67-3.64 23.01-1.52 31.97 5.28 9.98 7.61 16.29 20.72 13.6 33.31-2.5499 12.37-11.88 22.55-23.08 27.92-6.5599 3.44-14.03 4.03-21.28 4.6 5.4601 9.56 15.34 15.68 20.42 25.5 3.84 7.51 5 16.11 5.13 24.46-0.12 7.22-1.36 15.5-7.49 20.19-6.1801 4.54-13.08 8.2-20.36 10.64-6.02 1.95-12.66 2.25-18.65 0.04-8.5-2.9-16.75-7.36-22.54-14.37-3.37-3.98-5.72-8.89-9.9299-12.09-3.16-2.31-7.75-1.81-10.59 0.76-6.96 5.79-9.61 14.87-15.26 21.7-5.2699 6.45-12.43 11.73-20.71 13.38-10.7 2.04-21.91-1.33-30.57-7.7-6.29-4.62-10.32-11.86-11.62-19.48-1.0701-6.2-1.86-12.81 0.25-18.88 3.46-9.52 12.62-15.56 16.06-25.1-3.51-0.29-7.02-0.3701-10.5-0.7401-14.09-1.64-27.82-9.66-34.69-22.3-4.42-7.93-5.05-17.66-2.29-26.24 2.58-8.32 7.25-16.47 14.8-21.19 5.7999-3.67 13.08-4.24 19.67-2.76 10.82 2.31 19.9 9.37 30.75 11.64l0.1-0.86c1.2101-5.57-1.5-10.93-2.45-16.32-0.64-11.94 0.68-24.75 8.09-34.58m35.71 59.78c-13.77 0.77-26.61 11.82-28.16 25.73-1.71 10.98 3.41 22.76 12.77 28.81 6.58 4.48 15.01 5.98 22.81 4.62 6.5901-1.74 13.15-4.88 17.51-10.28 4.3-5.46 7.24-12.29 6.88-19.34 0.17-9.34-4.71-18.53-12.29-23.89-5.75-3.7-12.6-6.22-19.52-5.65z" fill="#8DB5AA" stroke="#8DB5AA"/>
	<path d="m458.89 610.88c4.23-5.86 10.76-10.31 18.08-10.92 8.13-0.86 16.1 2.07 23.07 6.02 7.61 4.4 13.63 11.77 15.73 20.38 3.28 12.6-0.27 26.28-7.73 36.74-3.04 4.46-7.29 7.86-10.97 11.76 9.11 4.49 19.93 3.34 28.88 8.25 6.19 3.35 10.02 9.59 13.38 15.54 4.08 7.24 4.93 16.12 2.37 24.02-2.79 8.5-7.73 16.71-15.39 21.62-7.14 4.64-16.01 5.81-24.34 4.83-8.98-0.92-16.92-6.16-25.98-6.64-3.76-0.23-8.08 1.31-9.52 5.07-1.77 4.99-0.34 10.35-0.2 15.48 0.89 10.77-3.38 21.21-9.19 30.05-5.23 7.62-14.52 10.75-23.07 12.93-6.5 1.38-13.78 3.38-20.02 0.02-9.68-5.1201-16.01-14.74-20.65-24.35-5.69-12.19-1.05-25.8-3.31-38.56-4.92 3.48-9.63 7.48-15.44 9.43-14.1 5.18-31.7 3.47-42.68-7.46-6.58-6.52-9.44-16.02-9.07-25.14 0.11-12.78 8.17-25.1 19.77-30.42 6.31-2.89 12.91-5.05 19.39-7.51 5.44-2.3 11.38-3.22 16.64-5.95-2.73-9.51-11.98-14.82-16.36-23.37-2.54-4.37-2.29-9.62-1.78-14.46 0.94-8.34 3.88-16.79 9.88-22.86 9.87-9.82 25.35-14.2 38.65-9.38 9.88 3.15 17.39 10.64 24.09 18.22 1.63 2.94 3.27 5.8701 4.7 8.9301 1.3 2.61 2.33 5.63 5.08 7.1 7.29-8.6601 9.12-20.44 15.99-29.37m-28.51 56.63c-8.7 1.72-16.5 7.31-20.81 15.07-3.86 6.02-4.25 13.5-3.34 20.41 2.7 14.96 18.33 26.17 33.39 23.5 13.81-1.32 25.14-13.8 26.18-27.44 1.12-10.46-4.27-21.09-12.83-27.01-6.46-4.64-14.9-5.54-22.59-4.53z" fill="#8DB5AA" stroke="#8DB5AA"/>
	<path d="m646.57 648.59c3.9-3.73 9.95-2.36 14.46-0.59 10.76 4.7 19.66 13.05 26.35 22.59 3.1 4.24 4.75 9.2599 6.06 14.29 9.23-2.01 16.84-8.35 26.07-10.37 8.85-1.86 18.77 0.24 25.43 6.55 4.01 3.7 5.73 9.71 4.07 14.94-2.47 8.2-8.92 14.48-15.79 19.23-16.1 10.72-35.01 15.93-53.59 20.52-2.72 0.55-5.77 1.62-8.36 0.06-9.64-5.11-15.04-15.27-19.1-24.95-5.83-14.73-8.96-30.5-9.71-46.3-0.11-5.48-0.1-11.86 4.11-15.97z" fill="#8DB5AA" stroke="#8DB5AA"/>
	<path d="m81.03 666.04c4.05-2.85 9.79-2.7 13.79 0.17 6.68 4.52 10.03 12.32 12.29 19.78 4.02 13.96 4.18 28.65 4 43.07 0.35 4.09-3.27 6.72-6.29 8.7-10.13 5.96-22.24 6.75-33.72 6.79-8.55-0.25-17.2-0.87-25.49-3.13-3.62-1.12-7.89-2.87-9.11-6.82-1.05-4.4 1.6-8.56 4.3-11.78 5.63-6.39 13.03-11.03 20.89-14.18 4.09-1.67 8.58-1.75 12.89-2.44-0.29-8.22-3.95-16.1-2.96-24.38 0.87-6.21 4.2-12.2 9.41-15.78z" fill="#8DB5AA" stroke="#8DB5AA"/>
	<path d="m1412.2 814.18c6.9099-4.76 16-7.15 24.16-4.45 6.8201 2.43 12.9 7.48 15.76 14.23 3.28 7.7599 2.54 16.81-0.6 24.5-1.8 4.58-4.9399 8.44-7.23 12.76 6.49 1.76 13.17-0.48 19.75-0.41 6.53-0.33 13.65 2.11 17.32 7.8 3.6 5.7 4.27 12.81 3.52 19.38-1.27 9.26-8.86 16.76-17.67 19.26-7.96 2.7-16.53 1.54-24.35-1.01 0.29 7.75 5.85 14.49 4.74 22.39-0.8999 5.22-3.47 10.08-6.75 14.19-6.0299 7.19-16.56 8.73-25.28 6.65-7.28-1.72-12.88-7.59-15.74-14.3-3.0601-6.64-1.9901-14.82-6.8601-20.66-1.87-2-4.6599-1.89-6.96-0.79-4.49 2.11-8.0599 5.8701-12.84 7.39-5.9501 1.9-12.46 2.58-18.58 1.25-7.4199-2.4-12.88-8.49-17.39-14.57-3.42-4.41-2.3301-10.45-0.8201-15.38 2.54-7.02 6.39-14.14 12.98-18.1 4.8201-3.22 10.56-5.02 14.83-9.06-5.62-2.44-11.21-5.45-14.96-10.45-5.5299-6.64-8.33-15.96-5.77-24.39 2.13-7.7 9.02-13.21 16.41-15.56 7.4501-2.14 15.96-0.62 22.02 4.29 5.5699 4.4 10.99 8.97 16.2 13.8 1.02 0.75 2.02 2.21 3.5 1.61 5.1402-5.8999 4.3402-15.24 10.61-20.37m-8.7901 42.37c-4.63 1.36-9.15 3.83-12.07 7.76-4.36 6.34-5.5599 15.16-1.6499 22.03 4.83 9.91 18.22 14.26 28.02 9.31 5.78-2.77 9.8301-8.4901 11.16-14.69 1.29-8.1-2.14-17.22-9.4199-21.42-4.78-2.71-10.58-4.75-16.04-2.99z" fill="#8DB5AA" stroke="#8DB5AA"/>
	<path d="m1753.3 816.22c5.36-2.56 11.34-5.53 17.42-3.91 4.65 1.28 6.75 6.32 7.1101 10.73 0.8999 11.39-3.0601 22.58-8.29 32.53-2.9401 5.84-7.6901 10.41-12.6 14.61 5.12 7.14 13.07 11.52 18.53 18.36 5.7001 7 7.8401 16.76 5.6001 25.5-1.25 5.03-4.99 9.57-10.1 10.93-6.98 1.82-14.37-0.1299-20.68-3.22-13.12-6.48-23.41-17.26-32.9-28.14-5.24-5.83-9.4399-12.49-14.78-18.23-0.6499-1.51-1.1599-3.06-1.5699-4.61 0.74-10.74 7.28-19.77 14.48-27.28 10.84-11.23 23.9-20.21 37.78-27.27z" fill="#8DB5AA" stroke="#8DB5AA"/>
	<path d="m1163.3 848.32c6.12-8.02 16.64-12.43 26.65-11.09 3.87 0.6 7.61 2.58 10.09 5.65 2.77 3.72 3.39 8.57 3.27 13.1-0.3099 8.68-3.86 16.87-8.0599 24.34-8.9 15.36-21.2 28.35-33.69 40.82-2.7 1.08-5.58 1.65-8.48 1.74-14.45-2.02-26.48-11.46-36.87-21.1-7.47-6.91-14.04-14.76-19.96-23.01-3.2001-4.92-6.9401-10.44-6.02-16.59 1.01-5.25 6.5699-7.7 11.3-8.59 9.1899-1.53 18.66-0.17 27.56 2.3799 7.8 2.11 14.8 6.3701 20.67 11.89 5.0801-6.1099 8.7101-13.25 13.54-19.54z" fill="#8DB5AA" stroke="#8DB5AA"/>
	<path d="m742.8 957.76c4.29-6.62 11.52-11.12 19.22-12.55 6.07-1.15 13.2 0.68 16.65 6.14 4.56 7.33 4.18 16.56 2.48 24.72-4.75 20.4-16.81 37.96-28.46 54.98-1.37 1.2799-2.86 2.4399-4.44 3.46-9.08 2.25-18.51-0.22-26.85-3.91-14.11-6.2899-26.7-15.54-37.99-26-3.8799-3.81-7.83-7.73-10.43-12.56-1.94-3.73-2.13-8.91 1.11-11.98 4.69-4.68 11.6-5.98 17.93-6.79 13.34-1.16 27.88 0.3 38.92 8.55 4.9201-7.53 6.8801-16.57 11.86-24.06z" fill="#8DB5AA" stroke="#8DB5AA"/>
	<path d="m785.5 1126.5c10.83-13.49 32.39-14.94 46.1-5.1 5.83 4.27 10.63 10.15 12.92 17.08 3.79 11.69 7.09 23.53 9.84 35.51 11.63-1.6499 18.04-14.18 29.69-15.82 7.38-0.5701 14.87 1.2 21.54 4.33 13.83 6.4401 21.42 22.73 19.56 37.55-1.2 10.82-7.9901 20.16-16.07 27.06-5.51 4.78-12.24 7.7001-18.8 10.7-1.48 0.72-2.9301 1.52-4.35 2.35 1.57 2.04 3.49 3.84 5.8 5.0599 8.1 5.27 17.62 8.55 24.46 15.63 4.36 4.29 7.25 10.16 7.49 16.32 0.48 8.79-3.42 17.14-8.42 24.14-5.91 8.38-15.93 13.64-26.2 13.74-10.07 0.47-19.97-3.1901-28.07-9.02-5.26-3.6-9.11-8.72-13.25-13.45-5.72 8.36-4.85 19.35-10.37 27.81-3.9 5.9501-10.36 9.49-16.64 12.42-6.8 3.1699-14.78 3.85-21.9 1.38-9.11-3.13-17.66-8.99-22.51-17.47-4.25-7.3799-4.8-16.34-3.25-24.57 1.73-9.4301 8.07-17.52 8.63-27.22 0.45-4.7001-3.25-9.26-8.02-9.47-8.25-0.62-16.82 0.7899-24.72-2.39-9.09-3.53-18.85-8.5-23.2-17.77-3.89-8.16-5.11-17.33-5.53-26.27-0.35-7.33 4.97-13.16 10.16-17.62 6.16-4.96 13.25-8.92 20.87-11.11 11.85-3.0601 23.86 1.48 35.82 0.5-0.94-1.66-1.91-3.28-2.9-4.89-9.68-14.56-9.71-35.55 1.32-49.41m36.83 73.97c-7.19 1.6101-13.28 6.4801-17.46 12.42-7.8 11.84-5.74 28.96 4.72 38.55 7.97 7.99 20.81 10.39 31.29 6.4299 13.62-4.87 21.89-20.74 18.13-34.72-2.94-16.1-20.95-27.01-36.68-22.68z" fill="#8DB5AA" stroke="#8DB5AA"/>
	<path d="m1455.5 1152.5c6.7899-5.71 16.28-7.85 24.9-5.9301 4.7699 1.0701 9.1799 4.36 10.9 9.04 2.0701 5.23 1.2101 11.05-0.37 16.3-3.72 11.66-11.84 21.2-20.13 29.92-8.12 8.26-17.07 15.66-26.23 22.73-1.9299 1.39-4.01 3.0901-6.5399 2.77-7.7001-0.28-14.73-4.15-20.76-8.66-13.11-10.31-23.41-23.8-31.76-38.14-2.55-4.6801-5.3-9.38-6.48-14.61-0.8701-3.84-0.63-8.5599 2.7699-11.12 5.0701-4.0599 12.13-3.3999 18.19-2.7899 14.09 2.2 28.27 8.37 37.23 19.84 7.05-5.5099 11.31-13.75 18.28-19.35z" fill="#8DB5AA" stroke="#8DB5AA"/>
	<path d="m1040.2 1256.1c0.2001-4.3401 3.4-8.4801 7.8301-9.0801 6.5-0.99 12.94 1.4 18.67 4.29 7.8101 4.11 15.04 9.5 20.76 16.26 3.04 3.5 4.7201 7.89 7.39 11.65 9.9401-4.63 17.84-13.52 29-15.42 8.4501-1.33 18.33 0.52 24.01 7.39 3.62 4.28 3.7001 10.45 1.85 15.52-2.9199 8.24-9.08 14.85-15.72 20.3-13.76 10.89-29.91 18.18-46.12 24.6-4.9399 2.5-10.25 0.4301-15.01-1.3999-1.1899-0.8101-2.37-1.6001-3.53-2.39-4-6.26-9.1699-11.64-13.2-17.86-4.77-9.9801-9.37-20.09-12.31-30.78-2-7.52-4.2598-15.23-3.6199-23.08z" fill="#8DB5AA" stroke="#8DB5AA"/>
	<path d="m1740.6 1249.5c5.3899-1.46 11.39-3.21 16.82-0.9399 3.39 1.36 5.24 4.99 5.5 8.5 0.72 8.2899-2.71 16.22-6.41 23.44-5.1 9.47-12.36 18.13-22.13 22.97 4.17 7.91 11.35 13.7 15.61 21.57 3.5801 6.22 4.2201 13.8 2.8501 20.76-1.14 5.72-4.78 11.36-10.43 13.43-5.98 1.75-12.4 0.04-17.75-2.7899-9.5599-5.03-16.87-13.28-23.26-21.8-8.65-11.32-15.14-24.05-21.61-36.67 0.16-2.71 0.35-5.4099 0.76-8.0699 4.09-7.09 9.4301-13.46 15.99-18.39 13.13-10.02 28.35-17.08 44.06-22.01z" fill="#8DB5AA" stroke="#8DB5AA"/>
	<path d="m468.5 1312.4c2.02-3.6001 5.07-7.36 9.49-7.74 5.15-0.55 9.39 3.1499 12.56 6.75 6.88 8.1699 11.04 18.37 13.22 28.76 1.39 5.8501 0.78 11.88 0.15 17.8 8.99 1.14 18.13-0.58 27.09 0.98 8.66 1.7001 16.71 7.38 20.53 15.44 2.64 5.4199 1.98 12.42-2.23 16.88-6.27 6.7-15.49 9.5299-24.33 10.83-18.66 2.46-37.5-0.64-55.81-4.25-2.24-0.5599-4.87-0.78-6.39-2.72-4.91-5.74-6.74-13.41-7.26-20.78-0.96-13.49 1.16-27.03 4.79-39.99 2.05-7.55 4.51-15.04 8.19-21.96z" fill="#8DB5AA" stroke="#8DB5AA"/>
	<path d="m1913.9 1324.8c0.95-3.58 3.64-6.21 6.13-8.7899v53.52c-3.62 2.8199-7.72 5.4399-9.75 9.73-3.39 6.8099-3.02 15.65 1.64 21.81 2.13 3.01 5.26 5.0701 8.11 7.37v27.65c-0.97-1.1-1.97-2.14-2.96-3.16-2.14 4.0901-3.9601 8.4601-7.2101 11.84-6.2699 6.62-15.64 10.8-24.83 9.33-8.77-1.27-15.78-8.5599-18.29-16.83-2.01-6.61-1.11-14.1 2.67-19.91 5.15-7.72 11.88-14.19 17.71-21.37-5.9299-5.64-15.44-4.98-20.94-11.16-5.3201-7.49-7.48-17.84-3.6801-26.45 2.6901-5.88 7.36-11 13.35-13.58 7.1101-3.0399 15.31-2.6 22.54-0.1599 5.42 1.76 9.9501 5.33 14.91 8.0599 1.9102-9.2499-2.2399-18.75 0.6001-27.9z" fill="#8DB5AA" stroke="#8DB5AA"/>
	<path d="m712.2 1410.2c4.28-5.0699 10.14-9.26 16.8-10.33 12.47-1.4401 26.39 6.99 28.23 20.01 1.93 8.27-2.24 16.12-2.91 24.23-0.47 3.51 1.82 7.8 5.74 7.76 5.66 0.05 11.25-1.87 16.93-0.88 8.03 1.3101 16.77 4.8 20.51 12.58 2.82 5.89 5.38 12.37 4.99 19.01-1.7 7.98-8.78 13.37-15.28 17.57-8.38 5.4099-18.7 3.0499-27.99 4.88 3.11 4.22 6.72 8.27 8.28 13.41 3.16 9.52 1.98 21.29-5.55 28.5-10.04 9.6901-28.4 8.05-36.43-3.4299-4.85-7.4401-7.75-15.93-11.43-23.96-0.6801-0.9701-1.39-1.91-2.09-2.8201-4.24 1.99-7.47 5.47-10.27 9.13-3.21 2.29-6.58 4.9401-10.7 5.1-5.2401 0.27-10.63-0.4099-15.44-2.59-6.98-3.28-11.7-10.25-13.54-17.58-2.1-8.55 1.03-17.63 6.55-24.23 4.29-5.6699 10.75-8.86 16.47-12.8-7.53-5.47-17.58-6.02-24.7-12.16-4.38-3.66-6.53-9.54-5.96-15.17 0.81-8.47 5.15-16.95 12.58-21.42 6.78-4.03 15.32-4.02 22.69-1.75 6.32 1.77 11.26 6.23 16.39 10.09 2.8801-7.5101 0.9401-16.53 6.1301-23.15m9.25 44.38c-7.6 1.13-14.37 6.52-16.96 13.78-1.93 6.87-0.86 14.78 3.73 20.41 5.9901 7.34 16.88 9.72 25.5 5.9099 8.36-4.3099 13.36-14.4 11.23-23.65-2.19-10.39-12.92-18.18-23.5-16.45z" fill="#8DB5AA" stroke="#8DB5AA"/>
	<path d="m1630.9 1471.9c4.7201-2.25 10.25-4.4 15.41-2.25 6.41 2.6799 11.58 7.75 15.74 13.21 5.4401 7.38 4.1801 17.1 7.5801 25.28 3.8099-3.7101 7.3999-7.9301 12.44-10.02 8.98-4.1801 20.63-4.3201 28.58 2.1799 10.8 8.9601 11.15 27.59 0.38 36.73-7.5 5.9299-16.1 10.24-24.16 15.33 2.9299 5.86 9.46 8.3199 13.71 13.01 4.33 4.4399 4.21 11.23 3.85 17.02-0.77 10.52-9.53 19.22-19.52 21.62-8.4099 2-17.38-0.66-24.11-5.86-4.98-3.39-8.0499-8.7301-12.63-12.52-3.9099 8.0599-3.39 17.65-8.2799 25.3-2.91 4.79-8.28 7.9-13.87 8.0801-8.4 0.33-17.5-2.4301-22.87-9.22-5.6599-6.91-6.4199-16.65-4.37-25.06 1.2401-5.45 4.7101-9.9301 7.28-14.77-7.0499-1.52-14.45 0.62-21.33-1.79-5.15-2.0699-9.11-6.2999-12.21-10.77-5.0601-7.6001-3.6801-17.77 0.4199-25.46 3.67-7.01 11.38-11.09 19.09-11.68 7.4501-0.75 15.02 2.48 22.33-0.0901 1.62-1.6399 2.3099-3.86 2.45-6.11-0.61-5.4299-3.03-10.57-2.83-16.09 0.13-5.05 1.1699-10.12 3.3099-14.69 2.6801-5.55 8.2701-8.8 13.61-11.38m8.4501 54.55c-12.74 2.99-19.26 19.54-12.46 30.59 3.88 7.87 13.56 11.52 21.89 9.8199 11.04-1.74 19-13.63 16.77-24.53-1.6299-11.74-15.13-19.49-26.2-15.88z" fill="#8DB5AA" stroke="#8DB5AA"/>
	<path d="m1061.3 1535.4c2.5399-8.9401 9.37-17.3 18.77-19.3 12.66-2.7999 26.48 6.3201 28.76 19.11 1.6801 10.77-2.1899 21.39-2.4099 32.13 3.5399 0.4801 7.0299-0.33 10.41-1.35 4.92-1.11 10.42-2.33 15.15 0.12 4.22 2.16 8.01 5.23 10.96 8.9601 8.13 10.88 5.2001 28.18-6.0699 35.8-8.3199 6.12-18.95 7.0601-28.94 6.65 2.2699 7.49 9.0699 12.24 12.54 19.08 3.5601 6.12 3.63 14.37-0.8199 20.07-4.9301 6.36-12.36 11.44-20.63 11.64-8.1901 0.3199-16.01-3.99-21.25-10.08-4.4501-4.7999-6.5701-11.07-8.4401-17.18-6.62 4.49-9.2 13.38-16.97 16.42-6.15 2.2301-13.19 2.6801-19.42 0.5701-11.89-4.96-19.46-19.93-14.11-32.16 2.58-7.1799 8.97-11.7 13.8-17.23 2.42-2.7 4.15-7.5 1.01-10.31-4.54-3.4399-10.53-4.35-14.93-8.0499-6.32-5.22-12.28-12.58-11.63-21.28 0.4-6.6799 1.62-13.78 5.58-19.33 5.7401-5.8 14.6-6.85 22.38-6.9501 9.71-0.11 17.02 7.13 25.77 10.16-0.5102-5.8099-1.4002-11.83 0.4898-17.49m9.04 40.05c-4.99 1.1599-9.3199 4.45-12.4 8.48-4.62 6.87-4.59 16.41-0.2799 23.43 3.7799 5.24 9.74 9.49 16.45 9.37 6.02 0.41 12.27-1.72 16.21-6.4199 7.54-7.87 7.27-21.53-0.4399-29.16-4.9202-5.2201-12.66-6.8601-19.54-5.7z" fill="#8DB5AA" stroke="#8DB5AA"/>
	<path d="m1898.6 1594.7c7.02-2.1599 14.55-0.7899 21.42 1.3601v110.37c-3.4 0.14-7.33 1.08-10.2-1.27-3.79-3.2001-5.05-8.39-5.4601-13.12-1.0299-16.06 3.6901-32.83 14.62-44.89-6.11-5.48-13.71-8.88-19.97-14.13-7.4299-5.99-11.47-15.95-10.44-25.41 0.58-5.73 4.41-11.17 10.03-12.91z" fill="#8DB5AA" stroke="#8DB5AA"/>
	<path d="m872.62 1605.6c3.23-3.86 7.13-8.0499 12.44-8.54 4.79-0.46 8.58 3.3 10.75 7.17 5.03 8.91 6.71 19.35 6.75 29.48 0.13 7.4501-1.81 14.72-4.85 21.49 9.55 4.88 21.18 4.5801 30 11.1 6.93 5.24 12.16 13.77 11.4 22.7-0.4 5.08-3.87 9.51-8.37 11.7-8.3 4.26-18.05 3.98-27.03 2.63-17.01-2.89-32.83-10.16-48.22-17.66-1.78-0.88-3.56-1.7301-5.29-2.66-2.01-2.34-3.53-5.13-3.99-8.1901-1.82-10.55 0.89-21.25 4.57-31.09 5.4-13.67 12.7-26.62 21.84-38.13z" fill="#8DB5AA" stroke="#8DB5AA"/>
	<path d="m1323.4 1666.4c7.38-5.52 17.24-7.0399 26.1-4.8199 14.89 3.4 26.89 17.07 27.3 32.5-0.0601 10.69-2.1 21.26-3.17 31.88-0.3199 2.3199-0.64 4.65-0.87 7.01-0.0599 0.5499-0.1799 1.64-0.23 2.1899 11.48 1.8 22.21-6.3099 33.66-3.23 5.9399 2.09 10.97 6.16 15.56 10.38 13.97 13.22 13.19 37.88-0.29 51.17-7.0199 6.99-16.45 11.2-26.13 12.93-6.76 1.36-13.67 0.73-20.5 0.92 0.5599 2.46 1.4399 4.88 2.9399 6.97 5.37 7.9 12.72 14.5 16.55 23.41 3.37 7.4299 3.1799 16.5-1.0801 23.55-4.11 6.75-10.42 11.99-17.38 15.62-8.25 4.3201-18.34 4.67-26.99 1.3501-9.5399-3.55-17.43-10.81-22.63-19.45-3.4-5.4199-5.09-11.62-6.73-17.72-9.38 6.04-12.98 18.19-23.22 23.2-7.21 3.26-15.45 3.8301-23.23 2.9301-9.0701-1-16.69-7.08-21.81-14.32-4.22-6.1-7.39-13.29-7.2-20.82-0.04-10.68 5.5499-20.64 13.06-27.91 4.28-4.36 9.26-8.2999 12.15-13.79 1.96-3.7001 1.4-8.8601-2.12-11.41-3.71-2.72-8.27-3.8-12.38-5.7001-7.28-3.1399-13.2-8.75-17.91-15.02-3.21-4.2101-6.1699-8.88-6.84-14.24-1.38-9.9701 1.2-20.01 4.67-29.29 2.74-7.5601 10.74-11.1 17.97-12.99 10.29-2.47 21.66-3.29 31.52 1.22 7.97 3.45 14.83 9.26 23.39 11.39-0.87-5.0601-1.9701-10.17-1.5901-15.33 0.7605-12.65 7.0305-25.16 17.43-32.58m-1.02 80.14c-6.88 1.14-13.14 4.97-17.56 10.31-9.9701 11.56-9.05 30.8 2.2 41.2 10.57 10.83 29.83 11.34 40.72 0.73 6.24-5.49 9.35-13.82 9.87-21.95-0.11-8.39-3.4-16.97-9.77-22.6-6.7401-6.2901-16.34-9.3602-25.46-7.6901z" fill="#8DB5AA" stroke="#8DB5AA"/>
	<path d="m1709.2 1669.3c3.89-1.25 8.0699 0.0299 11.57 1.87 7.62 3.99 13.83 10.3 18.61 17.39 2.5399 3.59 3.5699 7.9299 5.4399 11.87 7.01-2.2001 13.26-6.4 20.49-7.9301 6.47-1.23 13.57 0.24 18.77 4.4 3.25 2.6 5.53 6.78 4.8099 11.05-1.1 7.4501-7.0299 12.99-12.94 17.05-12.08 7.8199-26.12 11.81-40 15-2.87 0.5699-5.73 1.63-8.67 1.42-5.6-2.1901-9.5699-7.17-12.51-12.22-4.9099-8.8199-7.59-18.7-9.34-28.58-1.21-7.46-2.0599-15.06-1.4-22.61 0.4101-3.3797 1.7101-7.3697 5.1701-8.7097z" fill="#8DB5AA" stroke="#8DB5AA"/>
	<path d="m0 1677.4c7.03 6.6 12.89 14.83 14.74 24.47 7.97-1.38 14.56-6.5 22.14-9.01 9.89-3.8099 22-1.85 29.75 5.49 4.46 4.15 5.58 11.01 3.24 16.55-3.39 8.58-10.82 14.72-18.45 19.5-15.69 9.64-33.72 14.31-51.42 18.76v-75.76z" fill="#8DB5AA" stroke="#8DB5AA"/>
	<path d="m668.54 1834.6c4.76-1.9 9.82 0.51 13.91 2.9299 10.08 6.51 18.59 16.19 21.56 28.04 6.95-1.79 12.92-6.17 19.96-7.6801 7.27-1.74 15.41 0.16 20.89 5.3101 3.33 3.16 4.57 8.28 2.96 12.61-2.49 6.89-8.35 11.91-14.45 15.64-12.62 7.72-27.19 11.26-41.46 14.53-2.2 0.36-4.66 1.21-6.73-0.02-4.9-2.64-8.37-7.25-11.09-11.97-5.19-9.35-7.8-19.88-9.53-30.35-0.94-6.6899-1.63-13.48-1.08-20.22 0.35-3.4299 1.58-7.4098 5.06-8.8198z" fill="#8DB5AA" stroke="#8DB5AA"/>
	<path d="m1359.9 0h14.79c-4.75 1.53-10.4 3.49-14.79 0z" fill="#F1F3E8" stroke="#F1F3E8"/>
	<path d="m1714.6 0h40.93c-8.9199 3.71-18.38 5.98-27.85 7.74-5.7699 1.21-9.4799-4.26-13.08-7.74z" fill="#8EB4A8" stroke="#8EB4A8"/>
	<path d="m1913.7 134.16c1.98-1.97 4.21-3.68 6.34-5.51v7.67c-2.12-0.77-4.24-1.45-6.34-2.16z" fill="#FDEEE5" stroke="#FDEEE5"/>
	<path d="m1912 138.98c0.38-1.66 0.91-3.29 1.67-4.82 2.1 0.71 4.22 1.39 6.34 2.16v3.69c-2.6801-0.36-5.35-0.7-8.01-1.03z" fill="#C5C377" stroke="#C5C377"/>
	<path d="m1912 138.98c2.66 0.33 5.33 0.67 8.01 1.03v10.69c-3.33-3.37-7.78-6.54-8.01-11.72z" fill="#F9F2E3" stroke="#F9F2E3"/>
	<path d="m1080 255.02c5.22-3.17 12.31-3.08 17.14 0.81 7.5 6.06 10.84 16.41 9.41 25.82-1.41 9.16-6.4601 17.22-8.3301 26.26 4.78 1.39 9.8201 2.15 14.19 4.69 9.76 5.42 18.36 13.19 24.29 22.7 2.7301 4.61 5.2101 10.67 2.39 15.79-2.95 4.7-8.98 5.62-14.05 6.05-14.74 0.9-29.61-0.7-43.94-4.2-12.24-3.2-24.95-8.45-32.39-19.25-0.0599-1.82-0.11-3.63-0.01-5.45 2.2301-16.03 5.3201-32.13 11.43-47.19 4.27-10.09 10.04-20.44 19.87-26.03z" fill="#8CB4A9" stroke="#8CB4A9"/>
	<path d="m1553.4 413.36c5.76-7.78 15.52-12.51 25.22-11.94 4.5801 0.25 9.27 2.17 12.01 5.99 3.64 4.91 3.6901 11.41 2.9501 17.22-1.6801 9.81-6.67 18.66-11.98 26.93-8.25 12.16-18.47 22.81-28.88 33.12-3.52 3.85-9.37 2.32-13.87 1.56-14.67-4.07-26.5-14.48-36.96-25.1-6.4299-6.67-12.38-13.85-17.3-21.7-2.7201-4.42-5.2001-9.92-3.17-15.09 2.1-3.81 6.4301-5.74 10.54-6.51 8.77-1.65 17.78-0.24 26.32 1.94 8.2001 2.13 15.74 6.37 21.87 12.22 5.56-5.33 8.41-12.72 13.25-18.64z" fill="#8CB4A9" stroke="#8CB4A9"/>
	<path d="m313.2 1022.2c13.27-9.94 33.66-8.55 45.44 3.16 4.41 3.9401 6.94 9.37 9.46 14.61 3.71 7.6901 7.41 15.4 10.51 23.37 0.55 1.4801 1.39 2.8201 2.28 4.15 9.8-3.6899 14.34-14.33 23.43-19.11 5.11-2.8 11.15-2.14 16.73-1.72 8.26 0.63 16.46 3.98 22.25 10 7.03 7.61 11.79 17.82 10.99 28.36-0.65 12.83-8.35 24.03-17.51 32.51-4.59 3.51-10.4 5.61-14.04 10.22-0.18 0.28-0.53 0.85-0.71 1.13 9.72 6.23 21.77 7.3199 31.39 13.73 5.98 3.9301 10.78 10.17 11.72 17.41 1.27 9.0599-1.56 18.21-6.12 25.99-4.41 7.39-11.84 12.89-20.19 14.95-11.06 2.7001-23.02 0.74-32.87-4.87-5.31-2.6899-9.55-6.89-13.81-10.92-4.42 10.41-1.17 22.75-7.45 32.56-4.34 6.3301-10.79 11.08-17.63 14.43-10.03 4.8099-21.94 2.3099-31.28-2.91-9.08-4.8199-15.62-14.04-16.86-24.28-1.81-9.14 1.15-18.15 3.15-26.98 0.93-5.15 2.01-11.72-2.49-15.55-4.27-3.4501-9.98-1.4801-14.82-0.75-12.14 2.72-24.93-0.7201-35.38-7.0701-8.29-5.87-11.97-15.98-14.64-25.38-1.58-5.33-2.71-11.35-0.02-16.53 4.62-9.5399 13.27-16.45 22.23-21.73 11.63-6.53 25.47-3.3199 37.99-6.28-2.7-3.5099-5.92-6.6299-8.23-10.44-6.03-9.74-8.12-21.87-5.67-33.06 1.66-7.4901 5.88-14.5 12.15-19m47.14 74.29c-7.89 1.11-15.4 5.34-19.78 12.1-6.95 9.42-7.5 23.16-1.18 33.04 6.76 11.56 21.86 17.58 34.66 13.38 8.57-2.37 15.21-9.29 18.79-17.23 2.4-4.87 1.96-10.47 1.75-15.72-2.13-15.81-18.37-28.31-34.24-25.57z" fill="#8CB4A9" stroke="#8CB4A9"/>
	<path d="m179.29 1326.3c4.24-9.05 15.55-11.58 24.65-10.31 10.8 1.17 18.98 10.88 20.67 21.24 1.55 6.98-0.15 14.01-1.59 20.85 5.73-0.6799 10.95-3.3199 16.56-4.48 6.12-1.2799 12.16 1.37 17.17 4.6801 13.78 8.79 13.14 32.25-0.85 40.58-7.53 5.39-17.82 3.61-25.27 9.12-0.99 1.91-1.61 4.0701-1.03 6.24 2.63 5.3501 6.98 9.8501 8.41 15.77 1.77 7.42 2.44 16.11-2.51 22.51-4.04 5.2-8.81 10.43-15.03 12.94-8.74 1.8099-17.48-2.5-24.35-7.5701-7.23-5.27-8.6-14.88-14.67-21.09-2.35 4.9299-4.73 10.07-9.03 13.65-7.67 7.1-19.71 10.41-29.37 5.47-11.98-6.1901-16.7-22.94-9.47-34.38 5.3-7.74 12.06-14.32 17.86-21.66-5.95-6.03-16.27-4.7899-21.36-11.88-4.01-6.3099-6.2-14.18-4.54-21.6 2.28-9.03 9.59-16.76 18.68-19.07 7.56-1.66 15.69-0.55 22.6 2.9099 3.84 1.8301 7.07 4.78 11.15 6.13 1.51-9.97-3.24-20.52 1.32-30.05m8.1 46.28c-6.22 2.01-11.58 6.8501-13.7 13.11-2.39 5.8099-1.42 12.58 1.66 17.94 3.46 6.25 10.68 9.74 17.64 10 5.31-0.37 10.76-2.25 14.67-5.95 5.07-5.4601 7.63-13.58 5.47-20.84-1.62-4.7999-4.32-9.6-8.89-12.1-4.93-3.2598-11.26-3.7798-16.85-2.1599z" fill="#8CB4A9" stroke="#8CB4A9"/>
	<path d="m161.26 1599.3c5.15-2.3401 11.06-2.2201 16.5-1.1201 9.25 1.8501 17.61 6.54 25.38 11.72 12.68 8.5499 23.59 19.34 34.47 30 0.45 2.6699 0.91 5.36 1.13 8.09-1.08 5.58-2.88 11.07-5.68 16.05-6.56 11.6-15.72 21.54-25.67 30.32-5.84 4.88-11.71 9.84-18.37 13.59-4.05 2.1801-9.2 3.92-13.6 1.67-4.45-2.49-5.87-7.9401-6.5-12.64-1.17-11.86 1.44-23.92 6.52-34.64 1.98-4.26 5.27-7.6699 8.26-11.22-6.57-5.9401-14.98-9.34-21.48-15.35-6.78-6.1901-10.24-15.74-9.14-24.83 0.56-4.9199 3.64-9.5599 8.18-11.64z" fill="#8CB4A9" stroke="#8CB4A9"/>
	<path d="m1453.4 554.45c4.96-0.19 10.1 1.98 13.29 5.82 3.5599 5.05 5.0399 12.02 2.3899 17.81-2.09 4.29-5.7999 8-10.43 9.41-4.66 1.01-9.9301 0.72-13.86-2.23-8.6-5.09-9.78-18.46-3.02-25.51 3.1701-2.94 7.28-4.99 11.63-5.3z" fill="#F2CE87" stroke="#F2CE87"/>
	<path d="m1910.2 1379.3c2.03-4.29 6.13-6.91 9.75-9.73v38.91c-2.85-2.2999-5.98-4.36-8.11-7.37-4.66-6.1598-5.03-15-1.64-21.81z" fill="#F2CE87" stroke="#F2CE87"/>
	<path d="m0 585.36c1.61 9.79 1.44 19.74 1.89 29.63 0.59 13.32 0.56 26.66 0.51 39.99-0.14 10.59-0.38 21.26-2.4 31.69v-101.31z" fill="#C2C670" stroke="#C2C670"/>
	<path d="m1386 913.72c2.3-1.1 5.09-1.21 6.96 0.79-4.76 8.27-8.1899 17.22-12.86 25.55-12.31 24.04-25.63 47.66-41.59 69.49-2.8101 4.13-6.51 7.66-8.62 12.25 9.5699-1.45 18.65-4.97 27.72-8.22 13.65-5.04 26.14-12.6 38.91-19.45 0.1799 0.54 0.55 1.6 0.73 2.13 2.27-0.77 4.52-1.56 6.78-2.4-6.3101 4.8-13.75 7.77-20.72 11.44-18.56 8.93-37.83 16.78-58.06 20.98-4.9 1.14-10.11 1.08-14.7 3.3199-3.38-1.88-7-3.3199-10.67-4.48 5.41 0.37 10.84-0.11 16.21-0.8099 1.5901-0.3 3.4-0.4601 4.5901-1.72 11.62-11.49 20.69-25.26 28.47-39.56 6.09-10.52 11.44-21.49 18.48-31.44 4.4301-6.98 9.65-13.59 12.49-21.45 1.94-5.48 4.36-10.8 5.88-16.42z" fill="#C2C572" stroke="#C2C572"/>
	<path d="m48.36 947.25c1.18-2.67 3.43-4.57 5.5-6.51-4.86 9.53-10.29 18.76-14.63 28.55-7.61 16.44-12.49 33.98-16.48 51.6-0.54 3.13-1.85 6.96 0.99 9.4 10.29 10.81 18.62 23.28 28.58 34.38 8.58 10.09 18.34 19.46 30.04 25.85-0.93 1.25-1.93 2.46-3 3.6-6.84-5.3199-14.06-10.15-20.47-16.01-10.31-8.66-19.51-18.57-27.98-29.01-3.77-4.5399-6.67-9.75-10.71-14.06-4.78 23.01-7.04 46.47-11.56 69.53-2.48 11.76-4.18 23.79-8.64 35.02v-34.01c3.92-12.72 5.41-26.04 7.5-39.15 4.49-34.45 13.67-68.34 27.87-100.08 3.56-7.67 6.75-15.56 11.38-22.67-0.96 3.62-2.1 7.19-3.21 10.77 2.25-1.93 3.6-4.57 4.82-7.2z" fill="#C3C56F" stroke="#C3C56F"/>
	<path d="m1210.8 1006.4c17.68 9.86 36.78 17.46 56.79 20.91 3.55 0.46 7.15 0.89 10.6 1.95-3.39 2.53-7.2001 5.15-8.66 9.3301-1.66 4.6499-1.73 9.6499-2.6 14.47-17.27-17.21-36.71-32.01-56.13-46.66z" fill="#FAF2E5" stroke="#FAF2E5"/>
	<path d="m1565.8 1330.7c5.75-3.88 11.16-8.26 17.15-11.78-4.8201 5.16-10.24 9.73-14.71 15.21-10.61 12.05-19.59 25.52-26.33 40.09-0.39 0-1.17-0.02-1.5599-0.02-1.05-3.4399-2.1801-7.12-4.9801-9.55-3.71-3.23-8.46-4.7699-12.68-7.1299 5.34-4.28 11.73-6.8501 17.51-10.44 8.6699-5.2501 17.29-10.58 25.6-16.38z" fill="#FAF2E5" stroke="#FAF2E5"/>
	<path d="m344.98 1522.8c2.6 3.37 5.26 7.1901 9.42 8.73 4.47 1.5901 9.25 1.88 13.9 2.65-3.75 5.2001-8.54 9.49-12.69 14.36-6.3 7.0901-12.31 14.44-18.15 21.93-4.2 5.12-7.74 10.78-12.38 15.54 1.29-3.5701 2.92-6.9901 4.62-10.36 8.12-16.58 12.84-34.61 15.28-52.85z" fill="#FAF2E5" stroke="#FAF2E5"/>
	<path d="m1903.4 1876.2c4.52-4.6801 10.78-6.83 16.55-9.5v15.32c-5.51-1.9799-11.43-2.8599-16.55-5.8199z" fill="#FAF2E5" stroke="#FAF2E5"/>
	<path d="m1901.5 1881c6.22 1.41 12.44 2.9399 18.46 5.1v20.32c-2.71-4.9099-6.1801-9.3799-10.36-13.1-3.5701-3.4098-8.12-6.8899-8.1-12.32z" fill="#FAF2E5" stroke="#FAF2E5"/>
	<path d="m885.93 1240.1c1.42-0.83 2.87-1.63 4.35-2.35 6.87 3.26 14.32 4.9099 21.47 7.4199 34.95 11.96 68.57 27.34 102.3 42.32-3.12 0.59-6.5 1.87-6.73 5.52-12.23-6.4-24.33-13.13-37.2-18.2-18.83-7.95-38.23-14.56-56.73-23.31-6.84-3.23-14.17-5.35-21.66-6.3401-2.31-1.2199-4.23-3.0199-5.8-5.0599z" fill="#C2C570" stroke="#C2C570"/>
	<path d="m0 1249.6c4.69-0.42 10.25-1.13 13.92 2.5299 3.77 3.9301 3.01 9.9601 2.07 14.85-2.55 10.74-8.8 20.21-15.99 28.42v-45.8z" fill="#8DB4A9" stroke="#8DB4A9"/>
	<path d="m0 1323.4c6.13 9.64 6.93 22.89 0 32.36v-32.36z" fill="#8FB4A9" stroke="#8FB4A9"/>
	<path d="m305.24 1396.6c1.39-2.1801 1.55-4.77 0.83-7.2001 14.11 22.88 25.37 47.6 33.14 73.34 3.02 9.23 3.92 18.92 6.14 28.33-1.63 3.14-2.73 6.5-4.04 9.79-0.18-6.4401 0.3-13.17-1.86-19.32-3.02-4.26-7.44-7.2699-11.29-10.72-14.72-11.97-31.88-20.3-48.19-29.8-8.13-4.3301-15.23-10.26-23.14-14.94-8.42-5.36-18.18-7.89-27.23-11.91-0.58-2.1699 0.04-4.33 1.03-6.24 6.47 3.42 13.13 6.48 19.66 9.8 14.59 7.08 28.66 15.18 42.68 23.32 15.72 9.16 30.58 19.7 45.05 30.71-4.96-27.2-18.27-51.95-32.78-75.16z" fill="#C2C571" stroke="#C2C571"/>
	<path d="m1530.5 1405.7c1.9-1.58 3.79-3.1899 5.6801-4.79-0.75 5.25-2.8 10.4-2.53 15.75 1.8 5.55 5.39 10.33 8.49 15.23 11.02 16.31 25.31 29.98 38.28 44.67 7.47 8.54 13.32 18.56 22.14 25.87 4.74 3.9 9.48 7.8101 14.32 11.61-0.14 2.25-0.83 4.4701-2.45 6.11-25.06-23.86-49.34-48.74-70.08-76.51-4.3099-5.5-7.7899-11.62-12.41-16.86-1.61 7.27-1.27 14.76-1.27 22.17 0.49 22.61 5.14 44.91 11.5 66.54-1.53 0.9299-3.04 1.87-4.53 2.83-7.27-29.78-11.05-60.6-9.27-91.26 0.28-7.1699 2.39-14.17 2.13-21.36z" fill="#C2C573" stroke="#C2C573"/>
	<path d="m324.49 1577.5c9.04-20.16 13.36-42.04 16.17-63.83 1.34 3.11 2.72 6.22 4.32 9.22-2.44 18.24-7.16 36.27-15.28 52.85-1.7 3.37-3.33 6.79-4.62 10.36 4.64-4.76 8.18-10.42 12.38-15.54 5.84-7.49 11.85-14.84 18.15-21.93 4.15-4.87 8.94-9.1599 12.69-14.36 1.86 0.29 3.7 0.6801 5.49 1.29-5.33 6.4399-9.96 13.45-15.87 19.41-7.36 8.33-15.71 15.97-21.31 25.7-9.53 16.14-21.07 30.96-31.39 46.58-4.06 6.5-9.84 12.49-10.55 20.48-1.63 13.19-6.3 25.91-6.67 39.28-0.32 20.03-0.47 40.43 5.15 59.85 1.87 6.1001 6.58 10.67 10.55 15.47 5.88 6.49 11.84 13.19 19.43 17.76-0.64 2.49 1.09 4.5499 2.61 6.3199-8.28-3.1801-15.85-7.8099-22.83-13.26 6.71 18.5 16.75 35.55 26.24 52.72 17.57 30.96 36.77 61.19 50.44 94.17h-6.24c-15.8-35.82-38.03-68.19-57.23-102.17-17.17-30.14-30.05-63.18-34.01-97.82-1.38-11.6-1.81-23.31-1.39-34.99 0.33-6.01 1.02-12 1.1-18.02-9.72 17.79-18.9 35.88-27.61 54.19-17.48 35.33-21.09 75.95-16.97 114.73 2.18 28.39 10.8 55.78 13.59 84.08h-13.38c-15.42-9.1-30.23-19.33-46.42-27.06-7.93-3.7899-16.4-6.3899-25.05-7.9199 0.48-1.4301 1.02-2.8201 1.63-4.16 20.36 5.47 40.19 13.27 58.24 24.23 5.93 3.41 11.26 7.78 17.33 10.96-1.76-15.49-5.63-30.64-8.3-45.97-4.81-25.72-10.06-51.85-7.71-78.14 2.97-34.73 14.77-68.2 30.78-98.98 9.76-19.62 22.24-37.69 33.82-56.25 3.74-6.26 8.31-12.02 11.46-18.63-10.45 7.4601-20.93 15.02-32.55 20.6-9.98 4.9199-20.61 9.37-31.94 9.3199-0.22-2.73-0.68-5.42-1.13-8.09 11.98-1.8301 25.12-0.6801 35.68-7.66 14.07-8.83 26.72-19.83 37.6-32.36 5.61-6.7601 10.11-14.39 13.6-22.43z" fill="#C3C66E" stroke="#C3C66E"/>
	<path d="m689.69 1673.6c1.96 0.8 3.8 1.88 5.43 3.27 7.38 6.22 15.65 11.28 24.09 15.91 6.11 3.38 12.68 5.8199 18.81 9.15-17.42-2.92-34.56-7.7101-52.19-9.39 3-5.8301 4.47-12.4 3.86-18.94z" fill="#FAF2E4" stroke="#FAF2E4"/>
	<path d="m1050.6 1836.6c0.6899-0.0601 2.0599-0.17 2.75-0.23-0.67 2.73-1.75 5.34-3.04 7.85 0.1399-2.55 0.1999-5.0899 0.29-7.62z" fill="#F4CDA6" stroke="#F4CDA6"/>
	<path d="m1901.5 1881c0.51-1.65 1.13-3.25 1.9099-4.77 5.12 2.96 11.04 3.84 16.55 5.8199v4.05c-6.0199-2.1599-12.24-3.6898-18.46-5.0999z" fill="#C4C477" stroke="#C4C477"/>
	<path d="m1508.3 1912.4c6.89-3.26 15.18-3.8099 22.35-1.0599 4.75 1.63 8.38 5.2 11.84 8.71h-43.07c2.6801-2.8501 5.25-5.9801 8.88-7.6501z" fill="#E97E64" stroke="#E97E64"/>
</g>
</svg>
