<?xml version='1.0' encoding='utf-8'?>
<svg xmlns="http://www.w3.org/2000/svg" viewBox="0 0 841.9 595.3"><path d="m487.1 248.3-.5 4.5 6.8 10.5-10 8.3-36.1-18.2 4.3-23.4-22.9-14.2-240.7 56-1.5.3 33.7 18.7.5 48 16.5 12.1 4.5-4.8 63.5 9.3-.9 11 77-22.5-27.2-22.6 1.4-23.3 39.6-8.8-1.8 17.2 10.3 6.1 44.2-4.6 5 8.1 89.7-34zm-216 69.5-17.7 9.9-23.9-24.7 16.7-12 2.5-18.2 26.4 16zm56.7-41.1-20.4-17.4 47.6-11.5 12.1 11.5z" fill="#e5e723"/><g fill="#181715" fill-rule="evenodd"><path d="m372.8 369.4c-.5.1-.8.1-1 .2-.7.3-1.4.5-2.1.8.8.6 1.6 1.2 2.4 1.7.1.1.5 0 .5-.1.3-.7.5-1.4.7-2.1 0-.1-.4-.3-.5-.5zm6.5-10.9c-.2.2-.4.3-.5.5-.6 1.8-1.2 3.6-1.8 5.4-.1.2.1.5.2.6.6.2 1.5-.4 1.6-1 .2-1.7.6-5.3.5-5.5zm38.7-142c0-.3-.1-.6-.2-.9-.5-2-1-3.9-1.6-5.9-.7-2.4-1.5-4.7-2.2-7-.1-.2-.3-.4-.4-.6-.1.2-.4.5-.4.7-.1 1.8-.2 3.6-.1 5.3.2 3 .6 6 .9 9.1.2 1.6.2 1.6 1.8 1.1.4-.1.8-.2 1.2-.3.8-.2 1-.7 1-1.5zm-223.8 149.9c0 .2-.1.4 0 .6.1.5.3 1.1.4 1.6.5-.2 1.1-.3 1.6-.6 1.7-1 3.3-2 5-3 1.5-.9 1.5-1.2.1-2.1-1.8-1.1-3.6-2.2-5.4-3.2-.6-.3-1.2-.6-1.8-.9-.1.7-.2 1.4-.3 2.2 0 .2.1.4.1.6.1 1.6.2 3.2.3 4.8zm153.6-137.2c0 .7-.1 1.4-.1 2 0 .9.2 1.3 1.2 1 .7-.2 1.4-.4 2.1-.5 1.5-.3 1.7-.6 1.5-2-.1-.5-.2-.9-.3-1.4-.4-2.2-.8-4.3-1.1-6.5-.4-2.5-.6-5.1-1-7.6 0-.2-.2-.5-.3-.7-.1.2-.4.4-.4.6-.2.7-.5 1.4-.7 2.1-1.2 4.3-.8 8.6-.9 13zm-128.3 122c.1 0 .2 3.1.2 4.7 0 .3.1.6.2.8.3-.1.7-.2.9-.5.4-.4 5.8-4.2 6.6-6 .1-.2-.1-.7-.3-.9-2.2-2.3-4.4-4.6-6.6-6.9-.1-.1-.3-.2-.5-.3-.1.2-.2.4-.2.6-.1 2.9-.2 5.7-.3 8.5zm264.9-83c0 .3.1.6.2.9.3-.1.7-.2.9-.4 1.4-1 2.8-2.1 4.3-3.1 1.2-.8 2.4-1.5 3.6-2.3.9-.6 1-1.1.3-1.7-2.4-1.8-4.8-3.6-7.2-5.4-.5-.4-.8-.2-.9.3-.1.4-.2.8-.3 1.2-.4 2.8-1 9.8-.9 10.5zm-219.5-15.9c2.5-.7 5-1.2 7.5-1.8.4-.1.9-.3 1.3-.4-.3-.5-3.7-3.3-4.5-4.1-2.4-2.4-4.7-4.9-7-7.4-.1-.1-.3-.1-.4-.2-.1.1-.2.3-.2.4 0 .2.1.4.1.6.1 3.8 1.4 13.4 3.2 12.9zm-5.5-15.2c-.1-.4-.1-.8-.1-1.2 0-3.5-1.5-6.4-3.4-9.1-.1-.1-.3-.2-.5-.3-.1.2-.2.4-.2.5 0 1.1 0 2.2.1 3.3.4 4.1.7 8.1 1.1 12.2.2 1.9.6 3.8 1 5.7.3 1.5.8 3 1.3 4.5.2.7 1 .8 1.4.2.2-.4.4-.9.4-1.3-.2-3.2-.8-12.9-1.1-14.5zm245.7 154.3c.1-.3.1-.5.1-.8 0-3.1 0-3-3.1-3.3-.7-.1-1.5-.4-2-.9-1.7-1.6-3.3-3.2-4.8-4.9-.8-.8-1.6-1-2.5-.7-1.1.3-1.2.5-.5 1.4.4.5.8 1.1 1.2 1.7.5.8.8 1.6 1.3 2.3 1.8 2.3 3.6 4.5 5.4 6.7 1.5 1.8 2.9 3.7 4.3 5.6.2.2.5.3.7.5.1-.3.2-.6.2-.9-.1-2.3-.2-4.5-.3-6.7zm31.2-95.4v.2c.1.8.4 3.5.5 5 .2 2.9.4 5.8.6 8.6 0 .7 0 1.7.4 2.1.4.3 1.4 0 2.1.1.8.1 1.1-.4 1.2-1.1 0-.4 0-.8.1-1.3.2-5.2.4-10.5.6-15.7 0-.7 0-1.5 0-2.2s-.3-1-1.1-.8c-1 .4-2.1.5-3.2.9-.3.1-.7.6-.8.9-.3 1.1-.3 2.2-.4 3.3zm-207.7-59.8c-.3-1.2-.6-2.3-.8-3.5-.4-2.5-.7-5.1-1.1-7.6-.3-1.9-.8-3.7-1.3-5.5-.9-3.7-1.9-7.4-2.9-11.1-.1-.2-.3-.4-.5-.6 0 .2-.1.5-.1.7.2 4.1.6 8.3.7 12.4 0 5.1.3 10.2 1.8 15.1.6 1.8.6 1.9 2.4 1.6.3 0 .5-.1.8-.2.7-.1 1-.5 1-1.3zm-24.2 167.7c.1 3.4.3 6.5.3 9.6 0 .8.3 1.3 1.1 1.7 1.9.8 3.8 1.8 5.7 2.6.6.3 1.3.4 2 .6.8.2 1.2-.1.9-.9-.6-2-1.3-4.1-2.1-6.1-.8-2.1-1.5-4.2-2.4-6.2-1.4-3.1-3-6.1-4.6-9.1-.1-.2-.3-.3-.4-.4-.1.2-.2.4-.2.7 0 2.5-.1 5.1-.3 7.5zm-48.9-212.6c0-.6 0-1.2 0-1.7 0-.7-.2-.9-.8-.6-1.5.8-2.8 1.7-2.8 3.6 0 2.5-.2 5 .1 7.4.7 6 1.6 12 2.5 18.1.4 2.7 1.4 5.1 3 7.3.1.2.4.3.5.5.1-.3.2-.6.1-.8-.2-1.7-.6-3.3-.7-5-.4-5.5-.7-11.1-1-16.6-.2-4.2-.6-8.2-.9-12.2zm-36.7 105.9h.1c0-.9 0-1.9 0-2.8 0-1.1-.2-1.2-1-.6-1.1.7-2.2 1.3-3.3 2.1-.3.2-.4.7-.4 1.1-.1 3-.3 6.1-.3 9.1 0 6.2 0 12.4-.7 18.6-.1 1 2.6 3.2 3.4 3.5 1.2.5 1.5.3 1.5-1 .1-5.3.3-10.6.4-15.9.2-4.7.2-9.4.3-14.1zm343.9 17.7c.3-.1.7-.3 1-.4-.3-.3-.7-.6-1.1-.8s-.8-.1-1.2-.1c-1.2 0-2.4 0-3.6.1-3.5.1-7 .2-10.5.3-1.7 0-3.5.2-5.2.1-1.6 0-12.7.9-16 1-3 .1-13.9.5-16.3.7-2.7.2-5.4.5-8.1.8-1 .1-2 .2-3 .4-.3.1-.8.5-.8.8s.4.7.7.8c1.8.5 3.5.9 5.4.7 2-.2 4-.2 6-.3 1.5-.1 2.9-.1 4.4-.2 4.2-.3 8.3-.7 12.5-1 1.9-.1 3.8-.1 5.6-.3 3.5-.4 6.9-.9 10.4-1.3.9-.1 1.8.1 2.7 0 3.9-.3 15.3-1 17.1-1.3zm-31.9-112.7c-.2-.3-.3-.9-.5-.9-.4 0-1 .2-1.2.5-.4.6-.8 1.3-.8 2 .1 4.1-1 8.1-1.4 12.2-.4 3.5-.7 7-1.9 10.3-.3.8-.5 1.6-.6 2.4-.4 2.8-.6 5.5-1.1 8.3-.9 5.3-1.9 10.5-2.1 15.9-.1 3.2-.4 6.4-.7 9.6-.1.9-.8 2.1-.4 2.7.4.8 1.7 1.2 2.6 1.7.1.1.2.1.2.2.6.3.9.5.9-.5 0-1.6.2-3.2.3-4.9.3-3 .6-6 .8-8.9.3-5.8.6-11.6.9-17.5.1-1.8.2-3.5-.3-5.3-.2-.8.4-1.9.7-2.9.1-.3.5-.6.6-.9.4-2.3.9-4.5 1.2-6.8.3-2.1.5-4.3.9-6.4.6-3.5 1.2-7.1 1.9-10.8zm-131.2 177.2c.4-2.3.1-2.6-2.3-2.4-.5 0-1.1.1-1.6 0-3-.4-6-.5-9 0-.7.1-1.6-.2-2.2-.6-1.2-.8-2.2-2-3.4-2.8-1.8-1.3-3.3-2.5-2.4-5.1 0-.1-.5-.6-.6-.6-1.2.4-2.5.6-2.7 2.2-.1.9-.4 1.8-.7 2.8-.2 1 .2 1.6 1 2.1 1.9 1.2 3.6 2.5 5.5 3.6 2.8 1.7 5.8 3.2 8.7 4.7 1.2.7 2.5 1.3 3.8 1.9 1.4.7 2.7 1.3 4.2 1.8 1.3.4 1.7 0 1.8-1.3 0-2.1-.1-4.2-.1-6.3zm79.2-207v.2c-.3 0-.5-.1-.8-.1-.3.1-.7.2-.7.4-.1.2.2.5.3.8.1.2.3.2.5.4 3 1.7 6.1 3.3 9.1 5s5.9 3.4 8.8 5.1c2 1.2 3.8 2.6 5.9 3.6 3 1.5 6.2 2.6 9.2 4 2.5 1.2 4.9 2.7 7.5 3.7 2.3.9 4.4 2 6.3 3.5.3.2.8.5 1.1.5 1.2-.2 2.5-.5 3.7-.8.3-.1.5-.3.7-.5-.2-.1-.4-.3-.6-.4-3.2-1.6-6.3-3.3-9.6-4.8-5.6-2.6-11.1-5.3-16.3-8.4-2.2-1.3-4.4-2.4-6.6-3.6-1.8-1-3.6-2-5.5-3-1.4-.7-2.8-1.4-4.2-2.1-1.7-.8-3.3-1.7-5.1-2.5-1.2-.6-2.5-.7-3.7-1zm15.1 197c-.1 1.2-.1 2.3-.1 3.5.1 2.2.8 4.2 2.3 5.8.2.3.6.4.9.6 0-.3.1-.6.1-.9-.1-3.2-.2-6.4-.3-9.6 0-1.9.2-3.8.2-5.6 0-4 0-8 0-12.1.1-5.5.2-11 .4-16.5.1-3.1 0-6.3.5-9.4.3-2.2-.7-3.7-1.9-5.2-.2-.3-.7-.4-1-.6-.1.3-.3.7-.3 1-.2 3.8-.5 7.7-.6 11.5-.2 4.5-.2 8.9-.3 13.4 0 .6.1.8.7 1 1.1.3 1.3.8 1 1.8-.2.6-.6 1.2-.9 1.8-.5 1.1-1.2 2.2-1.3 3.3-.2 1.9-.2 3.8-.1 5.7.2 3.4.5 7 .7 10.5zm-331.2-117.9c-.3 2.8.1 5.3 2.6 7.2.9.7 1.7 1.5 2.6 2.2.3.2.7.3 1.1.5 0-.4.2-.8.1-1.2-.6-3.4-1.3-6.7-1.9-10-.5-3.1-.8-6.1-1.1-9.2-.5-4.5-1-9.1-1.5-13.6-.3-2.3-.7-4.6-1-6.8s-.5-4.4-.9-6.5c-.1-.5-.5-1.2-.9-1.2-.9-.1-1.9 0-2.9.2-.1 0-.1.6-.1 1 0 .6.1 1.1.2 1.7.1 1.6.2 3.1.3 4.7.5 4.1 1 8.2 1.5 12.3.3 2.7.5 5.3.7 8 .1.6.3 1.3.4 1.9.3-.5.6-1.1.9-1.6.4-.6.7-1.4 1.5-.9.4.2.3 1.2.4 1.8 0 .2-.1.4-.2.6-1.3 2.6-2.2 5.6-1.8 8.9zm263.4 63.7s15.2-1 22.5-2.5l.9-.3c.7-.3.6-.8 0-1-1.2-.4-2.4-.9-3.6-1-1.7-.1-3.4.1-5.1.3-5.9.4-11.9.7-17.8 1.2-1 .1-2 .5-3 .7-3.5.5-7.1.8-10.6 1.3-4.2.6-8.3 1.3-12.4 2.1-2.7.5-5.5 1-8.2 1.5-.1 0-.3.1-.4.1.1.2.2.4.3.5 1.3.7 2.6 1.3 3.9 1.9.3.1.8 0 1.1-.1 1.5-.6 3-.8 4.6-.9 2.7-.1 5.4-.5 8.1-.9 3.8-.6 7.7-1.3 11.5-1.8 2.6-.6 5.4-.8 8.2-1.1zm-207.8 19.1s-.2-1.3-.1-1.9c.1-.9-.2-1.3-1.1-1.6-1.2-.4-2.3-1-3.3-1.7-.8-.5-1.1-.5-1.2.5-.4 2.9-1 5.8-1.2 8.7-.3 5.3-.4 10.6-.6 15.9-.1 2.7 0 5.3.1 8 0 .3.4.8.7 1 1.3.5 4.6-.6 5.3-1.9.1-.2.2-.5.3-.7.1-1.3.3-2.5.3-3.8.1-3.9 0-7.8.1-11.7.2-3.6.4-7.2.7-10.8zm73.7 24.3c.7-.2 1.6-.2 2.4-.6 1.7-.7 3.4-1.4 5-2.3.6-.3 1-.8 1.5-1.2-.6-.2-1.2-.4-1.9-.5-2.3-.2-4.6-.2-6.9-.4-1-.1-1.9-.4-2.9-.6-1.8-.4-3.6-.7-5.4-1.1-1.2-.2-2.5-.6-3.7-.7-2.6-.3-5.3-.6-7.9-.9-3.2-.4-6.4-.8-9.7-1.1-1.2-.1-2.5 0-3.8-.1-1.6-.1-3.1-.1-4.7-.3-1.9-.2-3.9-.7-5.8-.7-2.4 0-4.8.3-7.2.5-.3 0-.5.2-.8.3.2.2.5.6.7.7 2.8.6 5.5 1.3 8.3 1.8 3.4.6 6.9 1.2 10.4 1.8 4 .6 8.1 1.2 12.1 1.7 6.1.8 12.2 1.6 18.1 3.3.7.3 1.4.3 2.2.4zm-137.8-104c-.2.1-.5.2-.7.4-1.1 1-2.2 1.9-3.2 2.9-.8.8-.7 1.5.3 2 1.5.8 3 1.7 4.5 2.4 2.5 1.1 5 2.1 7.5 3.2 3.3 1.5 6.6 3.1 9.8 4.7 2.2 1.1 4.4 2.5 6.6 3.7 3.6 1.9 7.2 3.8 10.7 5.6 1.8.9 3.5 1.8 5.3 2.7 1.1.6 2.2 1 3.2 1.6 1.5.9 2.9 1.9 4.4 2.7 2.7 1.3 5.5 2.4 7.7 4.6.3.3.8.4 1.3.6.7.3 1.4.6 2.1 1 .9.5 1.3.1 1.9-.5.7-.7.3-1.1-.2-1.6-.3-.2-.6-.4-.9-.6-1.9-1.1-3.8-2.1-5.6-3.2-1.5-.9-2.9-1.9-4.4-2.8-.9-.5-1.9-.9-2.8-1.4-2.4-1.3-4.8-2.8-7.3-4.1-3.1-1.6-6.2-3-9.3-4.5-1.8-.9-3.4-2.2-5.2-2.9-2.1-.9-3.8-2.4-5.6-3.8-1.8-1.3-3.5-2.8-5.4-4.1-3.1-2.1-6.8-3.3-9.5-5.9 0 0-.1-.1-.1-.1-1.2-.8-2.4-1.5-3.6-2.3-.5.1-1-.1-1.5-.3zm232.5 93.1c.6 1.4-2.9 2.7-3.8 3.8-.4.6-.8 1.4-.9 2.1-.3 2.8-.6 5.5-.7 8.3-.1 1.6.1 3.3-.1 4.9-.2 2 .5 3.7 1.8 5.2 1.4 1.6 1.4 1.6 2.1-.5.1-.3.2-.6.3-.9.4-3.2.8-6.3 1.2-9.5.3-2.4.5-4.8.9-7.2.6-3.7 1.1-7.3 1.8-11 .9-5 2.2-18.7 2.5-19.9-.2-.5-.2-1.2-.5-1.4-.9-.7-4.5-2.2-5.1-2.8-.7-.7-1-.5-1.2.4-.1.3-.1.6-.1.9-.3 4-.6 7.9-.9 11.9-.5 4.9-.1 10-1.4 14.9-.2.6 0 1.2 0 1.8.5-.3 1.8-1.3 2-1.4-.2 0 1.5-1 2.1.4zm-4.9-14.2c.1-.4.1-.7.1-1.1-.1-.5-.2-1-.3-1.5-.5.2-.9.3-1.4.6-1 .5-1.9 1.2-2.9 1.6-.8.4-1.8 0-2-.7-.3-.8.4-1.1.9-1.4 1.5-.9 3-1.7 4.5-2.5.9-.5 1.5-1.1 1.5-2.2.2-2.9.4-5.8.6-8.8.1-.9.4-1.4 1.4-1.5 1.3-.1 2.6-.4 3.8-.6 2.7-.5 5.3-1 8-1.5.8-.1 1.6-.2 2.3-.4.3-.1.6-.3.9-.5-.2-.2-.3-.5-.5-.7-.9-.7-1.9-1.2-2.6-2-1-1-1.9-.8-3-.2-2.4 1.1-4.9 2.2-7.3 3.3-3.2 1.4-6.6 2.5-9.8 4-4.6 2.2-9.2 4.7-13.7 7-1.2.6-1.3 1.3-.2 2.1 2.6 2 5.2 3.9 7.9 5.7 2.5 1.7 5.2 3.2 7.8 4.7.9.5 1.8 1.1 2.7 1.6.5.3.9.4 1-.4.1-1.5.2-3 .3-4.6zm11-41.5c0-1.4-.5-1.6-1.8-1.2-1.4.4-2.8.6-4.1.9-2.4.6-17.7 4.9-17.9 5-4.1 1.1-8.2 2.3-12.3 3.4-.8.2-1.2.6-1.2 1.4 0 1.1.1 2.3.1 3.5 0 2.5 0 4.9.1 7.4.1 2.1.4 4.3.6 6.4.1 1.3.4 2.6.5 3.9.1.8.6 1 1.2.9 1.3-.3 2.7-.6 3.9-1.2 3.2-1.6 6.4-3.4 9.6-5 2.6-1.3 5.4-2.4 8-3.5 2.1-.9 4.2-1.7 6.2-2.6 2.1-.9 4.2-1.9 6.3-2.8.9-.4 1.2-1 1.2-2 .1-2.6-.3-12.1-.4-14.5zm-105.4 141.3c-1.2 0-2.1-.1-3 0-1.2.1-1.5.6-1.6 1.8v2.3c.2 3.2 0 11.8 0 12.3s.1 1.3.4 1.4c.5.1 1.1-.1 1.5-.4.7-.5 1.3-1.3 2-1.8 2.2-1.7 4.5-3.2 6.7-5 2.9-2.4 5.8-4.9 8.7-7.3 4.4-3.7 8.9-7.3 13.4-11 1.2-1 .9-3.4-.4-4.1-1.1-.6-2.3-1-3.5-1.5-1.9-.9-4.2-.9-5.9-2.4-.5-.5-.7-.1-.7.5s.1 1.1.2 1.7c.2 2.7.4 5.3.5 8 0 .5-.2 1.2-.5 1.5-1.9 1.8-4.2 2.9-6.6 3.9-.4.2-.9.3-1.4.3-1.4 0-2.7.1-4.1 0-2.1 0-4.1-.1-5.7-.2zm69.6-258.4c0-.8 0-2 0-3.2 0-3.5-.2-3.7-3.3-5.2 0 0-.1 0-.1-.1-1.4-.6-2.3-.1-2.4 1.4-.2 3.7-.4 7.3-.3 11 .3 6.2.7 12.5.5 18.7 0 .9.2 1.9.3 2.8 0 .1.1.3.2.4.2-.1.4-.2.5-.3.5-1.1 1.1-2.3 1.5-3.4.3-.7.5-1.3 1.4-1 .7.3 1.1 1.1.7 1.8-1 2.1-2.2 4.1-3.2 6.1-.3.6-.6 1.3-.7 1.9-.1 1.8-.2 3.7.1 5.5.5 4.6 1.2 9.2 1.9 13.7.2 1.6.8 3.2 1.2 4.7.2.7.6.9 1.3.7 1.5-.3 3-.5 4.5-.8 1.2-.2 1.5-.8 1.3-2.1-.2-1.5-.5-3-.7-4.5-.2-1.7-.4-3.3-.6-5-.6-3.9-1.3-7.7-1.8-11.6-.3-3-.3-6.1-.5-9.1-.2-3.6-.5-7.2-.8-10.8-.4-3.5-.7-7.4-1-11.6zm-59.9 243.7c.2 1.7.6 3.3.9 5 .3 1.4.5 2.8.8 4.2.2.9.8 1.5 1.6 1.4 1.5-.2 2.7-.7 2.6-2.5-.1-2-.2-4.1-.3-6.1-.1-5.3-.2-10.5-.2-15.8 0-3.2.3-6.4.3-9.6 0-1.9.1-3.8-1.6-5.5-1.1-1-1.6-2.8-2.2-4.3-.1-.2.1-.7.3-.9.1-.1.6 0 .8.2.4.4.8.9 1 1.4.4.8.8 1.6 1.2 2.4.1.2.3.2.4.4 0-.2.1-.4.1-.6-.2-3.7-.4-7.3-.5-11 0-3.6.1-7.2.2-10.9.1-2.7.2-5.5.3-8.2 0-1.2-.2-1.4-1.3-1-1.2.4-2.2 1.2-3.4 1.5-2.2.6-2.5 2.4-2.6 4.2-.2 2.5-.1 5-.2 7.5-.1 2.6-.5 5.1-.5 7.7 0 3.5.3 6.9.5 10.4 0 .7.1 1.4.1 2 0 2.8-.1 5.6 0 8.4.3 3.9 1.3 17.1 1.7 19.7zm242.6-193.4c0-1-.2-1.9-1.3-2.4-2.4-1.1-4.7-2.3-7-3.5-.9-.4-1.3-.2-1.5.9-.3 2.4-.6 4.8-1 7.2-.5 2.5-.6 4.9.5 7.2.1.3.1.6.2.9.5 1.7.9 3.5 1.4 5.2.9 3.1 1.9 6.2 2.6 9.4.6 2.9.8 5.9 1.3 8.9.2 1.3.5 2.7.7 4 .1.6.1 1.4-.7 1.5-.6.1-1.3-.2-1.8-.6-.3-.3-.4-.9-.4-1.5-.1-2.3-.1-4.7-.4-7-.2-2.2-.5-4.5-1-6.7-.8-3.5-1.8-6.9-2.7-10.3 0-.2-.2-.3-.3-.5-.1.2-.3.4-.3.6-.2 3.5-.4 7-.6 10.5-.2 2.4-.4 4.8-.5 7.2-.2 2.3-.2 4.6-.4 6.9-.1 1.7.6 3.4-.3 5.1-.1.2.2.7.4.8 2.6 1.6 5.2 3.2 7.8 4.8 1.5.9 2 .7 2.2-1.1.3-2.4.4-4.8.5-7.2.3-4.8.5-9.5.9-14.3.3-4.2.7-8.5 1.1-12.7 0-.6.1-1.1.2-1.7.1-3.1.4-10.8.4-11.6zm-19.6 88.3 14.1-.9c.8 0 1.2-.4 1.3-1.1 0-1.1-.1-2.2-.2-3.3-.1-1.5-.9-11.1-1.3-14.4-.1-.9-.6-1.1-1.4-.9-2.3.7-4.6 1.4-6.9 2.1-7 2.1-14 4.3-21.1 6.4-1.8.6-1.8.5-1.6 2.5.2 1.9.4 3.8.4 5.7 0 1.2.1 2.2.4 3.4.4 1.1 1 1.3 1.9 1.2 4.9-.4 14.4-.9 14.4-.7zm-71-61.5c-.1 1 .4 1.6 1.3 2 .4.2 6.6 3.7 9.2 5.3 2.1 1.3 4.3 2.2 6.5 3.4 3.6 1.9 7.2 3.9 10.8 5.8 1 .5 2 1 3 1.4 1.6.6 2 .3 2.2-1.5.3-3.2.6-6.5 1-9.7.2-2.1.5-4.2.9-6.2.5-2.7 1-5.3 1.5-8 .2-.8-.1-1.3-.9-1.6-1.1-.4-2.1-.9-3.2-1.4-2.1-1-4.1-2.2-6.1-3.2-1.9-1-3.7-1.9-5.6-2.9-1.5-.8-3-1.7-4.6-2.4-1.2-.6-2.5-1.1-3.6-1.7-2.6-1.4-5.2-2.8-7.7-4.2-.9-.5-1.3-.5-1.5.6-.4 1.7-.9 3.5-1.1 5.2-.4 3.5-.5 7-.8 10.5-.1.8 0 1.6-.1 2.3-.4 2-.8 4.2-1.2 6.3zm-55 122.7v-.1h4.3c1.7-.1 2.2-.6 1.9-2.3-.6-4-.2-8.1 0-12.1.2-3.6.5-7.2.7-10.8.1-1 .7-1.7 1.8-1.8 2.1-.2 4.3-.3 6.4-.7 4.9-1 9.7-2.2 14.5-3.4 2.4-.6 4.9-1.2 7.3-1.8 5-1.3 10-2.6 15-3.8 1.7-.4 1.7-.3 1.9-2 .3-3.4.4-6.7.7-10.1.3-2.9.9-5.8 1.4-8.7.3-1.7 0-2.2-1.6-2.1-1.9.1-3.9.3-5.8.4-4.6.4-9.2.7-13.8 1-2.8.2-5.7.2-8.5.6-2.7.3-5.3.9-7.9 1.3-3.7.5-7.4.9-11 1.5-1.7.3-3.5.6-5.2 1.1-1.5.5-2.8 1.5-3 3.4-.3 2.7-.8 5.3-.8 8-.1 4.8-.8 9.4-1.5 14.1-.5 3.6-1.3 7.2-1.9 10.9-.4 2.4-.6 4.8-.9 7.2-.3 2.8-.5 5.5-.8 8.3-.1.9.1 1.3 1 1.4 2 .2 3.9.3 5.8.5zm7.4 10.8h.2c0 .4-.1.8-.1 1.3-.1 1.5.3 1.6 1.7 1.2 3.1-.9 6.1-1.8 9.2-2.7 4.5-1.3 9-2.5 13.4-4 3.3-1.1 6.7-1.9 10.2-2.5 3.5-.7 6.9-1.6 10.4-2.5 2.8-.7 5.5-1.7 8.3-2.3 1.1-.2 1.4-.7 1.3-1.7-.1-1.7-.3-3.4-.3-5-.1-4.2 0-8.3 0-12.5 0-1.9 0-3.9.1-5.8.1-3.1.2-6.2.3-9.3 0-1.5-.2-1.7-1.7-1.4-2.7.4-5.4 1-8.1 1.6-3.6.9-7.2 1.8-10.8 2.8-2.7.7-5.4 1.4-8 2.1-2 .5-4.1 1.1-6.1 1.5-3.9.9-7.9 1.8-11.8 2.7-1.3.3-2.7.5-4 .7-1.7.2-2.2.7-2.4 2.5-.2 1.9-.6 21.3-.7 23.5-.4 3.4-.8 6.6-1.1 9.8zm103.9-24.3c-.1-2.7-.1-5.5-.1-8.2 0-1.4.5-1.8 1.9-1.8 1 0 2.1.1 3.1-.1 5.4-.7 10.7-1.5 16.1-2 4.3-.4 8.6-.5 12.9-.8.6 0 1.2.1 1.7 0l11.1-.9c3.3-.2 6.6-.3 9.9-.6 1.9-.1 1.9-.2 2.1-2.1 0-.2 0-.3.1-.5 1.3-3.4.7-7.1 1-10.6.3-3.6.4-7.2.6-10.8.1-1.3.3-2.5.3-3.8s-.4-1.6-1.6-1.6c-1.9 0-3.9-.2-5.8-.1-3 .1-6 .2-8.9.3-2.6.1-5.2.2-7.7.4-4.3.4-8.6 1-13 1.4-2.5.2-4.9.4-7.4.6-3.9.3-7.8.5-11.8.7-2.8.2-5.5.5-8.3.8-1.1.1-1.7.8-1.7 2.1 0 .6.1 1.2 0 1.7-.3 3.6-.7 7.2-.8 10.8-.2 7.8-.3 15.6-.2 23.3.1 7.2.4 14.4.6 21.6.1 2.3 1.9 3.6 4.5 3.4.9-.1 1.3-.4 1.3-1.4-.1-1.7-.2-3.5-.2-5.2.1-5.3.2-11 .3-16.6zm-226.5 52.7c0-1.9 0-3.9 0-5.8 0-1.3-.6-2.2-1.7-2.8-1.5-.8-3-1.7-4.5-2.6-2.3-1.3-4.7-2.6-7.1-3.7-3.7-1.8-7.7-3-10.8-5.9-.1-.1-.4-.2-.6-.3-1.9-1-3.9-2-5.8-3-1.3-.7-2.4-1.5-3.7-2-3.3-1.5-6.7-2.9-10.1-4.4-.6-.3-.9-.2-1 .4-.1.4-.2.7-.2 1.1-.1 2.7-.1 5.3-.2 8 0 2.8.2 5.6.1 8.4-.2 3.7-.6 7.3-.8 11-.1 2.7-.2 5.4-.1 8.1.1 3.3.4 6.6.8 9.9 0 .4.5 1 .8 1.2 1.6.9 3.4 1.5 4.9 2.6 3.3 2.3 7.1 3.7 10.6 5.5 2.6 1.3 5.3 2.3 8 3.3 4.4 1.8 8.6 3.9 13.1 5.3 2.7.8 5.2 2.2 7.8 3.3.5.2 1.1.2 1.6.3.1-.6.2-1.2.2-1.8 0-.5.1-8.9-.1-12.6-.2-4.1-.8-8.2-1-12.4-.1-4-.1-11.1-.2-11.1zm-129.8-72.6c-.1 0-.1 0-.2 0 0 .3-.1.5-.1.8-.2 2.4.7 4.2 2.9 5.2 1.4.7 2.9 1.5 4.3 2.2 3.6 2 7.2 4 10.9 6 3.2 1.7 6.3 3.5 9.5 5.2 1.1.6 2 1.4 3.2 1.7 3.7 1.3 11.1 4.5 11.3 4.6.3.2.6.4.9.5.1-.4.2-.8.2-1.2-.1-3.1-.2-6.2-.2-9.3 0-4.2.2-8.4.2-12.6 0-2.2-.2-4.4-.2-6.6.1-6.4.3-12.7.5-19.1 0-.4-.1-1-.3-1.1-1.4-1-2.9-2.1-4.4-3-3.7-2-7.4-4-11.1-6-2.9-1.5-5.7-3.2-8.6-4.5-4.8-2.1-9.7-4-14.6-5.9-1.5-.6-3.1-1-4.6-1.4-1.3-.4-1.5-.1-1.5 1.2 0 2.9.2 5.9.1 8.8-.3 5.2 0 10.3.6 15.4.2 2.1.5 4.3.7 6.4.1 4.5.3 8.6.5 12.7zm142.7 89.9c1.3-.1 2.4-.4 3.4-.4.9 0 1.2-.3 1-1.2-1.2-5.8-1.4-11.7-1.9-17.5-.3-3.5-.3-7-.5-10.5-.1-2.8-.3-5.6-.4-8.3-.1-3.4 0-6.8-.2-10.2-.2-2.5-.1-5 0-7.5.2-3.2.4-6.5.5-9.7 0-1.5-.4-3-.6-4.5-.1-.8-.7-1.1-1.6-1.2-1.9-.2-3.8-.6-5.8-.9-3-.6-6.1-1.3-9.1-1.7-3.7-.5-7.5-.7-11.2-1.3-4.2-.7-8.4-1.6-12.7-2.4-4.2-.8-8.4-1.5-12.6-2.3-.6-.1-1 0-1.1.7-.4 3.4-.9 6.9-1.2 10.3-.3 3.8-.3 7.6-.4 11.3-.1 2.3-.3 4.6-.4 6.9 0 .4.1.9.4 1.1 2.1 1.3 4.2 3 6.5 3.7 2.7.8 5 2.3 7.3 3.5 3.8 2 7.5 4.3 11.2 6.4 0 0 .1.1.1.1 3.8 1.6 7.5 3.2 11.1 5.3 2 1.2 4.1 2.2 6.1 3.3 1.2.6 1.6 1.7 1.6 3-.1 1.7-.2 3.4-.3 5.2-.1 2-.2 4.1-.2 6.1.1 1.9.4 3.9.5 5.8.2 1.6.3 3.2.4 4.9 0 .6.1 1 .8 1.1 3.4.2 6.4.6 9.3.9zm-97.8-81.5c-.1 1.5-.1 2.9 0 4.4 0 .4.1.9.3 1.2 1.6 1.4 3.2 2.9 5 4.1 1.3.9 6.6 3.8 7.2 4.3.9.7 1.4.2 1.5-.7.2-2.3.3-4.6.4-6.9s0-4.6.1-6.9c.2-4.7.5-9.3.9-14 .2-2.4.2-4.9.8-7.2.8-3.1 1-6.3 1.3-9.5.4-4.4.2-8.8.5-13.2.2-3.1.1-6.1-.4-9.1-.1-.6-.4-1.2-.8-1.6-1.3-1.1-2.7-2.2-4.1-3.1-2.1-1.3-4.4-2.5-6.5-3.7-1.8-1-3.5-2.1-5.3-3-1.9-1-3.9-2-5.9-3.1-2.3-1.3-4.5-2.8-6.8-4-3.9-2.1-7.8-4.2-11.7-6.2-2.2-1.2-4.4-2.5-6.7-3.5-4.4-2-9-3.9-13.4-5.8-1-.4-1.2-.3-1.2.8-.1 1.5-.1 2.9 0 4.4.4 4.9.9 9.8 1.4 14.7.4 4.2.7 8.5.9 12.7.1 1 .4 1.5 1.4 1.9 4.5 1.8 8.9 3.7 13.4 5.6 2.3 1 4.6 1.9 6.8 3s4.3 2.2 6.4 3.4c2.5 1.4 4.9 2.7 7.6 3.8 2.3.9 4.3 2.4 6.5 3.6.8.4 1.2.8 1.1 1.8-.3 2.5-.5 5.1-.7 7.7-.1 1.6-.2 3.1-.2 4.7-.1 2.5-.3 5-.2 7.5 0 3.8.2 7.8.4 11.9zm166.4-182.3c-.7-.3-1.1 0-1.2.7-.1 1.6-.4 3.2-.3 4.9.2 4.5.6 9 .9 13.5.2 3.3.4 6.6.6 9.9.1 1.2.2 2.4.3 3.6.1 2.3.1 4.6.4 6.9.4 3.4 1.3 6.8 1.5 10.3.3 3.8 1.8 7.2 2.2 10.9.1.7.5 1.1 1.3.9 1.7-.4 3.4-.7 5.1-1 1.9-.3 3.8-.5 5.6-.8 3.4-.6 6.8-1.4 10.2-2h.2c2.6-.5 5.2-1 7.7-1.6 1.9-.5 3.7-1.3 5.7-1.8 2.8-.7 5.7-1.2 8.6-1.8.8-.2 1.7-.2 2.2-.7.3-.2-.2-1.2-.2-1.9-.1-3-.3-6.1-.3-9.1-.1-3.3 0-6.6 0-9.9 0-3.8.5-7.6.9-11.5.7-5.8 1.1-11.6 1.6-17.4.1-1.3-.1-1.6-1.5-1.6-2.5-.1-5.1 0-7.6-.1-4-.2-8-.5-11.9-.6-3-.1-6.1-.1-9.1 0-4.5.1-8.9.5-13.4.6-3.1-.1-6.3-.3-9.5-.4zm165.7 37.1c-.2-.6-.1-1.6-.6-2.1-2.2-2.3-4.9-3.8-7.9-5-1.8-.7-3.5-1.5-5.2-2.3-3.2-1.5-6.5-3-9.6-4.6-2.4-1.2-4.8-2.4-7.1-3.7-2.2-1.3-4.3-3-6.5-4.3-3.9-2.3-8-4.4-12-6.6-.3-.2-.6-.4-.9-.6-.5-.4-.8-.1-.9.4-.3 1.2-.6 2.3-.8 3.5-.8 4.4-1.4 8.8-2.5 13.1-1.3 5.4-2 10.8-2.6 16.3-.3 2.7-.5 5.4-.8 8.1-.4 3.8-.9 7.6-1.3 11.4-.1 1.1-.4 2.4.7 3.3s2.3 1.7 3.5 2.3c2.3 1.3 4.6 2.4 6.9 3.6 1 .5 2 1.2 3 1.7 1.5.6 3.1 1 4.6 1.6s2.2 1.5 2 3c-.1.8 0 2.6 0 2.6s12.2 8.4 13.2 8.8c2.2 1 3.9 2.7 6.2 3.6 3 1.1 5.7 3 8.5 4.6 1.5.9 1.9.9 2.1-.9.5-2.7.7-5.5 1-8.3.3-2.9.3-5.8.7-8.6.3-2.6.9-5.2 1.4-7.8.6-3.8 1-7.6 2-11.3.6-2.2.8-4.5 1.1-6.8s.6-4.6.8-6.9c.4-2.5.7-5.1 1-8.1zm-10.7 200.8c.9-.1 2.1-.1 3.3-.3 2.6-.4 5.1-1 7.7-1.4 3.6-.6 7.1-1.2 10.7-1.7 3.7-.5 7.4-1 11.1-1.4 2-.2 4-.1 5.9-.3 1.8-.1 3.6-.5 5.5-.6 3.4-.2 6.9-.5 10.3-1 1-.1 1.3-.5 1.2-1.4-.2-2.7-.4-5.4-.5-8-.2-4.6-.5-9.1-.6-13.7 0-3.8.1-7.7.4-11.5.3-4.3.7-8.6 1.2-12.8.3-2.4.9-3.1-2.7-2.7-3.9.4-7.7.7-11.6.9-2.7.2-5.4.2-8.2.4-4.1.2-8.3.6-12.4.8-2.1.1-4.3 0-6.4.2-2.2.1-4.4.3-6.6.6-2.5.3-5.1.7-7.6 1.1-2.2.3-4.3.8-6.5 1.1-2 .3-2.4.7-2.5 2.8 0 .4-.1.8-.1 1.3v8 12.2c.1 7 .2 14.1.3 21.1 0 1.2.2 2.5.7 3.5 1.2 2.1 2.9 3.4 5.6 3 .5-.3 1-.2 1.8-.2zm-195.9-204.9c-.1-1.2-.2-2.4-.4-3.6-.4-3.1-.9-6.2-1.3-9.4-.3-3.3-.5-6.7-.8-10.1-.1-1.7-.6-2-2.2-1.7-4.3.8-8.6 1.5-12.9 2.4-4 .8-8 1.9-12 2.8-2 .5-4.1.9-6.2 1.2-3.9.7-7.9 1.4-11.8 2.1-2.4.4-4.9.8-7.3 1.3-1.7.4-3.5.8-5.1 1.4-.7.3-1.5 1-1.7 1.7-.4 1.2-.5 2.5-.5 3.7 0 2.3.3 4.6.4 6.9.1 2.1.2 4.3.4 6.4.3 3.5.6 7 .9 10.5.1 1.2.1 2.4.2 3.6.2 2.7.5 5.4.8 8.2.1 1.1.4 2.3.8 3.4.7 2.2 1.8 4.3 3.3 6.2 1.2 1.5 2.3 3.1 3.7 4.4 2.9 2.6 6.1 4.9 9.2 7.4.3.2.8.2 1.2.1 5.2-1.1 10.5-2.2 15.6-3.5 4.1-1 8.1-2.4 12.3-3.5 3.2-.9 6.5-1.5 9.8-2.2 1.5-.3 3-.5 4.5-.9 1.9-.5 2.2-1.2 1.7-3.1-.4-1.4-.7-2.7-.9-4.1-.3-2.9-.5-5.8-.7-8.8-.2-2.7-.3-5.4-.4-8.2-.1-1.7.1-3.4 0-5-.2-3.2-.7-9.6-.6-9.6zm-88.3 6.3c-.3-2.9-.6-5.7-.9-8.6-.2-1.7-.4-2-2-1.6-5.5 1.1-11 2.3-16.5 3.5-4.2.9-8.4 1.8-12.6 2.8-5.1 1.2-10.2 2.6-15.3 3.9-2.6.7-5.2 1.3-7.8 2.1-3.3 1.1-6.5 2.3-9.8 3.4-.9.3-1.1.7-1.1 1.6.2 2.4.3 4.7.4 7.1.1 1.8.3 3.5.6 5.3.8 6 1.7 12 2.3 18 .6 5.9 1.7 11.7 3.1 17.4.2.9.8 1.7 1.4 2.4 1 1.1 2.2 1.9 3.3 2.9.7.6 1.2 1.3 2 1.8 2.3 1.3 4.7 2.5 7.1 3.7.3.1.8.1 1.1-.1.9-.4 12.7-4.1 14.4-4.6 2.8-.7 5.6-1.4 8.3-2.4 4.8-1.7 9.7-2.7 14.6-4 3.3-.8 6.6-1.7 9.9-2.7 2.3-.7 2.8-1.6 2.4-4-.3-2.4-.7-4.9-1-7.3-.6-4.6-1.3-9.3-1.8-13.9s-.8-9.2-1.2-13.8c-.3-3.7-.9-12.2-.9-12.9zm169.7 17.3c-2.2.6-4.4 1.3-6.7 1.8-3.1.7-6.2 1.2-9.3 1.8-4.3.8-8.6 1.6-12.9 2.3-3.3.6-6.7.9-10 1.6-4.6.9-9.2 2.1-13.8 3.1-2.7.6-5.4 1.2-8.1 1.9-1.9.5-3.7 1-5.6 1.5-2.2.5-4.4 1-6.6 1.5-3.8.9-7.6 2.1-11.5 2.6-5.6.8-11 2.4-16.4 4-3.7 1.1-7.4 2-11.1 2.9-2.9.7-5.8 1.3-8.8 2-1 .2-1.2.8-.3 1.3 2 1.3 4.1 2.6 6.2 3.6 1 .4 1.4.9 1.5 1.8.1 1.1-.2 1.3-1.2.9s-2-.9-2.9-1.5c-2.3-1.5-4.5-3.1-6.7-4.6-.4-.3-1.1-.5-1.6-.4-1.8.3-3.5.7-5.2 1.1-5 1.1-9.9 2.2-14.9 3.3-3.3.7-6.6 1.1-9.9 1.8-3.4.7-6.8 1.6-10.3 2.4-2.4.6-4.8 1.1-7.2 1.7-4.7 1.2-9.3 2.4-14 3.7-3.5 1-7 2.1-10.6 3.1-3.1.9-6.2 1.8-9.3 2.8-1 .3-2 .8-3 1.2-.3.1-.5.5-.8.7.3.3.6.6.9.8 4.6 1.9 8.8 4.4 13.1 6.8 1.3.8 2.8 1.1 4 2 3.9 2.8 8.1 5 12.3 7.2.8.4 1 .9 1 1.7-.1 1.8-.3 3.7-.3 5.5-.1 3.8-.2 7.7-.3 11.5-.1 3.6-.3 7.1-.5 10.7 0 0 .1 5.1.1 7.6 0 .5.2 1.3.6 1.5.9.5 1.9.9 3 1 5.3.7 10.5 1.3 15.8 1 1.4-.1 2.8-.5 4.1-.9 1-.3 1.8.1 2 1.1s-.2 1.6-1.1 1.8c-1.4.3-2.9.5-4.3.5-1.4.1-2.7-.2-4.1-.2-5-.1-10 0-14.8-1.3-.8-.2-1.2-.1-1.2.8 0 1.5-.1 3.1 0 4.6 0 .4.3.9.6 1.2 1.7 1.8 3.4 3.5 5.1 5.3.4.4.7.9 1.2 1.3 2.1 1.9 4.3 3.7 6.4 5.5.7.6 1.4 1 2.2 1.5.4.2.8.3 1.2.5.1-.5.2-1 .4-1.5 0-.2 0-.3 0-.5-.1-2.8 1.7-4.7 4.5-4.8h2.5c3.4.1 6.8.1 10.2.3 4.6.3 9.2.7 13.8 1 .6 0 1.2.1 1.7.2 2.1.3 4.2.7 6.4 1 1.3.2 2.6.3 3.9.5 2.1.4 4.1.9 6.2 1.1 2.4.2 4.7.6 6.9 1.3 1 .3 2 .5 3.1.5 2.6.1 5.2.6 7.7 1.3 1.1.3 1.4.8 1 2-.2.7-.4 1.4-.5 2.1-.2 3.7-.4 7.3-.5 11 0 1.3.2 1.5 1.5 1 .9-.3 1.8-.7 2.7-.9 2-.5 4.1-.9 6.1-1.5 2.5-.8 4.9-1.8 7.4-2.7 2.9-1 5.8-1.9 8.5-3.1 4.8-2 9.6-4.3 14.4-6.4 2.9-1.3 6-2.4 8.9-3.5 2.2-.9 4.4-1.9 6.7-2.7 1.9-.7 3.9-1.2 5.9-1.8 4.2-1.3 8.4-2.6 12.6-4 .5-.2 1-.5 1.5-.8-.4-.4-.7-.9-1.1-1.3-.2-.2-.4-.3-.7-.4-2.6-1.6-5.3-3.2-7.9-4.9-1.1-.7-2.2-1.6-3.3-2.4-3.6-2.4-7.2-4.8-10.7-7.2-1.7-1.2-2.9-2.7-2.7-4.9.1-1 0-2.1-.1-3.2-.2-4.1-.4-8.2-.6-12.3-.1-1.8.2-3.7.3-5.5.1-1.4.4-2 1.8-2.4 2.4-.6 4.9-1.3 7.3-1.9 2.3-.6 4.8-1 7-1.8 4.7-1.7 9.6-2.4 14.3-3.8 2.8-.8 5.6-1.7 8.4-2.8 1.8-.7 2.5-.5 2.5 1.5.1 1.9 0 3.8.1 5.6.2 3.7.4 7.3.6 11 0 .3.1.8.3 1 .9 1.1 1.7 2.2 2.7 3.1 1.9 1.6 3.9 2.9 6.8 2.4 4.8-.8 9.6-1.3 14.4-1.8 5.1-.6 10.2-1 15.4-1.5 2.7-.3 5.4-.5 8.1-.8.7-.1 1.3-.4 2-.5.8-.1 1.7-.2 2.4.1 1.6.7 3 1.6 4.5 2.5 1.1.6 1.2 1.3.9 2.6-.2.7-.4 1.3-.5 2-.1.3.1.7.2 1 .3-.1.6-.2.8-.3 1.8-.7 3.5-1.6 5.4-2.2 2.9-1 5.8-1.8 8.7-2.8 2.7-.8 5.3-1.7 8-2.6 3.7-1.2 7.4-2.2 11.1-3.4 2.6-.9 5.2-1.9 7.9-2.7 5.1-1.5 10.2-2.9 15.3-4.3 2.2-.6 4.4-1.2 6.5-1.9 3.3-1 6.5-2 9.8-3 3.9-1.2 7.8-2.3 11.8-3.5 2.8-.8 5.5-1.7 8.3-2.5.4-.1.9-.4 1.1-.8.1-.3-.3-.8-.7-1.1-1.3-1-2.8-1.9-4.1-3-1.6-1.3-3.3-2.6-5.2-3.6-1.7-.9-3.2-2-4.8-3-2.9-1.8-5.8-3.7-8.7-5.4-2.7-1.5-5.5-2.9-8.2-4.4-3.4-1.8-6.7-3.6-10.1-5.5-1.3-.7-2.7-1.3-4.1-2.1-1.2-.7-2.4-1.5-3.6-2.2-3.8-2-7.2-4.5-10.1-7.7-.5-.5-.7-.4-.8.2-.3 1.2-.6 2.4-.8 3.5-.1.3.1.8.3 1 1.4 1.4 2.9 2.7 4.4 4 1.9 1.6 3.9 3.2 5.9 4.7.6.5.5 1 0 1.4-1 .9-2.1 1.8-3.2 2.6-.7.5-1.5.9-2.2 1.5-2.4 1.9-4.8 3.8-7 5.8-1.1 1-2.2 1-3.3.5-1.7-.8-3.4-1.8-5.1-2.7-3-1.7-5.9-3.4-8.9-5-2.5-1.4-5.1-2.7-7.6-4.1-3.6-2-7.2-4-10.9-6-1-.5-1.4-1.2-1.2-2.2.4-2 1.2-15.3 1.5-19.6.1-1.9-.1-3.2-2.2-4.2-3.4-1.8-6.4-4.1-9.6-6.2-.5-.3-1-.5-1.5-.7-1.9-.5-3.5-1.5-5.1-2.7-1.2-.9-2.4-1.6-3.7-2.4-.2-.1-.6 0-.8.1-1.7.6-3.3 1.3-5 1.8-2.8.8-5.7 1.4-8.5 2.1zm-166.7 243.5c-.3-5.2-.6-10.4-.8-15.6-.1-4.3 0-8.6-.1-12.9 0-1.6.1-3.4-1.7-4.5-.5-.3-.6-1.3-.6-1.9-.1-.9.1-1.8-.1-2.6-.8-3.7-.9-7.5-.8-11.3 0-1.6.1-3.2.2-4.7.1-5.7.2-11.5.3-17.2.1-2.8.4-5.6.3-8.4-.1-2.6-.5-5.2-.7-7.8 0-.6.3-1.5.7-1.7.5-.3 1.4-.1 2 .1.5.2.9.7 1.3 1.1.7.5 1.1.5 1.2-.5.1-2.5.4-5 .5-7.6.1-2.9.1-5.9.2-8.8 0-1.9.2-3.8.1-5.7 0-.6-.3-1.3-.6-1.7-1.3-1.3-2.6-2.6-4-3.8-.4-.3-.9-.8-1.3-.1-.7 1.2-1.9 1.4-2.9 2.1-.9.6-1.8 1.1-2.6 1.7-1.5 1.1-2.9 2.3-4.4 3.3-1 .7-1.1 1.6-1.2 2.6-.2 2.1-.3 2.1-2.5 2.4-1 .1-1.9.5-2.9.9-1.2.4-2.3.9-3.5 1.4-1.6.6-3 .7-4.5-.4-.4-.3-1.3-.4-1.7-.2-2.8 1.6-5.4 3.4-8.1 5.1-1 .7-1.4 1.5-1.3 2.8.4 5 .6 10 1 14.9.2 2.4.7 4.8 1.1 7.2.3 1.8.5 3.6.8 5.5v.3c0 .8.1 1.8-1 2.1-.7.2-1.5-.9-1.5-2.1-.1-1.4.1-2.8-.1-4.1-.5-3.8-1.2-7.6-1.7-11.4-.3-2.7-.5-5.4-.7-8.2-.2-2.4-.5-4.7-.7-7.1-.1-.6-.2-.9-.9-.9-.6 0-1.3-.4-1.9-.6-.3-.1-.6-.4-1-.5-1.4-.7-2.8-1.5-4.3-2.2-2.2-1-4.5-2-6.7-3-1.2-.6-2.3-1.2-3.4-1.9-2.6-1.6-5.1-3.3-7.7-4.9-1.4-.9-1.7-.7-1.8.9-.3 3.2 0 6.4 1.3 9.4.1.3.1 1-.1 1.2-.3.2-1 .2-1.2-.1-.4-.3-.8-.9-.8-1.4-.4-3.2-.9-6.3-1-9.5-.1-2.1-1.1-3.1-2.6-3.9-2.9-1.5-5.9-2.9-8.9-4.4-1.1-.5-1.4-.4-1.4.9-.1 1.1.1 2.3.1 3.5 0 2.7-.1 5.4 0 8 .2 5.5.6 10.9.9 16.4.1 2.1.2 4.2.3 6.3 0 .3.1.6-.1.8-.2.4-.5.9-.9 1-.3.1-.9-.3-1.1-.6-.3-.4-.5-1-.5-1.6.2-6.1-.2-12.1-.8-18.1-.1-.9-.1-1.9-.1-2.8 0-4.4.1-8.8 0-13.2-.1-5.4-.1-10.8-.3-16.2-.2-3.5-.7-7-1-10.5-.4-5.5-.9-11.1-.6-16.7.2-3.4-.2-6.8-.4-10.2 0-.3-.1-.6-.1-.9 0-1.1.4-1.4 1.5-1.1.6.2 1.2.6 1.8.9.9.5 1.3.4 1.3-.7 0-2.7.1-5.3-.1-8-.4-5.5-1-11-1.4-16.5-.2-2.9-.4-5.9-.6-8.8 0-.3-.2-.6-.3-.9-.3-1.1-.2-2.1.7-2.9 1.5-1.4 2.9-2.7 4.4-4 1.8-1.7 2.5-1.6 4.2.2.8.8 1.8 1.4 2.8 1.9.7.4 1 0 1.1-.7.2-4.7.3-9.3-.4-14-.7-4.8-.9-9.7-1.5-14.6-.3-3.1-.8-6.1-1.3-9.2-.2-1.7-.6-3.4-.8-5.1-.1-1 .6-1.7 1.7-1.5 1.3.2 2.6.4 3.9.6.6.1 1.2.1 1.9 0 5.1-.8 9.8-2.8 14.6-4.3 4.3-1.4 8.6-2.6 13-3.7 5.2-1.3 10.5-2.2 15.7-3.4 3.4-.8 6.7-1.9 10-2.7 3.5-.8 7.1-1.4 10.7-2 .6-.1 1.2-.3 1.8-.5 1.9-.6 2.6-.1 2.8 1.8.1 1.4.2 2.8.3 4.2.5 6.8 1 13.5 1.6 20.3.2 2.8.5 5.6 1.2 8.3.7 2.5 2 4.9 3 7.3.5 1.1 1.1 2.3 1.6 3.4l3 6c1.1 2.2 2.3 4.5 3.5 6.7.3.6.6 1.2-.2 1.8-.9.5-1.3.5-1.8-.4-.6-1.2-1.1-2.6-1.7-3.8-1.7-3.6-3.5-7.3-5.3-10.9-.5-.9-.8-1.9-1.2-2.9-.1-.1-.2-.2-.3-.3 0 .1-.1.3-.1.4.5 3.8.9 7.6 1.4 11.4.4 2.9.8 5.7 1.2 8.6.3 1.6.3 1.6 1.9 1.3 4.7-1 9.4-2.1 14.2-3.1.8-.2 1.1-.4.9-1.2-.5-3.6-1.1-7.3-1.6-10.9-.3-2.2-.5-4.5-.6-6.7-.2-3.5-.4-7-.6-10.5-.1-2.5-.3-5-.5-7.6-.3-3.4-.7-6.9-1.1-10.3-.5-4.2-1.1-8.4-1.5-12.7-.1-1.4.1-2.8.4-4.2.1-.5.7-.9 1.1-1.2 1.5-1 3.2-1.9 4.7-2.9 2.2-1.4 4.7-1.4 7.1-1.9 1.8-.4 3.7-.5 5.6-.8 3.1-.6 6.2-1.1 9.3-1.8 2.2-.6 4.5-.7 6.8-1.1 5.5-.9 10.9-2.4 16.4-3.6 1.1-.2 2.2-.2 3.3-.5 3.5-1.1 7.2-1.5 10.8-2.2.5-.1.9-.1 1.4-.2 1-.1 1.7.4 1.8 1.3.3 2.3.7 4.7.9 7 .5 5.2 1 10.5 1.6 15.7.1 1.1.7 2.2 1 3.3 1 3.5 2 7.1 2.8 10.7 1.3 5.9 3.3 11.6 4 17.6.2 2.1.6 4.1 1.1 6.2.4 1.6.6 1.6 2.1 1.1 4-1.1 8-2.1 12-3.3.4-.1.9-.6 1.1-1 .3-.8.4-1.6.4-2.5.3-4.3.3-8.7 1-13 .5-3.4 1.6-6.7 2.6-10.1.5-1.6.6-3.1.4-4.8-.2-2-.1-4-.1-6 0-2.4-.1-4.7-.1-7.1-.1-2.4-.2-4.7-.3-7.1-.1-2.7-.3-5.5-.3-8.2 0-2.8.3-5.7.5-8.5.1-1.5 1.5-2.4 2.7-1.6 2.7 1.6 5.6 1.6 8.6 1.7 2.9.1 5.7.2 8.6.3 4.5.2 9-.4 13.5-.6 1.5-.1 3 0 4.6 0h8.5c2.6.1 5.2.4 7.9.4 3.3.1 6.6.1 9.9.1 1.8 0 2.4.7 2.2 2.5-.5 4.8-.8 9.5-1.3 14.3-.2 2.5-.4 5-.9 7.5-.5 2.6 0 5.1.7 7.5 1.1 3.8 2.5 7.6 3.8 11.4.6 1.9 1.1 3.8 1.6 5.8.7 2.9 1.1 3.1 3.8 2 .1-.1.3-.1.4-.2 2.6-1.8 4.8-.6 7 1 1.5 1.1 2.9 2.3 4.6 3 2.3.9 4.2 2.4 6.2 3.7 2.3 1.4 4.8 2.7 7.1 4 .6.4 1 .1 1.2-.5s.4-1.3.6-2c.5-1.6 1.9-2.1 3.3-1.2 2.5 1.6 5.1 3.3 7.6 4.9 0 0 .1.1.1.1.8.3 1.7.8 2.5.7 1.2-.1.8-1.4 1-2.2.5-3.4 1-6.8 1.4-10.3.1-.8.2-1.7.3-2.5 0-.2-.1-.5-.2-.7-.2.1-.6.2-.7.5-.8 1.4-2 2.5-3.4 3.2-1 .5-2.1.9-3.1.9-1.5 0-2.9-.3-4.3-.6-.6-.1-1.2-.5-1.6-.9-1.3-1.4-2.7-2.8-3.9-4.3-1.8-2.4-3.6-4.9-5.2-7.5-.9-1.4-1.3-3.1-1.9-4.6-.2-.5-.5-1.1-.6-1.6-.1-.6-.2-1.3.1-1.8.2-.4.9-.9 1.3-.8s.9.8.8 1.3c-.2 2.4.7 4.5 2 6.3 2.5 3.5 5.2 6.8 7.8 10.3 1.9 2.5 6.1 2.1 8.4.8 2.2-1.2 3.1-3.4 4-5.5 1.4-3.2 1.9-6.6 2.3-10.1.3-2.4 1-4.8 1.4-7.3.6-3 1.3-6.1 1.8-9.1.4-2.4.6-4.8.9-7.2.1-1 .1-2 0-3 0-.6.1-1.1.7-1.4 1.5-.7 3-1.4 4.4-2.1.8-.4 1.6-.3 2.4.1 1.4.8 3 1.3 4.4 2 1.1.5 2.1 1.2 3.1 1.7 1.6.9 3.3 1.8 4.9 2.7 1.8 1 3.5 2 5.3 3 .4.2.8.5 1.2.7 4.6 2.4 9.2 4.9 13.9 7.3.7.3 1.3.6 2 .9 3.2 1.3 6.2 2.7 9.2 4.4 2.5 1.4 5.3 2.5 7.9 3.8.4.2.9.8 1 1.3.1.8.1 1.7-.1 2.5-.5 3.2-1 6.3-1.6 9.5-.3 1.7-.7 3.4-1.1 5.1-.2.9-.1 1.4.8 1.9 3 1.5 5.9 3.4 9.4 3.9 1 .2 1.4.9 1.4 1.8-.1 1.7-.2 3.4-.3 5-.2 3.5-.5 6.9-.7 10.4-.4 6.1-.9 12.2-1.3 18.2-.3 5.4-.5 10.8-.8 16.2 0 .5.1 1 .2 1.5.1.6.3 1.3.3 1.9 0 .8.2 1.4.9 1.9 3 2.1 6 4.3 8.9 6.4 1.8 1.3 1.8 2.8-.1 4-.5.3-1.1.5-1.7.6-.7.2-1.4.3-2.2.5-.9.2-1.3.8-1.4 1.8-.2 4.3-.4 8.5-.6 12.8-.1 1.8-.1 3.7 0 5.5.1 2.1.5 2.5 2.5 2.5 4.1 0 8.2-.3 12.3-.3 2.2 0 4.4.1 6.6.3.4 0 .9.5 1.2.8.8 1 1.5 2 2.1 3.1.3.6.6 1.3.5 1.9-.3 2.6-.8 5.2-1 7.8-.2 2.1-.1 4.3-.1 6.4v7.4c0 2.2-.2 4.3-.3 6.4 0 .6.2.8.7.7 1.4-.2 2.7-.4 4-.6.5-.1 1.1-.2 1.5-.1 1.1.2 1.6 1 1.2 2.1-1.5 5.2-2 10.5-2.3 15.9-.2 3.9-.1 7.8-.1 11.7.1 4.1-.1 8.3.4 12.4.9 8.3 1.1 16.7 1.2 25v11.8c0 3.2.2 6.4.3 9.6 0 .7.5 1.3.5 2s-.3 1.4-.7 1.9c-.2.2-1.1.1-1.5-.1-.3-.2-.6-.9-.6-1.3-.1-7.5-.2-14.9-.3-22.4-.1-3.7-.2-7.4-.3-11.2 0-1.7-.3-2-2-1.9-5.3.3-10.7.7-16 1-3.7.2-7.3.3-11 .7-2.4.2-4.8.8-7.1 1.2-1.9.3-3.8.3-5.6.7-1.9.3-3.9.9-5.8 1.3-1.5.3-3.1.6-4.6.8-2.3.3-4.7.5-7 .6-1 .1-2.1-.1-3.1-.2-.6-.1-.9 0-.8.7.3 7.2.6 14.5 1 21.7.1 2 .5 4.1.8 6.1.1.9.1 1.8 0 2.7 0 .3-.5.8-.8.8-.2 0-.8-.4-.8-.7-.3-1.3-.5-2.6-.6-3.8-.1-.7 0-1.5-.1-2.2-.2-2.9-.6-5.7-.8-8.6-.3-4.5-.5-8.9-.7-13.4 0-.8 0-1.7 0-2.5 0-2.3-.5-4.4-2.2-6.2s-3.1-3.9-4.6-6c-.9-1.1-1.6-2.3-2.5-3.4-1.9-2.5-3.7-5.1-5.6-7.6-.2-.2-.5-.3-.7-.5-.1.3-.3.5-.3.8-.2 3.4-.5 6.8-.6 10.2 0 6.5.1 12.9.2 19.4 0 1.8 0 3.7.1 5.5.1.9.4 1.7.5 2.6.1.5.2 1.2 0 1.7s-.7 1.1-1.1 1.1c-.7-.1-1.6-.3-1.8-1.3 0-.2 0-.3 0-.5 0-6.8.1-13.6.1-20.3 0-3.9-.1-7.9-.1-11.8 0-1.9.3-3.9.3-5.8 0-1.6-.1-3.1-.3-4.7-.2-1.7 0-1.9 1.6-2 2.1-.1 2.5-.6 2.4-2.7-.2-2.7-.2-5.5-.3-8.2-.1-2.4-.2-4.8-.3-7.3 0-.5 0-.9-.1-1.4 0-.2-.2-.3-.4-.4-.1.1-.2.2-.3.4-1 3.4-2.2 6.7-2.9 10.1-1 4.5-1.6 9-2.3 13.5-.2 1.1 0 2.2 0 3.3 0 .5.1 1 0 1.4-.2.5-.7 1.3-1.1 1.3-.8.1-1.3-.7-1.3-1.5 0-1.4 0-2.9.1-4.3.7-6.2 1.6-12.4 3.4-18.4.9-3.1 2.1-6.1 3.4-9 1.4-3.2 1.8-6.4 1.9-9.8.2-6.5.3-13 .8-19.5.2-3.1.4-6.3.3-9.4 0-.3.3-.9.7-1 .6-.3 1.3-.5 1.9-.6 1.7-.4 3.5-.7 5.2-1 .4-.1.8 0 .8-.7.1-2.6.3-5.2.4-7.9 0-.8-.1-1.7-.2-2.5 0-.3-.2-.7-.3-.7-.8-.1-1.7-.2-2.4 0s-1.8.3-1.7 1.5c.1.6.1 1.2.2 1.7.2 1.5-.4 2.8-1.7 3.6-1.8 1.1-3.7 2.2-5.5 3.3-.6.4-1 .2-1.3-.4-.5-.9-.2-2 .8-2.5 1.3-.7 2.7-1.4 4-2.2 1.3-.7 1.4-1.9 1.1-3.1-.1-.6-.3-.8-1-.6-1.5.6-3 1.1-4.6 1.7-2.6.9-5.2 1.8-7.9 2.7s-5.4 1.7-8.1 2.5c-4.9 1.5-9.7 3-14.5 4.7-2.1.7-4 2-6 3.1-.4.2-.8.8-.9 1.3-1 4.8-1.4 9.7-1.3 14.6 0 1.7.4 2 2 1.6 1.5-.4 3-.8 4.5-1.3.9-.3 1.4-.1 1.6.8.1.5.2.9.2 1.4-.2 2.4-.5 4.7-.6 7-.1 3.1-.2 6.3-.2 9.4v5.8c.1 3.9 0 7.9.5 11.8.7 5.6.5 11.2.7 16.8.2 3 .4 6.1.6 9.1.2 4.2.4 8.5.5 12.7.1 2.3.1 4.6.2 6.9 0 .8.1 1.7-1.1 1.7-1 0-1.7-.8-1.7-1.9.1-4 .2-8 .1-12-.1-4.6-.6-9.2-.8-13.8-.1-2.5 0-4.9-.1-7.4 0-2-.2-4-.3-6 0-1-.5-1.4-1.5-1.2-2 .4-4.1.9-6.1 1.4-2.9.7-5.7 1.4-8.6 2-2.5.6-5 1-7.6 1.6-1.5.3-2.9.8-4.4 1.2-1 .2-1.4.8-1.5 1.8-.2 4.5-.7 9 .2 13.5.1.5.3 1 .4 1.5.1.4.3.7.3 1.1.1.8-.2 1.5-1 1.7s-1.3-.4-1.4-1.2c-.2-1.6-.5-3.1-.5-4.7 0-3.6.1-7.2.1-10.9 0-1.3-.4-1.7-1.7-1.4-1.8.4-3.5 1-5.3 1.5-2.7.8-5.3 1.6-7.9 2.5-1.7.6-3.4 1.4-5 2.2-.3.1-.6.3-.9.3-1.7.5-2.2 1-2.1 2.8.6 9 1.2 17.9 1.7 26.9.1 1 0 2 .1 3 0 .8.6 4.5.4 5.3-.1.7-.1 1.5-1.1 1.4-.9-.1-1.3-.6-1.3-1.6 0-1.9.1-3.9 0-5.8-.2-3.8-.6-7.5-.8-11.3-.3-4.9-.5-9.8-.7-14.6-.1-1.4-.1-2.8-.3-4.2s-1.3-2.2-2.5-2.9c-1.8-1-3.7-1.9-5.5-2.9-2.9-1.5-5.8-3-8.7-4.5-1.4-.7-1.5-.6-1.4 1 0 1.4-.1 2.7-.1 4.1 0 1.7.2 3.5.3 5.2.1 1 .1 1.9-1 2.2-1 .3-1.5-.3-2-1.1-.5-.7-1.1-1.3-1.7-1.8-.6-.6-1.2-1.2-.6-2 .5-.8 1.2-.9 2-.3.1.1.7-.2.7-.4 0-2.7.1-5.5 0-8.2 0-.4-.2-.9-.5-1.1-1.3-.9-2.6-1.7-3.9-2.6-.6-.4-.9-.2-1 .4-.2 1-.4 2-.4 3 0 3.7.1 7.4 0 11 0 .6-.3 1.3-.6 1.8-.1.1-.9 0-1.2-.2-.7-.4-.8-.9-.7-1.7.2-1.9.4-3.7.4-5.6.1-3.1.2-6.2.3-9.3.1-1.7 0-1.8-1.5-2.5-.5-.2-.9-.5-1.4-.8-.8-.5-1.1-.4-1.2.6-.1 1.1-.2 2.3-.3 3.4-.2 1.8-.5 3.7-.5 5.5 0 2.7.1 5.4.3 8 .2 4.6.4 9.1.7 13.7.2 2.7 0 5.4.9 8.1.5 1.7-.4 2.8-1.7 2.3-.8-.3-1.7-1.4-1.4-2.2.6-1.7.1-3.3.1-5 0-3.9-.2-7.9-.3-11.8s-.4-7.8-.4-11.7c0-3.6.2-7.2.3-10.9 0-.9-.1-1.8.1-2.6s.7-1.5 1-2.3c.4-1 5-1.2 6.4-1.8.7-.3 1-1.3 1.4-2.1.3-.6.5-1.4.8-2 .7-1.7 1.3-3.4 2.1-5.1.5-1.2 1.2-2.3 1.8-3.5.3-.7.7-1.4.8-2.2.2-1.7.3-3.5.5-5.2.1-.8 0-1.2-1-1-3.1.8-6.1 1.4-9.2 2.3-3 .9-6 2-8.9 3-3.4 1.2-6.6 2.7-10 3.7-4.5 1.4-8.7 3.3-12.9 5.2-3.8 1.7-7.6 3.5-11.5 5.1-1.7.7-3.7.9-5.4 1.5-4.6 1.6-9.2 3.4-13.9 5.1-.4.2-.9.3-1.4.4-2 .4-2.4.9-2.3 2.9.1 1.9.2 3.8.3 5.7.1 2.4.4 4.8.2 7.2-.2 2.7.9 4.8 2.2 6.9 2.6 4.1 4.8 8.4 6.4 12.9.3.7.4 1.5.8 2.2 1.5 2.5 2 5.3 3 7.9.4 1.1 1 2 2.3 2.4.9.2 1.8.7 2.6 1.1s1 .8.4 1.4c-1.3 1.2-2.6 2.4-3.9 3.6-.9.8-2 1.5-2.6 2.5-.5 1-.7 2.4-.6 3.6.2 5.9.5 11.8.7 17.8.2 6.1.5 12.3-.1 18.4-.1 1.4.2 2.9.3 4.4 0 .7.1 1.4-.1 2-.1.4-.6.9-.9.9-.4 0-1-.4-1.1-.7-.2-.8-.3-1.6-.3-2.5.1-6.6.3-13.1.2-19.7-.1-6.3-.5-12.6-.8-18.9 0-.8 0-1.6 0-2.4 0-.2-.1-.4-.2-.6-.2.1-.4.1-.5.2-2.4 1.9-4.9 3.8-7.3 5.7-3.1 2.5-6.2 5.2-9.3 7.7-2.2 1.7-4.5 3.3-6.7 5-1.3 1-2.5 2.1-3.6 3.3-.5.5-.8 1.4-.8 2.1.1 3.5.3 6.9.4 10.4.2 4.4.3 8.7.6 13.1.2 3.5.6 7 .9 10.5 0 .3.1.7-.1.9-.3.4-2.3.5-2.3.1-.2-1.2 0-2.4 0-3.5-.1-2.6-.2-5.2-.3-7.8-.1-2.7-.2-5.5-.3-8.2-.2-4.3-.5-8.6-.9-12.9-.1-1.7-1-2.9-2.9-3.5-2.1-.7-4.1-1.8-6.2-2.7-.3-.1-.7-.3-1-.4-.4-.1-.8-.2-1.2-.3.1.4.1.9.1 1.3 0 2.4.1 4.8.1 7.2 0 .8-.1 1.7 0 2.5.1 1.3-.3 2.1-1.3 2.1s-1.7-.9-1.6-2.1c.1-1 .4-2.1.6-3.1.4-2.4-1.1-9.5-1.9-9.8-5.5-2.3-11.1-4.4-16.6-6.8-4.7-2.1-9.2-4.4-13.8-6.7-1.2-.6-1.4-.6-1.4.8 0 3.6.1 7.1.1 10.7.1 3.6.2 7.1.3 10.7.1 3.7.2 7.3.4 11 0 .8.4 1.5.4 2.3 0 .9 0 1.8-.2 2.6-.1.4-.9 1-1.2.9-.5-.1-.9-.7-1.2-1.2-.2-.3-.1-.8-.1-1.2 0-1.5 0-3.1 0-4.6.9 1 .9 1 1 1z"/><path d="m629.4 322.5c-.6-.6-1.1-1.2-1.7-1.8-.5-.5-1.1-.9-2-.6-.5.2-1.1 0-1.6.1-1.5.3-3.1.7-4.6 1.1-.9.3-1 .7-.4 1.5.3.4.7.8.8 1.3.2.8.6.8 1.3.6 2.5-.7 5-1.3 7.5-2 .3 0 .5-.1.7-.2zm-1 13c-.6 0-1.3 0-1.9 0-.8 0-1.1.5-.7 1.2.7 1.2 1.3 2.4 2 3.5.3.5.7.7 1.5.5 2.9-.8 5.8-1.4 8.7-2.1 2.1-.5 4.3-.8 6.3-2 1.2-.7 1.3-.7.2-1.7-.4-.4-.9-.7-1.3-1.2-.8-.9-1.7-1.3-2.9-.8-.8.3-1.7.5-2.6.7-3.1 1.1-6.2 1.8-9.3 1.9zm-28.5 20.6c.1 0-.2 4.5-.5 6.7-.1 1.1-.3 2.3-.3 3.4 0 .3.5.9.5.9.9-.4 2.2-.6 2.7-1.4.9-1.4 1.5-2.9 1.4-4.7-.2-2.3-.1-4.6-.1-6.9.1-4 .2-8.1.3-12.1 0-.6-.1-1.2-.2-1.7-.2-.6-1.7-1.5-2.3-1.4-.9.2-.7 1-.7 1.6-.4 5.2-.6 10.4-.8 15.6zm25.1-22.7c1.5-.1 2.7-.1 3.9-.3 3-.5 6-1.1 9-1.7 1.3-.3 1.3-.6.3-1.5-1.5-1.4-3.1-2.7-4.5-4.1-.5-.5-1-.9-1.8-.7-1.1.2-2.1.5-3.2.7-1 .2-1.9.5-2.9.7-1.3.3-2.6.6-3.9 1-.7.2-.9.6-.4 1.3.6 1 1.1 2 1.5 3.1s.9 1.9 2 1.5zm50.4-12.5c0-.2 0-.4 0-.6 0-.3 0-.6 0-.9-.3.2-.7.2-.9.5-1.4 1.3-2.9 2.5-4.7 3.1-.9.3-1 1-1 1.8-.1 2.9-.2 5.8-.3 8.7-.2 4.9-.5 9.7-.7 14.6-.1 2.4-.1 2.4 2.3 2.4.2 0 .4.1.6.1 1.6 0 2.7-.9 2.7-2.2.1-2.3.2-4.6.3-6.9.1-1.7.1-3.4.3-5.2.4-5.2 1-10.3 1.4-15.4zm1.5-29.3c0-1.2.1-2.2 0-3.1-.1-.5-.6-1.2-1-1.4-1.4-.5-3.3.3-4.2 1.5-.9 1.3-1.2 2.8-1.3 4.3-.2 2.1-.2 4.3-.4 6.4-.3 3.1-.6 6.1-.9 9.2-.2 1.7-.4 3.3-.4 5 0 2.2 0 4.4.1 6.6 0 .2.6.5.7.4 1.2-.7 2.5-1.4 3.1-2.8.9-1.9.9-1.9 2.6-.7.1.1.5-.1.5-.2.2-2.6.4-5.1.4-7.7.1-3.2 0-6.5.1-9.7.3-2.6.6-5.3.7-7.8zm-5.2-6.7c.4-.1.8-.2 1.1-.3 1.3-.4 1.4-.8.3-1.6-2-1.7-3.8-3.5-5.6-5.5-2.6-2.8-5.5-5.3-8.3-7.9-3-2.8-6.1-5.6-9.1-8.5-2.7-2.6-5.9-4.7-8.3-7.7-2-2.5-4.4-4.8-6.6-7.1-1.3-1.4-2.7-2.7-4.2-4-2.1-1.8-4-1.8-6.3-.2-.4.3-.5.5-.1 1 2.9 2.9 5.8 5.8 8.8 8.7 2.1 2.1 4.1 4.3 6.7 6 .6.4 1.3.8 1.8 1.3 1.8 2 3.4 4.1 5.7 5.7 2.2 1.6 4.2 3.6 6.3 5.5s4.2 3.7 6.4 5.6c1.7 1.4 3.4 2.8 5.1 4.2l5.4 4.5c.2.1.6.2.9.3zm-5.3 43.1s.1 0 0 0c0-.4 0-.8 0-1.3 0-2.1-.2-2.2-2.2-1.5-3.6 1.3-7.2 2.5-10.9 3.8-2.7.9-5.5 1.8-8.3 2.6-.7.2-1 .4-.2 1.1 1.6 1.5 3.5 2.6 4.9 4.3 1.4 1.6 3 3 4.7 4.4 2.9 2.5 5.8 4.9 8.7 7.3.5.4 1.1.7 1.7 1 .2-.7.5-1.4.5-2.1.5-6.5.8-13 1.1-19.6zm-49.6-42.4c0-.6 0-1.3 0-1.9 0-1-.4-1-1-.4-1.6 1.4-3.2 2.8-4.7 4.3-2.6 2.5-4.9 5.2-6.4 8.5-.3.6-.8 1.1-1.1 1.7-1.3 2.3-2.6 4.5-3.8 6.9-.4.8-.2 1.7.3 2.5 1.5 2.5 3.9 4.1 6 5.9 2 1.8 4.2 3.4 6.3 5 .7.5 1.6 1.1 2.3 1 2.4-.2 4.7-.7 7.1-1.1.4-.1.7-.4 1-.7-.2-.3-.4-.7-.7-1-1.2-1.1-2.4-2.3-3.7-3.4-.7-.6-1.7-1.1-2.4-1.7-.4-.4-.7-1-.8-1.5-.1-1 .2-2 .2-3 .2-3.8.4-7.5.7-11.3.3-3.2.8-9.8.7-9.8zm72.4 28.3c.1-2.6 0-3.2-1.3-4.7-.6-.7-1.3-1.3-2-1.8-2.1-1.4-4.2-2.8-6.3-4.2-.8-.5-1.1-.4-1.2.6-.1 1.2-.2 2.4-.3 3.6-.1 1.6-.1 3.2-.2 4.7-.3 3.8-.7 7.5-1 11.3-.3 3.5-.5 7-.7 10.5 0 .4.1 1 .3 1.3 2.1 2.2 4.2 4.3 6.3 6.5 1.4 1.4 2.9 2.7 4.4 4 .6.6 1 .2 1.1-.4.2-.8.1-1.7.2-2.5.8-3.9.3-7.8.4-11.8.4-5.6.3-11.3.3-17.1zm-69.8 19.3c1 0 1.4-.3 1.1-1.1-1-2-2-3.9-3.1-5.8-.3-.5-.6-1-1-1.4-3-2.7-6.1-5.4-9.2-8.1-1.9-1.6-3.9-3.2-5.8-4.9-1.3-1.1-2.6-2.2-3.8-3.3-.7-.6-1.2-1.3-1.9-1.9-1.7-1.3-3.4-2.6-5.1-3.9-.3-.2-.7-.4-1-.6 0 .4-.2.7-.1 1.1.4 2.8.6 5.5 1.1 8.3.5 3 1.2 6 2 8.9 1.2 4.5 3.5 8.7 5.5 12.9.4.7 1.1 1.4 1.9 1.8 1.3.9 2.7 1.6 4.1 2.3 1.2.6 2.5 1.2 3.8 1.7 1.2.5 2.5.9 3.7 1.3 2.1.7 4.2 1.6 6.4 2.2 2.2.7 4.4 1.2 6.7 1.7.4.1.8.2 1.2.2 1.2 0 1.5-.5.9-1.6-1-1.9-2.2-3.7-3.2-5.6-.9-1.8-2.3-2.1-4-1.9-.1 0-.1 0-.2 0-.9.4-1.6 0-2.3-.5-.6-.4-1.3-1-.9-1.8s1.3-.9 2.1-.6c.5.4.9.5 1.1.6zm56 15.4h.1v2.7c0 .8-.3 1.1-1.1 1.2-1.4.2-2.9.7-4.3.8-1.7.1-3.5.4-5.1-.8-2.3-1.8-4.7-3.3-7-5.1-1.4-1.1-2.8-2.2-4.1-3.4-1.9-1.7-3.9-3.4-5.7-5.2-.8-.8-1.6-.7-2.6-.5-1.7.5-3.4.9-5.2 1.4-3.2.9-6.3 1.9-9.5 2.8-1.5.4-1.6.8-.7 2 .6.8 1.3 1.6 1.9 2.5.4.7.4 1.5-.3 2-.7.4-1.2.2-1.8-.4-.3-.3-.9-.4-1.3-.5-.2 0-.4.2-.6.3.1.1.3.3.4.4.7.4 1.5.7 2.1 1.3 1.7 1.4 3.2 3 4.9 4.4 1 .8 2.1 1.4 3 2.2 2.7 2.3 5.2 4.7 7.9 7 .9.8 2.1 1.3 3.3 1.9.3.2.8.2 1.2 0 .8-.3 1.7-.6 2.5-1 3.8-1.7 7.6-3.4 11.4-5.1 2.4-1.1 4.8-2.1 7.2-3.2 1.1-.5 2.3-.7 3.4-1.2 3-1.4 5.9-2.9 8.9-4.4.7-.3 1.4-.6 2-.9.8-.4.8-1.1.3-1.7-1.4-1.5-2.9-2.9-4.3-4.3-1.8-1.7-3.6-3.4-5.4-5-.2-.2-.4-.2-.6-.3-.1.2-.3.4-.3.7-.2 3.1-.4 6.3-.6 9.4zm-6.8-57.7c0-.1 0-.2 0-.3.3-2.4-.1-4.5-2.6-5.7-.4-.2-.6-.6-.9-.9-1-1-2-2.1-3-3-4.4-3.9-8.8-7.8-13.2-11.6-1.1-1-2.4-1.9-3.5-2.9-1.2-1-2.3-2-3.4-3-1.5-1.4-2.9-3-4.5-4.4-2.2-2-4.6-3.9-6.8-6-2.8-2.6-5.4-5.4-8-8.2-.5-.5-.8-.4-1 .3-.1.3-.1.6-.2.9-.1 2-.3 4-.4 6-.2 3.9-.4 7.8-.7 11.8 0 .3-.1.6-.1.9-.2 2.2-.4 4.5-.5 6.7-.2 3.6-.5 7.2-.6 10.9-.1 1.8-.1 3.7-.2 5.5-.1 3.3-.3 6.6-.4 9.9 0 .7-.2 1.4-.3 2.2-.2 2.2-.3 4.4-.6 6.6-.2 1.9.2 3.4 1.7 4.6 2.8 2.3 5.7 4.6 8.5 7 4.3 3.7 8.5 7.4 12.8 11.2.8.7 1.7 1 2.7.7.5-.2 1-.3 1.5-.4 3.6-1.2 7.3-2.3 10.9-3.5 3.4-1.1 6.7-2 9.8-3.9.4-.2.8-.6.8-1 .1-1.1.4-15.4.5-16.6.7-4.8 1.8-13.8 1.7-13.8zm-46.6 74.9v8.1c0 1 .1 2.1 0 3.1-.1.9-.8 1.4-1.6 1-2.5-1.3-4.9-.6-7.3 0-1.4.3-2-.2-1.8-1.5.1-.8.5-1.3 1.4-1 1.8.6 3.5-.3 5.3-.4 1.3-.1 1.8-.7 1.8-2.1.2-3.8.2-7.6.4-11.3.1-2.1.3-4.3.4-6.4.1-2.8.2-5.5.2-8.3 0-.3-.3-.8-.6-.9-1-.4-2-.7-3-1-2.4-.8-4.8-1.6-7.1-2.5-.9-.3-1.7-.7-2.6-1.1-1-.4-1.3-.2-1.4.8-.2 2.2-.4 4.5-.4 6.8 0 4.5.1 9 .2 13.6 0 1.3.3 2.7.3 4 0 1.5-.2 1.6-1.7 1.8s-3 .6-4.4 1c-.9.2-1.3.8-1.3 1.7 0 2.4-.4 4.7.7 7 .5.9.1 1.9-.5 2.1-.8.2-1.7-.3-1.9-1.4s-.2-2.3-.3-3.4c0-.7 0-1.5 0-2.2 0-.6.1-1.4-.2-1.8s-1.1-.4-1.6-.7c-.4-.3-1-.8-.9-1.1.1-.6.6-1.2 1-1.6.2-.2.7-.2 1.1-.3.8-.1 1.1-.5 1.2-1.2.5-5.8 1.2-11.5 1.1-17.3-.1-2.6.1-5.1.2-7.7 0-1.3.1-2.5-1.1-3.4-.6-.4-.9-1.3-1-2.1-.3-2-1.3-3.7-2.2-5.4-3-5.6-4.4-11.6-5.2-17.8-.2-2-1-3.9-1.4-5.8-.6-2.7-1.2-5.4-1.8-8.1-.1-.6-.4-1.2.4-1.7.9-.5 2.2-.5 2.6 0 1.1 1.2 2.2 2.4 3.1 3.7 1.2 1.6 2.7 2.7 4.5 3.6.5.3.7.1 1-.4 2-3.5 3.9-7.2 6.2-10.6 1.8-2.6 4.1-4.9 6.1-7.4 1.4-1.6 3-2.9 4.7-4.2 1-.7 1.8-1.7 2.6-2.7.3-.4.3-1 .4-1.5.3-5 .6-10 .9-14.9.4-5.7.8-11.3 1.2-17 .1-1.2.3-2.4.6-3.6.2-.9.6-1.4 1.6-1.7 1.8-.5 3.5-1.1 5.2-1.7 2.8-1 4.8-.4 6.7 2 .8 1 1.7 1.9 2.7 2.9 1.1 1.1 2.3 2.2 3.4 3.4 2.2 2.3 4.5 4.6 6.5 7 2.1 2.5 4.6 4.5 7.2 6.5 2.4 1.9 4.5 4.2 6.7 6.3 2.1 2 4.4 3.9 6.5 5.9 1.4 1.3 2.7 2.8 4.1 4.1 2.3 2.1 4.8 4.1 7 6.3 1.4 1.4 1.9 3.2 1.8 5.2-.1.8-.3 1.7-.4 2.5-.2 2.3-.4 4.6-.5 6.9-.1 1.2.4 2 1.4 2.6 2.7 1.6 5.3 3.2 7.9 4.8 1.1.7 2.1 1.3 3.1 2 .3.2.6.7.7 1.1.1 1.1 0 2.2 0 3.3-.1 5.1-.2 10.2-.2 15.3-.1 5.2-.1 10.3-.2 15.4 0 .7-.2 1.4-.3 2.2-.1 1.5 0 2.8.3 4.3.3 1.6-.2 3.3-.3 5-.1 2-.2 4.1-.3 6.1-.3 5.6-.5 11.2-.8 16.8-.1 1.5-.3 3-.4 4.5 0 .8.2 1.7.3 2.5.1.4.2.7.2 1.1-.1.6 0 1.5-.9 1.6-.7.1-1.3-.6-1.3-1.7 0-1.7-.1-3.4 0-5 .2-3.1.5-6.3.7-9.4.2-2.8.3-5.7.3-8.5s0-5.6-.1-8.4c0-1.5-.2-1.7-1.6-1.1-1.9.8-3.7 1.8-5.5 2.6s-3.6 1.6-5.4 2.4c-2.3 1-4.7 2-7.1 3-3.4 1.4-6.9 2.8-10.3 4.3-2.1.9-4.1 1.8-6.2 2.8-1.5.8-2.5 1.9-2.5 3.8-.2 6.3-.5 12.6-.7 18.9-.1 1.9.1 3.8.2 5.7 0 .8-.1 1.4-1 1.4-1 0-1.2-.7-1.1-1.5.1-2.9.2-5.8.3-8.7.2-6 .5-12 .7-17.9 0-1-.3-1.7-1-2.4-.3-.2-.6-.5-.9-.7-3.3-2-5.8-5-8.6-7.6-1.8-1.7-3.9-3.1-5.9-4.7-.4-.3-.7-.6-1.1-.9-2.1-2-4.6-3.4-7.2-4.7-.8-.4-.7.3-.8.7-.2 2.1-.5 4.2-.6 6.3-.4 3.9-.5 7.7-.6 10.6z"/><path d="m274.4 294.4c0-1.5.2-3.1-1.3-4.2-1.7-1.2-3.4-2.4-5.2-3.6-2.5-1.7-5.1-3.3-7.6-5-2.6-1.8-5.2-3.7-7.8-5.6-2-1.4-3-1-3.2 1.3-.2 3.1-.3 6.2-.4 9.3 0 1 .4 2 .2 3-.4 1.7.3 3 1.2 4.3.9 1.2 2.1 2.3 2.8 3.6 1.2 2.1 3.2 3.3 4.8 4.9 2 2 4 3.8 6 5.8 2.1 2.1 4.2 4.3 6.3 6.4.9.9 1.3.7 1.6-.4s.6-2.1.7-3.2c.7-5.6 1.3-11.1 1.9-16.6zm-20.1 30.8c.8-.3 1.5-.5 2.2-.7.8-.3 1.5-.8 2.3-1.1 3.6-1.4 6.9-3.3 10.1-5.4.7-.5.9-.9.2-1.5-.8-.8-1.6-1.5-2.3-2.3-2.4-2.4-4.7-4.8-7.1-7.1-3.5-3.5-7.5-6.6-10.4-10.7-.4-.6-1-1.1-1.6-1.5-.4-.2-1-.4-1.4-.2-1 .3-2 .7-3 1.2-3.3 1.5-6.6 3.1-9.9 4.7-1.2.6-1.2 1.3-.4 2.2 1.2 1.3 2.4 2.6 3.6 3.9.7.8 1.3 1.8 2.1 2.6 3.2 3.5 5.9 7.4 9.5 10.5.2.2.3.4.5.6 1.2 1.3 2.4 2.8 3.7 4 .4.4 1.3.5 1.9.8zm22.5-34.6c-.5 5-1 9.9-1.5 14.8-.4 3.3-1 6.5-1.4 9.8-.1 1-.1 2.1-.2 3.1-.1.4-.5 1.1-.7 1.1-3.2.1-5.5 2.2-8.2 3.4-1.9.8-3.7 1.7-5.5 2.6-1.6.8-3.3 1.6-4.9 2.5-1.4.8-2.2.5-3.1-.9s-2-2.8-3.2-4.1c-1.8-2-3.6-3.9-5.4-5.9-.7-.8-1.2-1.7-1.8-2.5-2.3-2.7-4.5-5.5-7-8-1.4-1.4-2.8-3-4.6-3.8-1.2-.5-1.1-1.8 0-2.4 3.8-2 7.7-3.9 11.5-5.9.7-.4 1.2-1 1.9-1.3.8-.5 1.7-1 2.6-1.3s1.3-.6 1.1-1.7c-.2-.7.1-1.5.2-2.3.5-4.1 1-8.2 1.5-12.4.1-1 .2-2.1.4-3.1.1-.8.6-1.1 1.3-.8.8.3 1.6.5 2.3 1 1.8 1.3 3.5 2.8 5.4 4.1 1.4 1 2.9 1.9 4.4 2.8 2.9 1.8 5.9 3.5 8.8 5.3.4.3.8.7 1.1 1.1.8 1.1 2.1 1.6 3.3 2 1.5.7 1.8 1 1.7 2.8z"/><path d="m329.3 275.2c.6-.2 1-.3 1.5-.5 3.6-1.3 7.2-2.5 10.7-3.9 3-1.2 6-2.6 8.9-4 1.9-.9 3.7-2 5.7-2.7 2.3-.9 4.8-1.6 7.2-2.4 1.2-.4 2.3-.9 3.5-1.4.5-.2.8-.7.3-1.2-.8-.8-1.7-1.6-2.5-2.4-3.1-2.7-6.3-5.4-9.4-8.2-.8-.7-1.5-.9-2.5-.7-4.1 1-8.2 1.9-12.3 2.9-3.9 1-7.7 2-11.6 3.1-2.5.7-5 1.6-7.5 2.5-3.2 1.1-6.3 2.3-9.5 3.5-1 .4-1 .6-.3 1.2 2 1.6 4.1 3.3 6.1 4.9 3.5 2.8 6.9 5.6 10.4 8.4.4.4.9.6 1.3.9zm41.2-14.7c-.3.3-.6.7-1 .9-1.3.6-2.6 1.1-4 1.5-2.1.7-4.2 1.2-6.3 2.1-3.9 1.7-7.8 3.6-11.7 5.4-2.1.9-4.1 1.8-6.3 2.6-2.8 1.1-5.6 2.1-8.4 3.1-.8.3-1.6.8-2.3 1.2-.8.5-1.5.5-2.1-.1-.3-.2-.6-.5-.8-.7-1.5-1.4-3-2.9-4.6-4.3-1.2-1.1-2.4-2.2-3.7-3.2-2.7-2.1-5.4-4.1-8.2-6-1.1-.7-2.3-1.3-3.4-1.9-.2-.1-.6-.1-.7-.3-.3-.4-.7-1-.7-1.4 0-.3.7-.7 1.1-.9 1.6-.4 3.3-.7 4.9-1.2 3.3-1 6.5-2.1 9.7-3.2 2.8-.9 5.7-1.7 8.6-2.6 2.4-.7 4.8-1.4 7.3-2 4.5-1.1 9-2.2 13.5-3.4.6-.2 1.2-.4 1.8-.6 1.2-.6 2-.5 2.8.5 2.8 3.6 6.4 6.5 9.8 9.5 1.3 1.1 2.6 2.2 3.9 3.4.3.5.5 1 .8 1.6z"/><path d="m221.9 235.4c0 1-.6 1.7-1.6 1.4-3.5-.8-15.7 1.7-18 2.5-1.9.7-3.2-.3-3.6-2.2-.2-1-.5-1.9-.8-2.9-.1-.4-.2-2.2.8-2.3s1.5 2.2 1.7 2.9c.3 1.2 1.2 1.9 2.4 1.7 5.2-1.1 15.8-2.2 16.9-3.1.8-.6 2.1.6 2.2 2z"/><path d="m204.8 221.6c0 .9-.6.8-1 .9-.7.1-1.1-.3-1.1-1s.5-1.1 1.1-1c.4.1 1 .3 1 1.1z"/><path d="m217.7 219.2c.9-.1 1.1 1.2 1 1.6s-.4 1.1-1.1 1-.9-.6-.9-.9c0-.4.1-1.5 1-1.7z"/><path d="m288.4 210.5c.6-.2.9.2 1.1.8.4 1.3 1.2 1.8 2.8 1.7 3.8-.2 7.5-.9 11.2-2 .7-.2 1.3-.1 1.5.7s-.1 1.4-.9 1.5c-2 .4-3.9.7-5.9 1.1-2.4.5-4.7 1-7.1 1.4-.5.1-1.4-.1-1.7-.5-.9-1-1.5-4.6-1-4.7z"/><path d="m304.6 197.7c0 .6-.2 1.2-.9 1.2s-1.9-1.1-1.7-1.6.8-1.1 1.3-1.3c.8-.3 1.3.6 1.3 1.7z"/><path d="m285.6 200.7c-.1.1-.4.7-.8.8-.7.2-1.9-.8-1.7-1.4.2-.5.7-1.2 1.2-1.4.6-.2 1.3.7 1.3 2z"/><path d="m508.2 219.8c-.3-.6-.5-1.1-.9-1.6 0-.1-.5 0-.6.1-1 1.8-2.9 2.5-4.5 3.5-.2.1-.4.4-.3.6 0 .2.3.4.5.5s.5 0 .8-.1c1.7-.4 3.2-1.3 4.5-2.4.2-.2.3-.4.5-.6zm-7.4 6.3c-2-.3-2.5-3.6-3-4.9-.4-1.1.4-2 1.5-1.7 1 .3 1.9.9 2.8.1 1.2-1 2.3-2 3.3-3.1.5-.5.6-1.4 1.5-1.4 1 0 1.5.7 1.9 1.5.5 1.1 1 2.2 1.4 3.3.4.8.2 1.6-.6 2.1-1.1.7-2.3 1.2-3.5 1.7-1.3.7-3.3 2.7-5.3 2.4z"/><path d="m488.2 196.9c0 .6-.2 1.2-1 1.2s-1.4-.3-1.5-1.3c-.1-.9.5-1.2 1.3-1.2s1.1.5 1.2 1.3z"/><path d="m502.5 202.3c-1.1 0-.8-1.6-.8-1.7-.1-.7.3-1.3 1.1-1.2.7.1 1.5.8 1.3 1.5-.1.5-.4 1.4-1.6 1.4z"/><path d="m384.4 200.3c-1.9.1-2.7-.6-2.9-2.5-.1-.6-.2-1.2-.3-1.9 0-.8.1-1.6 1-1.7s1.1.7 1.1 1.4c0 1.1.6 1.6 1.6 1.7 1.2.1 2.3.2 3.4.3 3.2.1 13.7-1.1 14.6-1 .8.1.5 1.2.4 1.7 0 .2-8.1 1.2-11.6 1.2-2.3.1-4.8.5-7.3.8z"/><path d="m382.9 181.6c.3 1.3-.7 1.4-1.1 1.6-.6.3-1.5-.7-1.5-1.5s.5-1.4 1.3-1.3c.4.1 1 0 1.3 1.2z"/><path d="m398.8 182.1c-1.3.1-1.1-.8-1.3-1.3s.6-1.3 1.3-1.2c1.2 0 1.3 2.3 0 2.5z"/><path d="m388.2 303.6c-.1-.8-.2-1.5-.3-2.3s-.1-1.7-.2-2.5c-.4-2.4-1.6-2.9-3.7-1.6-.9.5-1.9 1-2.8 1.3-1.2.4-2.5.6-3.8 1-3.2.9-6.4 1.9-9.6 2.9-1.8.6-3.6 1.4-5.4 2.2-.7.3-1.1.8-1 1.6.5 2.6.9 5.3 1.3 7.9.1.8.5 1.5.5 2.3 0 1.1.5 1.1 1.3.9.5-.2 1-.3 1.5-.6 1.5-1 3-2 4.5-2.9 1.2-.7 2.4-1.5 3.7-2 4.2-1.7 8.5-3.1 12.4-5.3 1.1-.9 2-1.5 1.6-2.9zm2.1 2.8c.2.7-.3 1.1-1.5 1.5-2.3.7-4.4 1.7-6.6 2.5-2.3.9-4.6 1.7-6.9 2.6-.4.2-.8.5-1.2.7-3.3 2.4-6.8 4.3-10.7 5.7-1 .3-1.5 0-1.7-1-.8-3.5-1.5-7.1-2.2-10.6-.2-1.3-.2-2.6-.2-3.9 0-.3.3-.8.6-1 .7-.4 1.4-.7 2.2-.8 3.3-.9 6.6-1.7 9.9-2.5 1.2-.3 2.3-.8 3.4-1.2 2.9-1 5.8-2 8.7-3.1.7-.3 1.4-.7 2.1-1.1 1.5-1 2.6-.6 2.8 1.1.3 2.4.6 4.8.9 7.2.1 1.1.2 2.3.4 3.9z"/><path d="m643.5 305.5c-.3 0-.6.2-.8 0-.4-.3-.9-.7-1.1-1.1-.1-.1.5-.8.8-.9 1.3-.5 2.6-.9 3.9-1.2 1-.2 1.3-.7 1.2-1.6-.1-.8-.2-1.9.8-2.1 1.1-.2 1.2 1 1.4 1.8.2.6.3 1.2.6 1.8.3.8 0 1.4-.7 1.6-1.7.6-5.8 1.7-6.1 1.7z"/><path d="m651 285.6c.9 0 2 1 2.1 1.7 0 .6-.8 1.5-1.6 1.5s-1.6-.7-1.5-1.6c0-.7.1-1.5 1-1.6z"/><path d="m629.6 275c-.6 0-1.2-.2-1.3-1.1-.1-.8.7-1.7 1.5-1.7.9 0 1.6.6 1.6 1.3.1 1-.6 1.5-1.8 1.5z"/><path d="m239.2 303c.4.2.7.3.9.5 1.2 1.4 2.4 2.8 3.7 4.2.5.5 1.1 1 1.5 1.6.8.9 1.5 2 2.4 2.9.8.8 1.8 1.5 2.8 2.1.6.4 1.1.7.9 1.4-.2.5-.6 1-1.1 1.2-.6.3-1-.1-1.4-.7-.8-1-1.7-1.8-2.6-2.8-2.6-2.7-5.1-5.4-7.7-8.1-.4-.4-.4-1.1-.4-1.7.1 0 .7-.3 1-.6z"/><path d="m253.3 288.4c0 .7.1 1.5 0 2.2-.1.9.3 1.4 1 1.9 2.3 1.7 4.5 3.5 6.8 5.3 1.6 1.3 3.2 2.7 4.9 4 1.3 1 1.9.7 2.2-1 .1-.4 0-.8 0-1.3 0-.6-.1-1.3.1-1.9.6-1.9-.1-3.2-1.5-4.2-3.8-2.9-7.7-5.8-11.5-8.7-.1-.1-.2-.1-.3-.2-1-.5-1.4-.3-1.5.7-.1 1.1-.1 2.1-.2 3.2zm17.8 6c0 .3 0 .5-.1.7-.6 3.4-1.2 6.8-1.9 10.2-.1.5-.1 1.3-.9 1.3-.7 0-1.4-.1-1.8-.9-.5-.9-1.2-1.7-2-2.4-3.4-2.9-6.6-6.1-10.6-8.4-3.1-1.8-3-1.8-2.4-5.3.4-2.4.8-4.9.1-7.3-.2-.7-.3-1.6.5-1.9.5-.2 1.4 0 1.8.3 2.3 1.7 4.6 3.6 6.9 5.4.2.2.5.4.7.6 2 1.4 4.1 2.9 6.1 4.3.6.4 1.3 1 2 1.2 1.6.2 1.6 1.2 1.6 2.2z"/></g></svg>